<svg width="17" height="17" viewBox="0 0 17 17" fill="none" xmlns="http://www.w3.org/2000/svg">
<path d="M7.13477 16.8564H4.25877C3.26488 16.8551 2.31207 16.4597 1.60928 15.7569C0.906496 15.0541 0.511089 14.1013 0.509766 13.1074L0.509766 4.60745C0.510559 3.61321 0.905733 2.65989 1.60858 1.95667C2.31142 1.25345 3.26453 0.857769 4.25877 0.856445L10.0098 0.856445C11.0038 0.857504 11.9569 1.25279 12.6599 1.95561C13.3629 2.65843 13.7584 3.61138 13.7598 4.60545C13.7598 4.77121 13.6939 4.93018 13.5767 5.04739C13.4595 5.1646 13.3005 5.23045 13.1348 5.23045C12.969 5.23045 12.81 5.1646 12.6928 5.04739C12.5756 4.93018 12.5098 4.77121 12.5098 4.60545C12.5098 4.27714 12.4451 3.95205 12.3195 3.64874C12.1938 3.34542 12.0097 3.06982 11.7775 2.83768C11.5454 2.60553 11.2698 2.42138 10.9665 2.29575C10.6632 2.17011 10.3381 2.10545 10.0098 2.10545H4.25877C3.59572 2.10545 2.95984 2.36884 2.491 2.83768C2.02216 3.30652 1.75877 3.9424 1.75877 4.60545V13.1054C1.75877 13.7685 2.02216 14.4044 2.491 14.8732C2.95984 15.3421 3.59572 15.6054 4.25877 15.6054H7.13477C7.30053 15.6054 7.4595 15.6713 7.57671 15.7885C7.69392 15.9057 7.75977 16.0647 7.75977 16.2304C7.75977 16.3962 7.69392 16.5552 7.57671 16.6724C7.4595 16.7896 7.30053 16.8554 7.13477 16.8554V16.8564ZM8.16577 13.3564H5.10377C4.938 13.3564 4.77903 13.2906 4.66182 13.1734C4.54461 13.0562 4.47877 12.8972 4.47877 12.7314C4.47877 12.5657 4.54461 12.4067 4.66182 12.2895C4.77903 12.1723 4.938 12.1064 5.10377 12.1064H8.16577C8.33153 12.1064 8.4905 12.1723 8.60771 12.2895C8.72492 12.4067 8.79077 12.5657 8.79077 12.7314C8.79077 12.8972 8.72492 13.0562 8.60771 13.1734C8.4905 13.2906 8.33153 13.3564 8.16577 13.3564ZM12.7278 11.7934C12.2025 11.7932 11.6891 11.6373 11.2524 11.3453C10.8158 11.0534 10.4755 10.6385 10.2747 10.1532C10.0738 9.66782 10.0213 9.13382 10.1239 8.61867C10.2265 8.10353 10.4796 7.63036 10.851 7.25902C11.2225 6.88767 11.6958 6.63481 12.211 6.53241C12.7262 6.43001 13.2601 6.48266 13.7454 6.68372C14.2307 6.88477 14.6454 7.2252 14.9372 7.66195C15.229 8.09871 15.3848 8.61218 15.3848 9.13745C15.384 9.84179 15.1038 10.517 14.6056 11.015C14.1075 11.5129 13.4321 11.7929 12.7278 11.7934ZM12.7278 7.73145C12.4497 7.73164 12.178 7.81427 11.9469 7.96888C11.7158 8.1235 11.5358 8.34315 11.4295 8.60008C11.3232 8.85701 11.2955 9.13968 11.3499 9.41235C11.4043 9.68503 11.5383 9.93546 11.7349 10.132C11.9316 10.3285 12.1821 10.4623 12.4548 10.5165C12.7275 10.5707 13.0102 10.5428 13.267 10.4363C13.5239 10.3299 13.7434 10.1497 13.8979 9.91847C14.0523 9.68728 14.1348 9.41548 14.1348 9.13745C14.1345 8.76446 13.9861 8.40684 13.7223 8.14319C13.4585 7.87954 13.1008 7.73145 12.7278 7.73145ZM8.16577 10.9504H5.10377C4.938 10.9504 4.77903 10.8846 4.66182 10.7674C4.54461 10.6502 4.47877 10.4912 4.47877 10.3254C4.47877 10.1597 4.54461 10.0007 4.66182 9.8835C4.77903 9.76629 4.938 9.70045 5.10377 9.70045H8.16577C8.33153 9.70045 8.4905 9.76629 8.60771 9.8835C8.72492 10.0007 8.79077 10.1597 8.79077 10.3254C8.79077 10.4912 8.72492 10.6502 8.60771 10.7674C8.4905 10.8846 8.33153 10.9504 8.16577 10.9504ZM8.16577 8.57545H5.10377C4.938 8.57545 4.77903 8.5096 4.66182 8.39239C4.54461 8.27518 4.47877 8.11621 4.47877 7.95045C4.47877 7.78468 4.54461 7.62571 4.66182 7.5085C4.77903 7.39129 4.938 7.32545 5.10377 7.32545H8.16577C8.33153 7.32545 8.4905 7.39129 8.60771 7.5085C8.72492 7.62571 8.79077 7.78468 8.79077 7.95045C8.79077 8.11621 8.72492 8.27518 8.60771 8.39239C8.4905 8.5096 8.33153 8.57545 8.16577 8.57545Z" fill="#100DB1"/>
<path d="M15.8855 16.856C15.7198 16.8557 15.561 16.7898 15.4439 16.6726C15.3267 16.5555 15.2608 16.3966 15.2605 16.231C15.2618 15.6364 15.0273 15.0656 14.6083 14.6438C14.1893 14.222 13.6201 13.9836 13.0255 13.981H12.4955C11.901 13.9836 11.3318 14.222 10.9128 14.6438C10.4938 15.0656 10.2592 15.6364 10.2605 16.231C10.2605 16.3967 10.1947 16.5557 10.0775 16.6729C9.96025 16.7901 9.80128 16.856 9.63552 16.856C9.46976 16.856 9.31078 16.7901 9.19357 16.6729C9.07636 16.5557 9.01052 16.3967 9.01052 16.231C9.01051 15.3053 9.3772 14.4173 10.0303 13.7614C10.6835 13.1054 11.5699 12.7349 12.4955 12.731H13.0255C13.9512 12.7349 14.8376 13.1054 15.4907 13.7614C16.1438 14.4173 16.5105 15.3053 16.5105 16.231C16.5105 16.3967 16.4447 16.5557 16.3275 16.6729C16.2102 16.7901 16.0513 16.856 15.8855 16.856ZM9.41552 6.16797H5.10352C4.93776 6.16797 4.77878 6.10212 4.66157 5.98491C4.54436 5.8677 4.47852 5.70873 4.47852 5.54297C4.47852 5.37721 4.54436 5.21824 4.66157 5.10103C4.77878 4.98382 4.93776 4.91797 5.10352 4.91797H9.41552C9.58128 4.91797 9.74025 4.98382 9.85746 5.10103C9.97467 5.21824 10.0405 5.37721 10.0405 5.54297C10.0405 5.70873 9.97467 5.8677 9.85746 5.98491C9.74025 6.10212 9.58128 6.16797 9.41552 6.16797Z" fill="#F80D38"/>
</svg>
