<svg width="518" height="290" viewBox="0 0 718 481" fill="none" xmlns="http://www.w3.org/2000/svg">
<path d="M223.26 35.275C-3.46198 128.228 74.2229 375.491 210.79 409.875C241.408 417.583 263.52 394.849 294.616 395.526C324.355 396.173 336.616 415.411 360.255 429.549C416.085 462.934 510.378 439.467 548.416 393.062C617.354 308.962 574.455 106.331 443.764 40.813C431.087 34.457 325.649 -6.70403 223.264 35.274" fill="#EBF2FF"/>
<path d="M181.361 95.407C-4.75294 239.028 87.168 444.785 232.602 445.673C280.784 445.967 286.536 417.904 319.094 410.961C350.229 404.321 362.967 423.497 390.376 428.54C488.158 446.533 548.071 401.598 584.184 346.392C649.634 246.341 561.079 51.119 413.424 32.092C367.167 26.134 268.911 27.849 181.361 95.407Z" stroke="#3F3F9E" stroke-width="10" stroke-miterlimit="10" stroke-dasharray="30 30"/>
<path d="M66.828 292.165C55.323 214.63 125.346 143.474 156.997 119.617C240.986 56.31 408.882 7.22403 518.497 90.971C576.79 135.509 644.897 226.796 605.59 316.415C573.576 389.402 501.88 404.591 441.87 396.578C379.336 388.228 370.17 344.623 311.994 342.888C243.438 340.843 250.564 402.605 157.004 390.91C109.314 384.949 74.239 342.088 66.831 292.166" fill="#D2DBFC"/>
<path d="M223.052 394.354C223.503 395.421 223.62 396.599 223.388 397.734C223.156 398.869 222.586 399.907 221.752 400.711C220.918 401.516 219.861 402.048 218.718 402.239C217.576 402.431 216.402 402.271 215.352 401.782C214.72 401.51 214.149 401.114 213.672 400.619C213.194 400.124 212.82 399.539 212.571 398.898C212.12 397.831 212.002 396.652 212.234 395.517C212.466 394.382 213.037 393.344 213.87 392.54C214.704 391.736 215.762 391.203 216.905 391.012C218.047 390.821 219.221 390.981 220.271 391.471C220.903 391.743 221.474 392.139 221.951 392.634C222.429 393.129 222.803 393.714 223.052 394.355" fill="#4E2DA3"/>
<path d="M573.573 59.581C573.553 60.7042 573.2 61.7962 572.559 62.7188C571.918 63.6414 571.018 64.3532 569.972 64.7643C568.927 65.1753 567.783 65.267 566.685 65.0279C565.587 64.7888 564.585 64.2296 563.805 63.4209C563.025 62.6123 562.503 61.5906 562.304 60.485C562.105 59.3794 562.238 58.2395 562.686 57.2096C563.135 56.1797 563.879 55.306 564.824 54.6989C565.77 54.0918 566.874 53.7786 567.997 53.799C569.503 53.8264 570.937 54.4509 571.982 55.5352C573.028 56.6195 573.6 58.0749 573.573 59.581Z" fill="#4E2DA3"/>
<path d="M7.396 238.705C4.31267 248.793 1.98716 259.097 0.438965 269.531C4.37096 275.622 20.4021 298.903 49.2271 304.126C56.6465 305.452 64.2376 305.502 71.674 304.275C73.9389 303.62 76.423 302.845 79.084 301.925C94.9893 296.488 109.792 288.246 122.791 277.589C125.959 274.97 129.108 272.122 132.2 269.022C138.798 262.402 144.686 255.11 149.766 247.264C141.035 249.564 96.493 260.355 56.481 234.007C43.1471 225.139 31.9686 213.396 23.766 199.643C17.0192 212.085 11.5352 225.17 7.396 238.705Z" fill="#A6C3FD"/>
<path d="M86.825 285.294C85.8695 291.458 83.1852 297.224 79.0839 301.923C94.9888 296.488 109.792 288.249 122.791 277.594C116.674 278.054 110.522 277.597 104.54 276.238C97.919 274.74 91.5437 272.311 85.6039 269.025C87.1702 274.301 87.5867 279.851 86.825 285.302" fill="#92ACEF"/>
<path d="M572.977 160.997C578.282 161.659 583.584 162.329 588.883 163.007C594.925 163.78 600.967 164.565 607.009 165.362C601.951 176.27 588.492 185.002 578.436 190.562C567.536 196.593 559.436 198.072 544.136 200.142C556.28 189.161 566.087 175.847 572.973 160.993" fill="#92ACEF"/>
<path d="M676.173 105.882C672.387 118.873 666.481 131.15 658.692 142.215C622.823 192.896 559.077 198.598 545.86 199.504C552.801 197.653 588.598 187.367 607.03 152.162C614.08 138.515 617.596 123.319 617.255 107.962L676.174 105.879" fill="#A6C3FD"/>
<path d="M576.217 335.542C557.967 348.588 541.428 363.874 526.988 381.042C538.653 391.869 552.511 400.059 567.62 405.059C582.729 410.058 598.738 411.748 614.558 410.016L694.968 386.233C685.144 388.22 654.996 393 622.504 377.181C603.513 367.861 587.488 353.444 576.217 335.542Z" fill="#A6C3FD"/>
<path d="M615.962 409.543L693.652 386.787C686.282 389.099 678.661 390.518 670.952 391.014C664.938 391.399 653.786 389.25 648.661 388.191C646.119 392.009 644.361 393.18 638.135 397.882C628.686 405.014 623.643 407.732 615.96 409.543" fill="#92ACEF"/>
<path d="M484.759 2.20897L490.659 11.968L481.927 17.243L484.28 21.138L493.011 15.863L498.911 25.622L502.395 23.517L496.495 13.758L505.227 8.48297L502.874 4.58897L494.142 9.86397L488.242 0.10498L484.759 2.20897Z" fill="#92ACEF"/>
<path d="M634.849 254.618L640.749 264.377L632.017 269.652L634.37 273.547L643.102 268.272L649.002 278.031L652.487 275.926L646.587 266.167L655.319 260.892L652.965 256.998L644.234 262.273L638.334 252.514L634.849 254.618Z" fill="#92ACEF"/>
<path d="M689.769 180.871C686.728 181.311 683.886 182.644 681.603 184.699C679.319 186.755 677.697 189.441 676.94 192.419C676.183 195.397 676.327 198.532 677.352 201.428C678.377 204.325 680.238 206.852 682.7 208.69C685.162 210.529 688.113 211.596 691.182 211.757C694.25 211.918 697.297 211.166 699.937 209.595C702.578 208.024 704.693 205.706 706.016 202.933C707.339 200.16 707.81 197.057 707.369 194.016C707.077 191.997 706.389 190.056 705.346 188.303C704.304 186.55 702.926 185.019 701.291 183.798C699.657 182.578 697.798 181.691 695.821 181.189C693.844 180.686 691.788 180.578 689.769 180.871ZM693.423 206.083C691.477 206.365 689.491 206.064 687.716 205.217C685.941 204.371 684.458 203.017 683.452 201.327C682.447 199.637 681.965 197.687 682.068 195.723C682.172 193.759 682.854 191.87 684.031 190.295C685.208 188.719 686.825 187.528 688.679 186.872C690.532 186.216 692.539 186.124 694.445 186.608C696.351 187.092 698.07 188.13 699.386 189.592C700.701 191.053 701.554 192.872 701.836 194.818C702.023 196.11 701.954 197.426 701.633 198.692C701.312 199.957 700.744 201.147 699.963 202.193C699.182 203.239 698.202 204.121 697.08 204.789C695.958 205.456 694.715 205.896 693.423 206.083Z" fill="#92ACEF"/>
<path d="M130.16 430.336C127.119 430.776 124.278 432.109 121.994 434.164C119.71 436.22 118.088 438.906 117.331 441.884C116.575 444.862 116.718 447.997 117.743 450.893C118.768 453.79 120.63 456.317 123.091 458.155C125.553 459.994 128.504 461.061 131.573 461.222C134.641 461.383 137.688 460.631 140.328 459.06C142.969 457.489 145.084 455.171 146.407 452.398C147.73 449.625 148.201 446.522 147.76 443.481C147.467 441.462 146.78 439.521 145.737 437.768C144.695 436.015 143.317 434.484 141.682 433.263C140.048 432.043 138.189 431.156 136.212 430.654C134.235 430.151 132.179 430.043 130.16 430.336ZM133.814 455.548C131.868 455.83 129.883 455.528 128.108 454.682C126.334 453.835 124.85 452.481 123.845 450.792C122.84 449.102 122.359 447.152 122.462 445.189C122.565 443.225 123.248 441.337 124.424 439.761C125.601 438.186 127.218 436.995 129.071 436.339C130.924 435.683 132.931 435.591 134.836 436.075C136.742 436.559 138.461 437.597 139.776 439.058C141.092 440.519 141.945 442.337 142.227 444.283C142.414 445.575 142.345 446.891 142.024 448.157C141.703 449.422 141.135 450.612 140.354 451.658C139.573 452.704 138.593 453.586 137.471 454.254C136.349 454.921 135.106 455.361 133.814 455.548Z" fill="#92ACEF"/>
<path d="M169.774 172.767C169.75 174.058 169.345 175.312 168.608 176.372C167.871 177.433 166.837 178.25 165.635 178.723C164.434 179.195 163.12 179.3 161.858 179.025C160.597 178.75 159.445 178.108 158.549 177.178C157.653 176.249 157.053 175.075 156.824 173.804C156.596 172.534 156.749 171.224 157.264 170.041C157.78 168.857 158.635 167.853 159.721 167.156C160.808 166.458 162.076 166.098 163.367 166.122C165.098 166.154 166.745 166.872 167.946 168.118C169.148 169.364 169.805 171.036 169.774 172.767Z" fill="#3F3F9E"/>
<path d="M230.052 474.408C230.028 475.699 229.623 476.953 228.886 478.013C228.149 479.074 227.115 479.891 225.913 480.364C224.712 480.836 223.398 480.941 222.136 480.666C220.875 480.391 219.723 479.749 218.827 478.819C217.931 477.89 217.331 476.716 217.102 475.445C216.874 474.175 217.027 472.865 217.542 471.682C218.058 470.498 218.913 469.494 219.999 468.797C221.086 468.099 222.354 467.739 223.645 467.763C224.502 467.779 225.347 467.963 226.133 468.305C226.919 468.648 227.63 469.141 228.225 469.759C228.82 470.376 229.287 471.104 229.601 471.901C229.914 472.699 230.068 473.551 230.052 474.408Z" fill="#3F3F9E"/>
<path d="M78.902 146.795L67.302 150.205L64.251 139.823L59.62 141.184L62.671 151.566L51.071 154.977L52.2891 159.12L63.889 155.709L66.941 166.091L71.572 164.73L68.52 154.348L80.12 150.937L78.902 146.795Z" fill="#A6C3FD"/>
<path d="M122.633 96.655C123.003 93.4169 122.405 90.1418 120.914 87.2438C119.422 84.3458 117.105 81.9551 114.255 80.3741C111.405 78.793 108.15 78.0926 104.902 78.3615C101.654 78.6303 98.5589 79.8563 96.0077 81.8845C93.4564 83.9126 91.5639 86.6518 90.5695 89.7555C89.575 92.8593 89.5233 96.1882 90.4209 99.3214C91.3185 102.455 93.125 105.251 95.6121 107.357C98.0991 109.464 101.155 110.785 104.393 111.155C108.735 111.651 113.095 110.401 116.516 107.682C119.936 104.963 122.137 100.996 122.633 96.655ZM95.7841 93.59C96.0206 91.5177 96.8663 89.562 98.2144 87.9704C99.5624 86.3787 101.352 85.2225 103.357 84.648C105.362 84.0735 107.493 84.1065 109.479 84.7428C111.466 85.3791 113.219 86.5901 114.517 88.2227C115.815 89.8553 116.6 91.8362 116.772 93.9149C116.944 95.9936 116.496 98.0767 115.485 99.9007C114.473 101.725 112.943 103.208 111.089 104.163C109.234 105.117 107.138 105.501 105.066 105.264C103.69 105.107 102.358 104.68 101.147 104.009C99.9362 103.337 98.8691 102.433 98.0072 101.349C97.1453 100.265 96.5054 99.0222 96.1239 97.6908C95.7424 96.3595 95.627 94.966 95.7841 93.59Z" fill="#3F3F9E"/>
<path d="M708.516 283.695C707.198 283.322 706.021 282.567 705.133 281.524C704.244 280.482 703.685 279.2 703.525 277.84C703.365 276.48 703.613 275.103 704.236 273.883C704.859 272.664 705.829 271.656 707.025 270.988C708.22 270.32 709.587 270.022 710.952 270.131C712.317 270.239 713.619 270.751 714.694 271.599C715.769 272.448 716.567 273.597 716.989 274.9C717.411 276.203 717.437 277.601 717.064 278.919C716.817 279.794 716.399 280.611 715.835 281.325C715.272 282.038 714.573 282.634 713.779 283.077C712.986 283.521 712.112 283.804 711.209 283.91C710.306 284.016 709.391 283.943 708.516 283.695Z" fill="#A6C3FD"/>
<path d="M321.138 234.331C324.662 240.19 329.73 243.643 332.488 242.049L356.988 227.898C359.76 226.298 359.149 220.205 355.624 214.291L355.57 214.201C352.047 208.341 346.978 204.889 344.22 206.483L319.72 220.634C316.948 222.234 317.558 228.327 321.084 234.241L321.138 234.33" fill="#A6C3FD"/>
<path d="M351.13 231.128L343.348 235.808L330.239 214.598L338.669 209.528C338.669 209.528 337.269 214.746 341.853 221.869C347.253 230.259 351.13 231.128 351.13 231.128Z" fill="#6687D1"/>
<path d="M376.897 94.5529C361.449 103.843 349.104 117.506 341.421 133.812C333.738 150.119 331.063 168.338 333.735 186.165C336.406 203.992 344.304 220.626 356.43 233.965C368.555 247.303 384.364 256.746 401.856 261.1C419.349 265.454 437.739 264.523 454.702 258.424C471.665 252.326 486.44 241.335 497.156 226.84C507.872 212.345 514.05 194.998 514.907 176.993C515.765 158.987 511.263 141.131 501.973 125.684C489.515 104.97 469.339 90.0528 445.882 84.2146C422.426 78.3764 397.611 82.0952 376.897 94.5529Z" fill="#92ACEF"/>
<path d="M386.292 110.176C373.935 117.609 364.059 128.539 357.913 141.585C351.767 154.63 349.628 169.205 351.766 183.466C353.904 197.728 360.223 211.035 369.924 221.705C379.625 232.375 392.272 239.929 406.266 243.411C420.259 246.893 434.971 246.148 448.542 241.269C462.112 236.39 473.931 227.596 482.503 216C491.076 204.404 496.017 190.526 496.702 176.122C497.387 161.718 493.786 147.433 486.353 135.076C476.386 118.505 460.244 106.573 441.479 101.903C422.714 97.2336 402.863 100.209 386.292 110.176Z" fill="#3F3F9E"/>
<path d="M388.17 113.3C376.43 120.361 367.047 130.744 361.208 143.137C355.369 155.53 353.337 169.376 355.367 182.925C357.397 196.473 363.4 209.115 372.615 219.252C381.831 229.39 393.845 236.566 407.139 239.875C420.433 243.184 434.41 242.477 447.302 237.842C460.194 233.208 471.422 224.854 479.566 213.838C487.711 202.822 492.406 189.639 493.058 175.954C493.709 162.27 490.289 148.7 483.228 136.96C473.76 121.217 458.426 109.88 440.599 105.443C422.772 101.006 403.913 103.832 388.17 113.3Z" fill="#E1EBFF"/>
<path d="M157.101 318.439C156.901 323.478 159.432 327.867 160.891 330.393C162.32 332.868 165.216 337.882 170.237 340.28C176.09 343.08 182.425 341.169 189.065 338.714C201.859 333.928 214.152 327.895 225.765 320.701L303.786 273.778C330.97 257.429 350.466 239.487 347.109 233.907C343.549 231.351 340.549 228.096 338.29 224.34C336.031 220.585 334.562 216.408 333.973 212.066C330.618 206.485 305.63 215.296 278.446 231.645L200.425 278.568C188.661 285.506 177.575 293.533 167.311 302.542C162.233 307.042 157.369 311.828 157.102 318.442" fill="#92ACEF"/>
<path d="M431.365 232.117C432.195 233.493 433.456 234.556 434.952 235.142C436.449 235.727 438.097 235.801 439.64 235.352C465.04 227.967 476.924 211.361 482.426 198.731C491.147 178.71 489.538 155.966 483.44 143.846C483.01 142.991 482.416 142.23 481.692 141.605C480.968 140.98 480.128 140.504 479.219 140.204C478.311 139.903 477.353 139.785 476.399 139.855C475.445 139.925 474.514 140.183 473.659 140.612C472.805 141.042 472.043 141.636 471.418 142.36C470.794 143.085 470.317 143.925 470.017 144.833C469.717 145.741 469.599 146.7 469.669 147.654C469.739 148.608 469.996 149.538 470.426 150.393C474.247 157.986 476.351 176.199 469.07 192.913C462.878 207.128 451.608 216.7 435.57 221.363C434.5 221.676 433.515 222.23 432.692 222.983C431.869 223.735 431.23 224.667 430.824 225.706C430.418 226.744 430.255 227.862 430.348 228.973C430.442 230.085 430.789 231.16 431.363 232.116" fill="#F3F5FF"/>
<path d="M474.548 194.033C474.891 194.602 475.383 195.066 475.97 195.376C476.558 195.685 477.219 195.828 477.883 195.789C478.546 195.75 479.185 195.53 479.732 195.153C480.279 194.776 480.713 194.257 480.986 193.651C485.157 184.454 486.941 174.353 486.171 164.283C485.618 157.376 483.855 150.62 480.962 144.323C480.56 143.445 479.826 142.762 478.92 142.425C478.015 142.088 477.012 142.125 476.134 142.527C475.256 142.929 474.573 143.664 474.236 144.569C473.899 145.474 473.936 146.477 474.338 147.355C476.877 152.877 478.424 158.803 478.91 164.861C479.578 173.706 478.009 182.576 474.347 190.655C474.104 191.192 473.995 191.78 474.03 192.369C474.065 192.957 474.243 193.528 474.548 194.033Z" fill="white"/>
<path d="M386.03 166.935C388.372 165.527 390.243 163.456 391.408 160.984C392.573 158.512 392.978 155.75 392.573 153.048C392.168 150.345 390.971 147.824 389.133 145.802C387.294 143.78 384.898 142.348 382.247 141.688C379.595 141.028 376.807 141.169 374.236 142.094C371.664 143.018 369.425 144.685 367.8 146.882C366.176 149.079 365.239 151.709 365.109 154.438C364.979 157.168 365.662 159.874 367.07 162.216C368.959 165.356 372.017 167.617 375.573 168.502C379.128 169.387 382.89 168.823 386.03 166.935Z" fill="#F3F5FF"/>
<path d="M387.43 161.868C388.447 161.256 389.259 160.356 389.764 159.283C390.269 158.209 390.445 157.01 390.268 155.837C390.092 154.664 389.572 153.569 388.774 152.691C387.976 151.813 386.935 151.192 385.784 150.905C384.633 150.619 383.422 150.68 382.306 151.081C381.189 151.483 380.217 152.206 379.511 153.16C378.806 154.114 378.399 155.255 378.342 156.441C378.285 157.626 378.581 158.801 379.192 159.818C379.598 160.494 380.133 161.083 380.767 161.552C381.401 162.021 382.121 162.36 382.886 162.55C383.651 162.741 384.446 162.778 385.226 162.661C386.006 162.544 386.755 162.275 387.43 161.868Z" fill="white"/>
<path d="M387.43 161.868C388.447 161.256 389.259 160.356 389.764 159.283C390.269 158.209 390.445 157.01 390.268 155.837C390.092 154.664 389.572 153.569 388.774 152.691C387.976 151.813 386.935 151.192 385.784 150.905C384.633 150.619 383.422 150.68 382.306 151.081C381.189 151.483 380.217 152.206 379.511 153.16C378.806 154.114 378.399 155.255 378.342 156.441C378.285 157.626 378.581 158.801 379.192 159.818C379.598 160.494 380.133 161.083 380.767 161.552C381.401 162.021 382.121 162.36 382.886 162.55C383.651 162.741 384.446 162.778 385.226 162.661C386.006 162.544 386.755 162.275 387.43 161.868Z" stroke="white" stroke-miterlimit="10"/>
<path d="M278.062 231.875L234.211 258.247C237.005 275.024 246.203 290.062 259.866 300.191L303.716 273.819C290.052 263.69 280.855 248.653 278.062 231.875Z" fill="#A6C3FD"/>
<path d="M294.811 249.212C290.785 242.389 287.786 235.01 285.911 227.312C287.038 226.678 288.159 226.061 289.273 225.46C293.152 241.598 301.999 256.111 314.567 266.952C313.516 267.654 312.447 268.354 311.36 269.052C304.814 263.37 299.227 256.669 294.814 249.207" fill="#3F3F9E"/>
<path d="M285.911 227.312C289.855 243.531 298.749 258.121 311.359 269.058C308.913 270.637 306.389 272.211 303.786 273.778L303.717 273.82C290.054 263.691 280.856 248.653 278.062 231.876L278.446 231.645C280.957 230.135 283.445 228.691 285.911 227.313" fill="#EBF1FF"/>
</svg>
