<?xml version="1.0" encoding="UTF-8"?>
<svg xmlns="http://www.w3.org/2000/svg" viewBox="0 0 500 372.61">
  <defs>
    <style>
      .cls-1 {
        fill: #f0f0f0;
      }

      .cls-2 {
        opacity: .7;
      }

      .cls-3 {
        fill: #fff;
      }

      .cls-4 {
        opacity: .6;
      }

      .cls-4, .cls-5, .cls-6 {
        fill: #407bff;
      }

      .cls-7 {
        fill: #fafafa;
      }

      .cls-5 {
        opacity: .4;
      }

      .cls-8 {
        fill: #f5f5f5;
      }

      .cls-9, .cls-10 {
        opacity: .2;
      }

      .cls-11 {
        fill: #e6e6e6;
      }

      .cls-12 {
        opacity: .3;
      }

      .cls-13 {
        fill: #ebebeb;
      }

      .cls-10, .cls-14 {
        fill: #263238;
      }

      .cls-15 {
        fill: #7f3e3b;
      }

      .cls-16 {
        fill: #630f0f;
      }
    </style>
  </defs>
  <g id="Background_Complete" data-name="Background Complete">
    <g>
      <rect class="cls-13" y="327.45" width="500" height=".25"/>
      <rect class="cls-13" x="416.78" y="343.54" width="33.12" height=".25"/>
      <rect class="cls-13" x="322.53" y="346.26" width="8.69" height=".25"/>
      <rect class="cls-13" x="396.59" y="334.26" width="19.19" height=".25"/>
      <rect class="cls-13" x="52.46" y="335.94" width="43.19" height=".25"/>
      <rect class="cls-13" x="104.56" y="335.94" width="6.33" height=".25"/>
      <rect class="cls-13" x="131.47" y="340.16" width="93.68" height=".25"/>
      <path class="cls-13" d="m237.01,282.85H43.91c-3.15,0-5.71-2.56-5.71-5.71V5.71c0-3.15,2.56-5.71,5.71-5.71h193.1c3.15,0,5.71,2.56,5.71,5.71v271.43c0,3.15-2.56,5.71-5.71,5.71ZM43.91.25c-3.01,0-5.46,2.45-5.46,5.46v271.43c0,3.01,2.45,5.46,5.46,5.46h193.1c3.01,0,5.46-2.45,5.46-5.46V5.71c0-3.01-2.45-5.46-5.46-5.46H43.91Z"/>
      <path class="cls-13" d="m453.31,282.85h-193.1c-3.15,0-5.71-2.56-5.71-5.71V5.71c0-3.15,2.56-5.71,5.71-5.71h193.1c3.15,0,5.71,2.56,5.71,5.71v271.43c0,3.15-2.56,5.71-5.71,5.71ZM260.21.25c-3.01,0-5.46,2.45-5.46,5.46v271.43c0,3.01,2.45,5.46,5.46,5.46h193.1c3.01,0,5.46-2.45,5.46-5.46V5.71c0-3.01-2.45-5.46-5.46-5.46h-193.1Z"/>
    </g>
    <g>
      <g>
        <rect class="cls-11" x="88.47" y="220.98" width="29.42" height="106.47" transform="translate(206.35 548.42) rotate(180)"/>
        <polygon class="cls-1" points="93.56 327.45 88.47 327.45 88.47 312.95 98.91 312.95 93.56 327.45"/>
        <rect class="cls-11" x="282.45" y="220.98" width="29.42" height="106.47" transform="translate(594.32 548.42) rotate(180)"/>
        <rect class="cls-1" x="88.47" y="220.98" width="198.43" height="97.57" transform="translate(375.36 539.53) rotate(180)"/>
        <rect class="cls-11" x="92.42" y="225.3" width="190.53" height="26.76" transform="translate(375.36 477.36) rotate(180)"/>
        <path class="cls-1" d="m148.45,233.62h78.47c8.03,0,15.7-3.3,21.22-9.13h-120.92c5.52,5.83,13.2,9.13,21.22,9.13Z"/>
        <polygon class="cls-1" points="281.8 327.45 286.9 327.45 286.9 312.95 276.46 312.95 281.8 327.45"/>
        <rect class="cls-11" x="92.42" y="256.38" width="190.53" height="26.76" transform="translate(375.36 539.53) rotate(180)"/>
        <path class="cls-1" d="m148.45,264.7h78.47c8.03,0,15.7-3.3,21.22-9.13h-120.92c5.52,5.83,13.2,9.13,21.22,9.13Z"/>
        <rect class="cls-11" x="92.42" y="287.47" width="190.53" height="26.76" transform="translate(375.36 601.69) rotate(180)"/>
        <path class="cls-1" d="m148.45,295.78h78.47c8.03,0,15.7-3.3,21.22-9.13h-120.92c5.52,5.83,13.2,9.13,21.22,9.13Z"/>
      </g>
      <g>
        <rect class="cls-11" x="84.13" y="46.05" width="116.04" height="143.71" transform="translate(284.3 235.81) rotate(180)"/>
        <rect class="cls-1" x="70.93" y="46.05" width="125.87" height="143.71" transform="translate(267.73 235.81) rotate(180)"/>
        <rect class="cls-3" x="72.56" y="65.51" width="122.62" height="104.78" transform="translate(251.77 -15.96) rotate(90)"/>
      </g>
      <g>
        <rect class="cls-13" x="279.1" y="44.46" width="157.24" height="141.71" transform="translate(715.44 230.64) rotate(180)"/>
        <rect class="cls-8" x="274.97" y="44.46" width="159.44" height="141.71" transform="translate(709.37 230.64) rotate(180)"/>
        <rect class="cls-13" x="291.25" y="186.17" width="145.09" height="7.68" transform="translate(727.59 380.03) rotate(180)"/>
        <rect class="cls-1" x="268.9" y="186.17" width="136.66" height="7.68" transform="translate(674.46 380.03) rotate(180)"/>
        <rect class="cls-7" x="289.62" y="41.39" width="130.14" height="147.87" transform="translate(470.01 -239.37) rotate(90)"/>
        <polygon class="cls-3" points="405.56 180.39 356.17 50.25 332.85 50.25 382.24 180.39 405.56 180.39"/>
        <path class="cls-1" d="m425.84,171.29c.28,0,.51-.23.51-.51V54.11c0-.28-.23-.51-.51-.51s-.51.23-.51.51v116.66c0,.28.23.51.51.51Z"/>
        <polygon class="cls-3" points="377.23 180.39 327.84 50.25 318.75 50.25 368.14 180.39 377.23 180.39"/>
        <polygon class="cls-3" points="355.68 180.39 306.29 50.25 297.19 50.25 346.59 180.39 355.68 180.39"/>
        <rect class="cls-13" x="216.05" y="114.95" width="130.14" height=".73" transform="translate(396.44 -165.8) rotate(90)"/>
        <g class="cls-2">
          <polygon class="cls-13" points="273.6 55.5 430.84 55.5 431.37 52.5 274.13 52.5 273.6 55.5"/>
          <polygon class="cls-13" points="273.6 58.72 430.84 58.72 431.37 55.72 274.13 55.72 273.6 58.72"/>
          <polygon class="cls-13" points="273.6 61.94 430.84 61.94 431.37 58.94 274.13 58.94 273.6 61.94"/>
          <polygon class="cls-13" points="273.6 65.16 430.84 65.16 431.37 62.16 274.13 62.16 273.6 65.16"/>
          <polygon class="cls-13" points="273.6 68.38 430.84 68.38 431.37 65.39 274.13 65.39 273.6 68.38"/>
          <polygon class="cls-13" points="273.6 71.61 430.84 71.61 431.37 68.61 274.13 68.61 273.6 71.61"/>
          <polygon class="cls-13" points="273.6 74.83 430.84 74.83 431.37 71.83 274.13 71.83 273.6 74.83"/>
          <polygon class="cls-13" points="273.6 78.05 430.84 78.05 431.37 75.05 274.13 75.05 273.6 78.05"/>
          <polygon class="cls-13" points="273.6 81.27 430.84 81.27 431.37 78.27 274.13 78.27 273.6 81.27"/>
          <polygon class="cls-13" points="273.6 84.49 430.84 84.49 431.37 81.49 274.13 81.49 273.6 84.49"/>
          <polygon class="cls-13" points="273.6 87.71 430.84 87.71 431.37 84.72 274.13 84.72 273.6 87.71"/>
          <polygon class="cls-13" points="273.6 90.94 430.84 90.94 431.37 87.94 274.13 87.94 273.6 90.94"/>
          <polygon class="cls-13" points="273.6 94.16 430.84 94.16 431.37 91.16 274.13 91.16 273.6 94.16"/>
          <polygon class="cls-13" points="273.6 97.38 430.84 97.38 431.37 94.38 274.13 94.38 273.6 97.38"/>
          <polygon class="cls-13" points="273.6 100.6 430.84 100.6 431.37 97.6 274.13 97.6 273.6 100.6"/>
          <polygon class="cls-13" points="273.6 103.82 430.84 103.82 431.37 100.82 274.13 100.82 273.6 103.82"/>
          <polygon class="cls-13" points="273.6 107.04 430.84 107.04 431.37 104.05 274.13 104.05 273.6 107.04"/>
          <polygon class="cls-13" points="273.6 110.27 430.84 110.27 431.37 107.27 274.13 107.27 273.6 110.27"/>
          <polygon class="cls-13" points="273.6 113.49 430.84 113.49 431.37 110.49 274.13 110.49 273.6 113.49"/>
          <polygon class="cls-13" points="273.6 116.71 430.84 116.71 431.37 113.71 274.13 113.71 273.6 116.71"/>
          <polygon class="cls-13" points="273.6 119.93 430.84 119.93 431.37 116.93 274.13 116.93 273.6 119.93"/>
          <polygon class="cls-13" points="273.6 123.15 430.84 123.15 431.37 120.15 274.13 120.15 273.6 123.15"/>
          <polygon class="cls-13" points="273.6 126.37 430.84 126.37 431.37 123.38 274.13 123.38 273.6 126.37"/>
          <polygon class="cls-13" points="273.6 129.6 430.84 129.6 431.37 126.6 274.13 126.6 273.6 129.6"/>
        </g>
      </g>
      <path class="cls-13" d="m245.71,205.38c0,8.61-11.32,15.6-25.28,15.6s-25.28-6.98-25.28-15.6h50.57Z"/>
      <path class="cls-13" d="m179.27,205.38c0,8.61-11.32,15.6-25.28,15.6s-25.28-6.98-25.28-15.6h50.57Z"/>
      <g>
        <rect class="cls-1" x="370.6" y="229.42" width="18.1" height="92.19" transform="translate(759.29 551.02) rotate(180)"/>
        <rect class="cls-1" x="295.94" y="321.6" width="89.28" height="5.84" transform="translate(681.17 649.05) rotate(180)"/>
        <rect class="cls-8" x="292.47" y="229.42" width="78.13" height="92.19"/>
        <rect class="cls-1" x="299.58" y="240.76" width="63.89" height="30.23"/>
        <rect class="cls-1" x="299.58" y="280.02" width="63.89" height="30.23"/>
        <rect class="cls-8" x="322.59" y="253.81" width="17.88" height="4.15" rx="1.66" ry="1.66" transform="translate(663.06 511.76) rotate(180)"/>
        <rect class="cls-8" x="322.59" y="293.07" width="17.88" height="4.15" rx="1.66" ry="1.66" transform="translate(663.06 590.28) rotate(180)"/>
      </g>
    </g>
  </g>
  <g id="Shadow">
    <ellipse id="_Path_" data-name="&amp;lt;Path&amp;gt;" class="cls-8" cx="250" cy="361.29" rx="193.89" ry="11.32"/>
  </g>
  <g id="Website">
    <g>
      <rect class="cls-6" x="87.57" y="121.97" width="1" height="19.2"/>
      <rect class="cls-6" x="87.57" y="148.41" width="1" height="8.82"/>
      <rect class="cls-6" x="90.72" y="74.36" width="281.15" height="184.1" rx="10.58" ry="10.58"/>
      <path class="cls-3" d="m149.82,29.36h162.94c3.89,0,7.05,3.16,7.05,7.05v259.99c0,3.89-3.16,7.05-7.05,7.05h-162.94c-3.89,0-7.05-3.16-7.05-7.05V36.41c0-3.89,3.16-7.05,7.05-7.05Z" transform="translate(64.88 397.7) rotate(-90)"/>
      <path class="cls-4" d="m199.56,226.47v28.47h63.47v-28.47c0-5.51-4.47-9.97-9.97-9.97h-43.52c-5.51,0-9.97,4.47-9.97,9.97Z"/>
      <path class="cls-4" d="m279.78,226.47v28.47h63.47v-28.47c0-5.51-4.47-9.97-9.97-9.97h-43.52c-5.51,0-9.97,4.47-9.97,9.97Z"/>
      <path class="cls-4" d="m119.33,226.47v28.47h63.47v-28.47c0-5.51-4.47-9.97-9.97-9.97h-43.52c-5.51,0-9.97,4.47-9.97,9.97Z"/>
      <path class="cls-6" d="m322.29,95.72h18.42c1.4,0,2.55-1.15,2.55-2.55h0c0-1.4-1.15-2.55-2.55-2.55h-18.42c-1.4,0-2.55,1.15-2.55,2.55h0c0,1.4,1.15,2.55,2.55,2.55Z"/>
      <circle class="cls-6" cx="259.61" cy="93.17" r="4.02"/>
      <path class="cls-6" d="m251.13,93.17c0,2.22-1.8,4.02-4.02,4.02s-4.02-1.8-4.02-4.02,1.8-4.02,4.02-4.02,4.02,1.8,4.02,4.02Z"/>
      <rect class="cls-6" x="119.33" y="89.05" width="8.23" height="8.23" rx="1.6" ry="1.6"/>
      <path class="cls-10" d="m152.44,94.44h-9.6c-.7,0-1.27-.57-1.27-1.27h0c0-.7.57-1.27,1.27-1.27h9.6c.7,0,1.27.57,1.27,1.27h0c0,.7-.57,1.27-1.27,1.27Z"/>
      <path class="cls-10" d="m171.18,94.44h-9.6c-.7,0-1.27-.57-1.27-1.27h0c0-.7.57-1.27,1.27-1.27h9.6c.7,0,1.27.57,1.27,1.27h0c0,.7-.57,1.27-1.27,1.27Z"/>
      <path class="cls-10" d="m189.93,94.44h-9.6c-.7,0-1.27-.57-1.27-1.27h0c0-.7.57-1.27,1.27-1.27h9.6c.7,0,1.27.57,1.27,1.27h0c0,.7-.57,1.27-1.27,1.27Z"/>
      <path class="cls-10" d="m208.67,94.44h-9.6c-.7,0-1.27-.57-1.27-1.27h0c0-.7.57-1.27,1.27-1.27h9.6c.7,0,1.27.57,1.27,1.27h0c0,.7-.57,1.27-1.27,1.27Z"/>
    </g>
  </g>
  <g id="Character">
    <g>
      <g>
        <rect class="cls-5" x="198.28" y="115.41" width="223.92" height="80.22" rx="10.58" ry="10.58" transform="translate(-5.13 10.68) rotate(-1.96)"/>
        <path class="cls-5" d="m285.61,161.54l-63.19,2.16c-3.39.12-6.26-2.56-6.38-5.96h0c-.12-3.39,2.56-6.26,5.96-6.38l63.19-2.16c3.39-.12,6.26,2.56,6.38,5.96h0c.12,3.39-2.56,6.26-5.96,6.38Z"/>
        <path class="cls-5" d="m264.82,181l-41.76,1.43c-3.39.12-6.26-2.56-6.38-5.96h0c-.12-3.39,2.56-6.26,5.96-6.38l41.76-1.43c3.39-.12,6.26,2.56,6.38,5.96h0c.12,3.39-2.56,6.26-5.96,6.38Z"/>
      </g>
      <g>
        <g>
          <path class="cls-15" d="m416.8,157.61l1.8,5.61,6.64-6.07s-1.61-1.13-4.28-2.52c-1.12-.58-2.49-.17-3.08.94l-1.08,2.04Z"/>
          <polygon class="cls-15" points="425.2 167.83 428.06 161.15 425.25 157.14 418.61 163.21 425.2 167.83"/>
        </g>
        <g>
          <path class="cls-15" d="m353.39,116.39c-3.41,4.59-6.94,8.9-10.71,13.15-3.77,4.23-7.7,8.34-12.1,12.21l-.24.22-.48.39c-.32.25-.68.48-1.04.68-.72.39-1.5.7-2.23.86-1.5.36-2.79.29-3.9.12-2.22-.37-3.83-1.12-5.33-1.88-2.95-1.55-5.29-3.42-7.54-5.31-4.45-3.85-8.26-8.01-11.82-12.55l4-3.8c4.16,3.4,8.53,6.78,12.88,9.65,2.17,1.43,4.42,2.72,6.48,3.56,1,.41,2.01.67,2.55.66.26,0,.38-.05.22-.06-.06,0-.19.03-.31.09-.07.02-.12.07-.18.1-.03.02-.05.03-.08.06l.13-.14c1.83-1.86,3.6-3.86,5.38-5.86,1.76-2.03,3.5-4.1,5.23-6.18,3.43-4.18,6.88-8.47,10.2-12.68l8.88,6.71Z"/>
          <polygon class="cls-15" points="298.21 111.77 290.42 113.36 294.25 120.18 301.18 114.81 298.21 111.77"/>
          <path class="cls-15" d="m302.16,121.91l-.99-7.1-6.93,5.37s1.07,6.18,5.97,6.18l1.94-4.44Z"/>
          <path class="cls-14" d="m302.68,120.49c-.41,0-.75.34-.75.75,0,.06.02.11.03.16-.1-.05-.21-.08-.32-.08-.41,0-.75.34-.75.75,0,.08.02.15.04.22-.02,0-.03,0-.04,0-.41,0-.75.34-.75.75,0,.17.07.32.16.44,0,0,0,0-.01,0-.41,0-.75.34-.75.75,0,.17.07.32.16.45-.34.07-.6.36-.6.72,0,.24.12.45.31.59-.29.11-.49.38-.49.7,0,.41.34.75.75.75s.75-.34.75-.75c0-.24-.12-.45-.31-.59.29-.11.49-.38.49-.7,0-.17-.07-.32-.16-.45.34-.07.6-.36.6-.72,0-.17-.07-.32-.16-.44,0,0,0,0,.01,0,.41,0,.75-.34.75-.75,0-.08-.02-.15-.04-.22.02,0,.03,0,.04,0,.41,0,.75-.34.75-.75,0-.06-.02-.11-.03-.16.1.05.21.08.32.08.41,0,.75-.34.75-.75s-.34-.75-.75-.75Z"/>
          <path class="cls-15" d="m394.1,108.78c2.33,4.12,4.57,8.28,6.76,12.48,2.18,4.2,4.33,8.42,6.41,12.67l.78,1.59.66,1.3.78,1.35.86,1.39c1.21,1.86,2.51,3.75,3.84,5.63l8.15,11.42-4,3.8c-3.77-3.05-7.31-6.27-10.71-9.75-1.69-1.75-3.36-3.54-4.95-5.48l-1.2-1.49-1.17-1.61c-.37-.58-.8-1.24-1.12-1.77l-.91-1.52c-2.43-4.05-4.81-8.13-7.15-12.23-2.33-4.1-4.61-8.24-6.8-12.42l9.76-5.35Z"/>
          <path class="cls-14" d="m356.27,80.36c.12.58-.08,1.13-.46,1.22-.38.09-.78-.3-.9-.88s.08-1.13.46-1.22c.38-.09.78.3.9.88Z"/>
          <path class="cls-16" d="m356.24,81.48s-.6,3.68-1.69,5.65c1.22.7,2.85-.17,2.85-.17l-1.16-5.48Z"/>
          <path class="cls-14" d="m354.74,76.84c-.11,0-.22-.05-.29-.15-.11-.16-.07-.37.09-.48.06-.04,1.4-.96,3.15-.24.18.07.26.28.19.45-.07.18-.28.26-.45.19-1.4-.58-2.48.16-2.49.16-.06.04-.13.06-.2.06Z"/>
          <path class="cls-15" d="m376.22,82.21c.65,6.76-.31,13.3,1.2,19.17,0,0-1.68,5.45-11.67,5.45-10.98,0-5.04-5.45-5.04-5.45,6.05-1.43,6.07-5.88,5.18-10.05l10.32-9.12Z"/>
          <path class="cls-14" d="m378.79,103.25c.85-1.73,1.8-3.7.03-4.32-1.95-.68-12.71-1.38-16.49-.1-3.77,1.28-2.85,4.78-2.85,4.78l19.31-.36Z"/>
          <path class="cls-6" d="m400.2,349.12c.73-.15,1.48-.47,1.99-.72.07-.03.11-.1.11-.18,0-.08-.05-.14-.12-.17-.32-.12-3.19-1.13-3.96-.5-.12.1-.25.28-.21.59.06.42.26.72.59.9.42.22,1,.21,1.6.08Zm1.4-.87c-1.28.55-2.31.72-2.82.45-.22-.12-.35-.32-.4-.62-.02-.15.03-.21.07-.24.4-.33,1.99.04,3.14.41Z"/>
          <path class="cls-6" d="m402.16,348.42s.07-.02.09-.05c.05-.05.07-.12.05-.19-.03-.09-.7-2.32-1.77-2.87-.28-.14-.56-.17-.84-.07h0c-.43.15-.49.45-.49.61.02.91,1.96,2.3,2.86,2.56.03,0,.06.01.09,0Zm-2.26-2.84c.15-.03.3,0,.46.07.69.35,1.22,1.62,1.45,2.26-.94-.44-2.22-1.53-2.23-2.07,0-.05,0-.16.23-.25h0s.06-.02.08-.02Z"/>
          <path class="cls-6" d="m348.67,354.36c.74,0,1.54-.15,2.1-.29.07-.02.13-.08.14-.15.01-.08-.02-.15-.09-.19-.29-.18-2.88-1.77-3.77-1.32-.14.07-.31.22-.33.54-.03.43.11.76.39,1,.36.31.93.41,1.55.41Zm1.55-.56c-1.36.27-2.41.22-2.85-.14-.19-.16-.28-.39-.26-.69,0-.15.07-.2.12-.22.46-.24,1.94.45,2.99,1.06Z"/>
          <path class="cls-6" d="m350.73,354.07s.07-.01.1-.03c.06-.04.09-.1.09-.17,0-.1-.2-2.41-1.13-3.18-.24-.2-.52-.28-.81-.24h0c-.45.06-.57.34-.6.5-.17.89,1.44,2.65,2.27,3.1.03.02.06.02.09.02Zm-1.62-3.25c.16,0,.3.05.44.17.6.49.85,1.84.95,2.51-.83-.63-1.85-1.96-1.75-2.48,0-.05.03-.16.28-.19h0s.06,0,.09,0Z"/>
          <polygon class="cls-15" points="359.37 353.78 352.02 353.78 351.95 336.77 359.29 336.77 359.37 353.78"/>
          <polygon class="cls-15" points="410.71 346.61 403.52 348.14 397.01 332.13 404.2 330.6 410.71 346.61"/>
          <path class="cls-14" d="m402.87,347.41l8.07-1.72c.29-.06.58.09.7.36l2.53,6.14c.26.64-.15,1.38-.83,1.51-2.83.55-4.22.68-7.77,1.43-2.18.47-6.64,1.65-9.66,2.29-2.95.63-3.93-2.28-2.74-2.82,5.32-2.4,7.12-4.53,8.61-6.51.27-.36.66-.6,1.09-.69Z"/>
          <path class="cls-14" d="m352.1,352.93h8.02c.3,0,.55.21.61.5l1.2,6.53c.12.68-.41,1.32-1.11,1.31-2.89-.05-7.07-.22-10.7-.22-4.25,0-7.94.23-12.92.23-3.02,0-3.74-3.05-2.46-3.33,5.8-1.26,10.49-1.39,15.58-4.45.55-.33,1.16-.57,1.79-.57Z"/>
          <path class="cls-6" d="m391.44,103.04c6.82,1.58,14,20.35,14,20.35l-14.2,9.48s-4.96-7.33-8.53-15.53c-3.75-8.59,1.76-15.91,8.73-14.3Z"/>
          <path class="cls-9" d="m386.05,115.01l5.87,17.41-.67.45s-2.68-3.97-5.53-9.33l.33-8.53Z"/>
          <path class="cls-6" d="m345.61,135.86c.05,8.2.55,18.4,1.77,31.06h39.3c.5-6.03-2.15-35.46,4.76-63.88,0,0-6.68-1.35-13.09-1.66-5.01-.24-12.27-.4-16.7,0-5.84.53-11.38,2.04-11.38,2.04,0,0-3.36,3.64-4.38,20.71-.2,3.37-.31,7.25-.28,11.73Z"/>
          <path class="cls-9" d="m345.61,135.86c2.38-4.34,6.69-13.05,6.09-18.01l-5.8,6.28c-.2,3.37-.31,7.25-.28,11.73Z"/>
          <path class="cls-6" d="m357.98,110.06c.62,6.97-15.25,23.84-15.25,23.84l-12.72-10.36s5.23-9.06,11.89-15.5c7.44-7.19,15.38-5.82,16.08,2.03Z"/>
          <g class="cls-9">
            <polygon points="351.95 336.78 351.98 345.55 359.33 345.55 359.3 336.78 351.95 336.78"/>
            <polygon points="404.2 330.6 397.01 332.13 400.37 340.38 407.56 338.85 404.2 330.6"/>
          </g>
          <path class="cls-15" d="m375.18,74.29c1.08,7.23,2.07,11.4-.72,15.96-4.19,6.85-13.6,5.79-16.79-.9-2.87-6.02-4.15-16.84,2.16-21.42,6.21-4.51,14.27-.88,15.35,6.36Z"/>
          <path class="cls-14" d="m362,80.4c-3.62.61-5.67-3.56-2.88-7.13-5.29.24-7.54-2.47-5.18-7.32,2.03-4.16,8.39-2.13,8.39-2.13,0,0,5.32-7.15,11.61-3.17,6.74,4.27,3.17,8.22,3.17,8.22,0,0,9.69,1.34,7.19,8.29-1.35,3.75-4.97,4.04-4.97,4.04,0,0,2.48,7.46-4.87,9.04s-14.79-4.67-12.46-9.85Z"/>
          <path class="cls-15" d="m364.23,78.54c.16,1.92-.44,3.86-1.31,5.22-1.31,2.04-3.1,1.25-3.69-.84-.53-1.88-.49-5.21,1.29-6.53,1.75-1.3,3.53-.04,3.72,2.15Z"/>
          <path class="cls-14" d="m361.32,166.92s6.17,56.14,9.93,77.18c4.12,23.03,25.47,95.33,25.47,95.33l13.16-2.8s-14.7-67.64-16.68-90.44c-2.15-24.75-6.54-79.26-6.54-79.26h-25.35Z"/>
          <path class="cls-6" d="m393.79,334.98c-.06.01,2.24,4.81,2.24,4.81l14.81-3.15-1.06-4.49-15.99,2.84Z"/>
          <path class="cls-9" d="m365.82,186.92c9.57,1.89,7.16,37.84,5.28,56.33-2.28-13.07-5.37-38.22-7.47-56.07.65-.32,1.38-.42,2.18-.26Z"/>
          <path class="cls-14" d="m347.39,166.92s-3.13,54.93-3.2,77.33c-.07,23.3,5.12,99.6,5.12,99.6h12.44s3.35-74.94,4.79-97.82c1.57-24.95,6.67-79.11,6.67-79.11h-25.83Z"/>
          <g>
            <path class="cls-6" d="m345.61,161.71c-.23,2.24.89,5.2.89,5.2,0,0-.56,2.96-.44,4.55,4.03,1.42,41.78,3.17,41.69,0-.08-3.17,0-4.55,0-4.55,0,0,1.03-4.45,0-5.2-1.03-.75-41.86-2.67-42.14,0Z"/>
            <path class="cls-12" d="m345.61,161.71c-.23,2.24.89,5.2.89,5.2,0,0-.56,2.96-.44,4.55,4.03,1.42,41.78,3.17,41.69,0-.08-3.17,0-4.55,0-4.55,0,0,1.03-4.45,0-5.2-1.03-.75-41.86-2.67-42.14,0Z"/>
          </g>
          <path class="cls-6" d="m347.11,338.89c-.06,0,.5,5.17.5,5.17h15.14l.59-4.61-16.23-.56Z"/>
        </g>
      </g>
    </g>
  </g>
</svg>