<svg width="1920" height="1338" viewBox="0 0 1920 1338" fill="none" xmlns="http://www.w3.org/2000/svg">
<mask id="mask0_1_14" style="mask-type:luminance" maskUnits="userSpaceOnUse" x="-7" y="-1" width="1931" height="1350">
<path d="M1923.65 -0.00390625H-6.26697V1348.64H1923.65V-0.00390625Z" fill="white"/>
</mask>
<g mask="url(#mask0_1_14)">
<path d="M-26.7889 402.962C-26.7889 402.962 41.0111 1581.17 712.705 1378.6C1083.66 1266.72 1149.6 1338.36 1453.41 1099.67C1618.57 969.909 1720.11 987.741 1789.74 962.851C2126.59 842.46 2149.41 1100.39 2149.41 1100.39" stroke="#A8A8A8" stroke-width="0.502" stroke-miterlimit="10"/>
<path d="M-37.522 403.443C-37.522 403.443 34.637 1564.61 697.811 1366.85C1068.8 1257.01 1124.65 1324.09 1428.91 1104.81C1596.74 983.848 1699.09 1006.74 1775.26 975.244C2112.58 835.765 2138.64 1107.14 2149.31 1107.5" stroke="#A8A8A8" stroke-width="0.502" stroke-miterlimit="10"/>
<path d="M-48.244 403.924C-48.244 403.924 28.274 1548.05 682.928 1355.1C1053.95 1247.29 1100.14 1309.94 1404.43 1109.94C1575.18 997.708 1678.03 1025.96 1760.8 987.64C2098.77 831.151 2127.9 1113.9 2149.22 1114.61" stroke="#A8A8A8" stroke-width="0.502" stroke-miterlimit="10"/>
<path d="M-58.969 404.405C-58.969 404.405 21.554 1529.61 668.04 1343.35C1038.89 1236.5 1076.07 1295.98 1379.93 1115.07C1553.88 1011.52 1656.92 1045.39 1746.32 1000.03C2085.16 828.111 2117.13 1120.65 2149.12 1121.72" stroke="#A8A8A8" stroke-width="0.502" stroke-miterlimit="10"/>
<path d="M-69.6951 404.89C-69.6951 404.89 15.0909 1512.52 653.153 1331.6C1023.98 1226.46 1052.43 1282.29 1355.44 1120.21C1532.84 1025.33 1635.82 1065.01 1731.84 1012.43C2071.79 826.293 2106.38 1127.41 2149.02 1128.83" stroke="#A8A8A8" stroke-width="0.502" stroke-miterlimit="10"/>
<path d="M-80.4199 405.369C-80.4199 405.369 8.6441 1495.46 638.266 1319.85C1009.08 1216.43 1029.23 1268.93 1330.95 1125.34C1512.08 1039.15 1614.74 1084.79 1717.37 1024.82C2058.63 825.394 2095.62 1134.16 2148.93 1135.94" stroke="#A8A8A8" stroke-width="0.502" stroke-miterlimit="10"/>
<path d="M-91.146 405.85C-91.146 405.85 2.19794 1478.44 623.379 1308.1C994.179 1206.42 1006.45 1255.97 1306.46 1130.48C1491.57 1053.05 1593.7 1104.74 1702.89 1037.22C2045.68 825.234 2084.86 1140.91 2148.83 1143.05" stroke="#A8A8A8" stroke-width="0.502" stroke-miterlimit="10"/>
<path d="M-101.872 406.331C-101.872 406.331 -4.23297 1461.47 608.49 1296.35C979.284 1196.43 984.051 1243.47 1281.97 1135.61C1471.31 1067.07 1572.7 1124.84 1688.42 1049.61C2032.92 825.65 2074.1 1147.67 2148.73 1150.16" stroke="#A8A8A8" stroke-width="0.502" stroke-miterlimit="10"/>
<path d="M-112.597 406.812C-112.597 406.812 -10.6528 1444.55 593.603 1284.6C964.393 1186.46 962.01 1231.47 1257.48 1140.75C1451.28 1081.25 1551.75 1145.07 1673.94 1062.01C2020.33 826.525 2063.34 1154.42 2148.64 1157.27" stroke="#A8A8A8" stroke-width="0.502" stroke-miterlimit="10"/>
<path d="M-123.322 407.291C-123.322 407.291 -17.062 1427.66 578.718 1272.85C949.511 1176.51 940.282 1220 1232.99 1145.88C1431.45 1095.62 1530.85 1165.43 1659.46 1074.4C2007.9 827.769 2052.58 1161.17 2148.54 1164.38" stroke="#A8A8A8" stroke-width="0.502" stroke-miterlimit="10"/>
<path d="M-134.049 407.774C-134.049 407.774 -23.465 1410.83 563.828 1261.11C934.628 1166.58 915.816 1125.01 1208.5 1151.02C1413.92 1169.27 1510.02 1185.91 1644.99 1086.79C1995.62 829.315 2041.83 1167.92 2148.44 1171.49" stroke="#A8A8A8" stroke-width="0.502" stroke-miterlimit="10"/>
<path d="M-144.775 408.255C-144.775 408.255 -29.8568 1394.03 548.941 1249.36C919.754 1156.67 897.701 1112.14 1184.01 1156.16C1392.22 1188.16 1489.24 1206.5 1630.51 1099.19C1983.47 831.105 2031.07 1174.68 2148.35 1178.6" stroke="#A8A8A8" stroke-width="0.502" stroke-miterlimit="10"/>
<path d="M-155.5 408.736C-155.5 408.736 -36.238 1377.28 534.054 1237.61C904.884 1146.78 879.761 1101.07 1159.52 1161.29C1370.46 1206.69 1468.52 1227.19 1616.04 1111.59C1971.44 833.085 2020.31 1181.43 2148.25 1185.71" stroke="#A8A8A8" stroke-width="0.502" stroke-miterlimit="10"/>
<path d="M-166.225 409.217C-166.225 409.217 -42.611 1360.58 519.168 1225.86C890.021 1136.92 861.82 1091.69 1135.03 1166.42C1348.69 1224.86 1447.85 1247.97 1601.56 1123.98C1959.52 835.235 2009.55 1188.18 2148.16 1192.82" stroke="#A8A8A8" stroke-width="0.502" stroke-miterlimit="10"/>
<path d="M-176.951 409.698C-176.951 409.698 -48.9778 1343.92 504.279 1214.11C875.16 1127.09 843.72 1083.91 1110.54 1171.55C1326.96 1242.65 1427.25 1268.84 1587.09 1136.37C1947.7 837.517 1998.8 1194.94 2148.06 1199.93" stroke="#A8A8A8" stroke-width="0.502" stroke-miterlimit="10"/>
<path d="M-187.677 410.179C-187.677 410.179 -55.337 1327.31 489.392 1202.36C860.305 1117.28 825.331 1077.56 1086.05 1176.69C1305.3 1260.05 1406.7 1289.79 1572.61 1148.77C1935.98 839.91 1988.04 1201.69 2147.96 1207.04" stroke="#A8A8A8" stroke-width="0.502" stroke-miterlimit="10"/>
<path d="M-198.402 410.66C-198.402 410.66 -61.685 1310.74 474.506 1190.61C845.455 1107.5 806.551 1072.52 1061.56 1181.83C1283.76 1277.07 1386.2 1310.82 1558.14 1161.16C1924.35 842.397 1977.28 1208.45 2147.87 1214.15" stroke="#A8A8A8" stroke-width="0.502" stroke-miterlimit="10"/>
<path d="M-209.128 411.141C-209.128 411.141 -68.0279 1294.22 459.617 1178.86C830.61 1097.75 771.605 1147.81 1037.07 1186.96C1276.51 1222.27 1365.77 1331.92 1543.67 1173.56C1912.8 844.958 1966.52 1215.2 2147.77 1221.26" stroke="#A8A8A8" stroke-width="0.502" stroke-miterlimit="10"/>
<path d="M-219.853 411.622C-219.853 411.622 -74.3651 1277.74 444.731 1167.11C815.769 1088.03 750.441 1140.86 1012.57 1192.09C1257.05 1239.88 1345.38 1353.08 1529.19 1185.95C1901.32 847.572 1955.76 1221.95 2147.67 1228.36" stroke="#A8A8A8" stroke-width="0.502" stroke-miterlimit="10"/>
<path d="M-230.579 412.103C-230.579 412.103 -80.696 1261.31 429.842 1155.36C800.932 1078.35 729.126 1134.24 988.082 1197.23C1237.45 1257.88 1325.04 1374.31 1514.71 1198.34C1889.91 850.241 1945 1228.7 2147.58 1235.47" stroke="#A8A8A8" stroke-width="0.502" stroke-miterlimit="10"/>
<path d="M-241.306 412.584C-241.306 412.584 -87.0199 1244.93 414.955 1143.61C786.098 1068.7 707.638 1127.9 963.592 1202.36C1217.69 1276.28 1304.76 1395.59 1500.23 1210.74C1878.57 852.954 1934.24 1235.46 2147.48 1242.58" stroke="#A8A8A8" stroke-width="0.502" stroke-miterlimit="10"/>
<path d="M-252.031 413.066C-252.031 413.066 -93.3389 1228.59 400.069 1131.87C771.269 1059.09 685.957 1121.8 939.103 1207.5C1197.73 1295.06 1284.52 1416.94 1485.76 1223.13C1867.29 855.707 1923.49 1242.21 2147.39 1249.7" stroke="#A8A8A8" stroke-width="0.502" stroke-miterlimit="10"/>
<path d="M-262.756 413.548C-262.756 413.548 -99.656 1212.3 385.181 1120.11C756.449 1049.51 664.062 1115.88 914.611 1212.63C1177.55 1314.17 1264.33 1438.33 1471.28 1235.53C1856.06 858.482 1912.73 1248.97 2147.28 1256.81" stroke="#A8A8A8" stroke-width="0.502" stroke-miterlimit="10"/>
<path d="M-273.482 414.032C-273.482 414.032 -105.96 1196.06 370.294 1108.36C741.629 1039.99 641.948 1110.11 890.12 1217.76C1157.15 1333.6 1244.18 1459.76 1456.81 1247.92C1844.9 861.273 1901.97 1255.72 2147.19 1263.91" stroke="#A8A8A8" stroke-width="0.502" stroke-miterlimit="10"/>
<path d="M-284.208 414.51C-284.208 414.51 -112.271 1179.87 355.405 1096.61C726.813 1030.5 619.605 1104.45 865.629 1222.9C1136.5 1353.31 1224.07 1481.24 1442.33 1260.31C1833.77 864.085 1891.21 1262.47 2147.09 1271.02" stroke="#A8A8A8" stroke-width="0.502" stroke-miterlimit="10"/>
<path d="M-294.933 414.991C-294.933 414.991 -118.575 1163.72 340.519 1084.86C712.001 1021.06 597.029 1098.86 841.139 1228.03C1115.61 1373.27 1204.01 1502.77 1427.86 1272.71C1822.7 866.915 1880.46 1269.22 2147 1278.13" stroke="#A8A8A8" stroke-width="0.502" stroke-miterlimit="10"/>
<path d="M-305.661 415.472C-305.661 415.472 -124.876 1147.61 325.631 1073.11C697.191 1011.67 574.221 1093.31 816.647 1233.17C1094.46 1393.44 1183.98 1524.33 1413.38 1285.1C1811.67 869.753 1869.7 1275.98 2146.9 1285.24" stroke="#A8A8A8" stroke-width="0.502" stroke-miterlimit="10"/>
<path d="M-316.384 415.953C-316.384 415.953 -131.177 1131.56 310.745 1061.36C682.385 1002.33 551.188 1087.77 792.158 1238.3C1073.07 1413.78 1163.99 1545.93 1398.91 1297.5C1800.69 872.596 1858.94 1282.73 2146.81 1292.35" stroke="#A8A8A8" stroke-width="0.502" stroke-miterlimit="10"/>
<path d="M-327.11 416.432C-327.11 416.432 -137.478 1115.55 295.856 1049.62C667.581 993.051 527.933 1082.22 767.666 1243.44C1051.43 1434.26 1144.04 1567.56 1384.43 1309.89C1789.73 875.45 1848.18 1289.48 2146.71 1299.46" stroke="#A8A8A8" stroke-width="0.502" stroke-miterlimit="10"/>
<path d="M-337.836 416.915C-337.836 416.915 -143.779 1099.59 280.969 1037.86C652.779 983.828 504.469 1076.63 743.175 1248.57C1029.55 1454.85 1124.13 1589.22 1369.96 1322.29C1778.83 878.303 1837.42 1296.24 2146.61 1306.57" stroke="#A8A8A8" stroke-width="0.502" stroke-miterlimit="10"/>
<path d="M-348.562 417.396C-348.562 417.396 -150.019 1084.38 266.081 1026.12C638.035 975.293 480.791 1070.98 718.681 1253.71C1007.45 1475.51 1104.24 1610.92 1355.48 1334.68C1767.95 881.157 1826.67 1302.99 2146.52 1313.68" stroke="#A8A8A8" stroke-width="0.502" stroke-miterlimit="10"/>
<path d="M-359.287 417.877C-359.287 417.877 -156.387 1067.82 251.195 1014.37C623.182 965.578 456.928 1065.26 694.195 1258.84C985.142 1496.22 1084.4 1632.64 1341.01 1347.07C1757.11 884.013 1815.91 1309.74 2146.42 1320.79" stroke="#A8A8A8" stroke-width="0.502" stroke-miterlimit="10"/>
<path d="M-369.114 419.96C-345.553 422.04 -162.541 1088.81 248.754 1027.7C620.11 974.155 462.865 1076.33 703.435 1265.27C992.571 1492.35 1092.21 1624.85 1348.72 1344.82C1757.91 898.115 1817.35 1315.37 2146.53 1318.96" stroke="#A8A8A8" stroke-width="0.502" stroke-miterlimit="10"/>
<path d="M-378.941 422.042C-331.82 426.197 -168.878 1108.07 246.312 1041.02C616.876 981.185 468.701 1087.42 712.674 1271.7C999.856 1488.61 1099.96 1617.07 1356.44 1342.55C1758.59 912.121 1818.8 1320.99 2146.63 1317.12" stroke="#A8A8A8" stroke-width="0.502" stroke-miterlimit="10"/>
<path d="M-388.768 424.124C-318.086 430.364 -175.141 1128.28 243.871 1054.35C613.715 989.097 474.439 1098.54 721.914 1278.13C1007 1485.01 1107.67 1609.29 1364.16 1340.29C1759.15 926.03 1820.24 1326.61 2146.74 1315.28" stroke="#A8A8A8" stroke-width="0.502" stroke-miterlimit="10"/>
<path d="M-398.595 426.207C-304.348 434.527 -181.409 1148.56 241.43 1067.68C610.549 997.083 480.077 1109.68 731.154 1284.56C1014.01 1481.57 1115.33 1601.52 1371.87 1338.04C1759.59 939.839 1821.68 1332.24 2146.85 1313.45" stroke="#A8A8A8" stroke-width="0.502" stroke-miterlimit="10"/>
<path d="M-408.421 428.29C-290.621 438.69 -187.686 1168.9 238.99 1081.01C607.383 1005.12 485.62 1120.87 740.39 1290.98C1020.88 1478.27 1122.92 1593.74 1379.59 1335.78C1759.9 953.527 1823.13 1337.86 2146.95 1311.62" stroke="#A8A8A8" stroke-width="0.502" stroke-miterlimit="10"/>
<path d="M-418.247 430.369C-276.883 442.848 -193.962 1189.29 236.553 1094.33C604.221 1013.23 491.069 1132.11 749.638 1297.41C1027.64 1475.13 1130.48 1585.96 1387.31 1333.51C1760.1 967.096 1824.58 1343.48 2147.07 1309.77" stroke="#A8A8A8" stroke-width="0.502" stroke-miterlimit="10"/>
<path d="M-428.074 432.454C-263.149 447.012 -200.241 1209.76 234.107 1107.66C601.05 1021.41 496.414 1143.42 758.874 1303.84C1034.25 1472.16 1137.95 1578.17 1395.02 1331.25C1760.15 980.554 1826.01 1349.1 2147.17 1307.94" stroke="#A8A8A8" stroke-width="0.502" stroke-miterlimit="10"/>
<path d="M-437.901 434.537C-249.415 451.175 -206.52 1230.29 231.668 1120.99C597.888 1029.64 501.668 1154.81 768.115 1310.27C1040.76 1469.35 1145.37 1570.37 1402.74 1329C1760.07 993.868 1827.46 1354.73 2147.27 1306.11" stroke="#A8A8A8" stroke-width="0.502" stroke-miterlimit="10"/>
<path d="M-447.728 436.62C-235.681 455.338 -212.794 1250.88 229.226 1134.32C594.726 1037.94 506.838 1166.28 777.354 1316.7C1047.15 1466.72 1152.73 1562.55 1410.46 1326.74C1759.86 1007.05 1828.9 1360.35 2147.38 1304.27" stroke="#A8A8A8" stroke-width="0.502" stroke-miterlimit="10"/>
<path d="M-457.555 438.703C-221.947 459.503 -219.066 1271.53 226.785 1147.65C591.572 1046.29 511.918 1177.86 786.593 1323.13C1053.45 1464.26 1160.01 1554.7 1418.18 1324.48C1759.52 1020.08 1830.35 1365.98 2147.49 1302.44" stroke="#A8A8A8" stroke-width="0.502" stroke-miterlimit="10"/>
<path d="M-467.382 440.784C-208.214 463.661 -225.331 1292.24 224.343 1160.98C588.423 1054.7 516.911 1189.56 795.832 1329.56C1059.65 1461.97 1167.23 1546.81 1425.89 1322.22C1759.04 1032.95 1831.79 1371.6 2147.59 1300.6" stroke="#A8A8A8" stroke-width="0.502" stroke-miterlimit="10"/>
<path d="M-477.209 442.867C-194.479 467.825 -231.587 1313.02 221.903 1174.3C585.281 1063.15 521.825 1201.38 805.073 1335.99C1065.76 1459.87 1174.37 1538.88 1433.61 1319.96C1758.42 1045.67 1833.23 1377.22 2147.7 1298.77" stroke="#A8A8A8" stroke-width="0.502" stroke-miterlimit="10"/>
<path d="M-487.036 444.95C-180.745 471.987 -237.836 1333.85 219.464 1187.63C582.15 1071.66 526.664 1213.35 814.315 1342.41C1071.79 1457.94 1181.43 1530.89 1441.33 1317.7C1757.67 1058.21 1834.68 1382.85 2147.81 1296.93" stroke="#A8A8A8" stroke-width="0.502" stroke-miterlimit="10"/>
<path d="M-496.863 447.031C-167.011 476.15 -244.07 1354.75 217.02 1200.96C579.02 1080.22 531.429 1225.48 823.552 1348.84C1077.74 1456.19 1188.41 1522.84 1449.04 1315.44C1756.77 1070.57 1836.12 1388.47 2147.91 1295.1" stroke="#A8A8A8" stroke-width="0.502" stroke-miterlimit="10"/>
<path d="M-506.69 449.114C-153.278 480.314 -250.29 1375.7 214.579 1214.29C575.909 1088.83 536.128 1237.78 832.793 1355.27C1083.63 1454.62 1195.31 1514.7 1456.76 1313.18C1755.74 1082.73 1837.57 1394.09 2148.02 1293.26" stroke="#A8A8A8" stroke-width="0.502" stroke-miterlimit="10"/>
<path d="M-516.516 451.196C-139.543 484.473 -256.501 1396.71 212.14 1227.61C572.806 1097.48 540.767 1250.27 842.033 1361.7C1089.47 1453.22 1202.12 1506.46 1464.48 1310.92C1754.58 1094.7 1839.01 1399.72 2148.13 1291.43" stroke="#A8A8A8" stroke-width="0.502" stroke-miterlimit="10"/>
<path d="M-526.343 453.28C-125.809 488.637 -262.694 1417.79 209.698 1240.95C569.714 1106.17 545.352 1262.97 851.272 1368.13C1095.26 1452 1208.84 1498.11 1472.2 1308.66C1753.28 1106.46 1840.45 1405.34 2148.23 1289.6" stroke="#A8A8A8" stroke-width="0.502" stroke-miterlimit="10"/>
<path d="M-536.166 455.361C-112.076 492.796 -268.866 1438.92 207.257 1254.27C566.635 1114.9 549.89 1275.88 860.513 1374.56C1101.01 1450.96 1215.46 1489.61 1479.91 1306.4C1751.86 1118.01 1841.9 1410.96 2148.34 1287.76" stroke="#A8A8A8" stroke-width="0.502" stroke-miterlimit="10"/>
<path d="M-545.997 457.444C-98.3409 496.959 -275.028 1460.1 204.815 1267.6C563.568 1123.68 554.388 1289.04 869.752 1380.99C1106.74 1450.09 1221.97 1480.94 1487.63 1304.14C1750.3 1129.32 1843.34 1416.58 2148.45 1285.92" stroke="#A8A8A8" stroke-width="0.502" stroke-miterlimit="10"/>
<path d="M-555.826 459.527C-84.6089 501.127 -281.17 1481.34 202.374 1280.93C560.513 1132.49 558.855 1302.45 878.991 1387.41C1112.44 1449.37 1228.39 1472.07 1495.35 1301.88C1748.64 1140.4 1844.79 1422.21 2148.55 1284.09" stroke="#A8A8A8" stroke-width="0.502" stroke-miterlimit="10"/>
<path d="M-565.651 461.61C-70.8739 505.285 -287.287 1502.64 199.934 1294.26C557.476 1141.34 563.303 1316.14 888.234 1393.85C1118.15 1448.83 1234.7 1462.97 1503.06 1299.63C1746.86 1151.24 1846.23 1427.84 2148.67 1282.26" stroke="#A8A8A8" stroke-width="0.502" stroke-miterlimit="10"/>
<path d="M-575.478 463.691C-57.14 509.446 -293.385 1523.99 197.492 1307.58C554.45 1150.22 567.739 1330.11 897.471 1400.27C1123.85 1448.44 1240.89 1453.58 1510.78 1297.36C1744.97 1161.81 1847.67 1433.45 2148.77 1280.42" stroke="#A8A8A8" stroke-width="0.502" stroke-miterlimit="10"/>
<path d="M-585.305 465.774C-43.4049 513.609 -299.46 1545.39 195.051 1320.91C551.441 1159.13 572.176 1344.38 906.711 1406.7C1129.57 1448.22 1246.97 1443.85 1518.5 1295.1C1743 1172.11 1849.12 1439.08 2148.87 1278.58" stroke="#A8A8A8" stroke-width="0.502" stroke-miterlimit="10"/>
<path d="M-595.132 467.857C-29.6719 517.772 -305.512 1566.85 192.609 1334.24C548.446 1168.08 576.625 1358.98 915.95 1413.13C1135.3 1448.13 1252.93 1433.72 1526.21 1292.84C1740.96 1182.14 1850.56 1444.7 2148.98 1276.74" stroke="#A8A8A8" stroke-width="0.502" stroke-miterlimit="10"/>
<path d="M-604.958 469.94C-15.938 521.935 -311.54 1588.35 190.17 1347.57C545.47 1177.05 581.1 1373.91 925.191 1419.56C1141.08 1448.2 1258.78 1423.11 1533.93 1290.58C1738.86 1191.88 1852 1450.33 2149.09 1274.91" stroke="#A8A8A8" stroke-width="0.502" stroke-miterlimit="10"/>
<path d="M-614.785 472.024C-2.2049 526.097 -317.544 1609.91 187.729 1360.9C542.505 1186.05 585.614 1389.2 934.429 1425.99C1146.89 1448.4 1264.52 1411.92 1541.65 1288.32C1736.72 1201.32 1853.45 1455.95 2149.19 1273.08" stroke="#A8A8A8" stroke-width="0.502" stroke-miterlimit="10"/>
<path d="M-624.612 474.104C11.5311 530.258 -323.522 1631.51 185.288 1374.22C539.558 1195.08 590.182 1404.84 943.672 1432.42C1152.76 1448.73 1270.15 1400.04 1549.37 1286.06C1734.59 1210.46 1854.9 1461.57 2149.3 1271.24" stroke="#A8A8A8" stroke-width="0.502" stroke-miterlimit="10"/>
<path d="M-634.439 476.187C25.261 534.421 -329.475 1653.17 182.847 1387.55C536.627 1204.14 594.818 1420.86 952.91 1438.85C1158.7 1449.18 1275.69 1387.33 1557.08 1283.8C1732.48 1219.27 1856.34 1467.2 2149.41 1269.4" stroke="#A8A8A8" stroke-width="0.502" stroke-miterlimit="10"/>
<path d="M-644.266 478.27C38.998 538.584 -335.401 1674.86 180.405 1400.88C533.712 1213.21 599.541 1437.26 962.15 1445.28C1164.71 1449.75 1281.17 1373.63 1564.8 1281.55C1730.45 1227.76 1857.78 1472.82 2149.51 1267.57" stroke="#A8A8A8" stroke-width="0.502" stroke-miterlimit="10"/>
<path d="M-654.093 480.352C52.732 542.745 -341.017 1697.41 177.964 1414.21C531.006 1222.86 604.364 1454.05 971.39 1451.7C1170.8 1450.43 1286.63 1358.74 1572.52 1279.29C1728.56 1235.92 1859.23 1478.44 2149.62 1265.74" stroke="#A8A8A8" stroke-width="0.502" stroke-miterlimit="10"/>
<path d="M-663.92 482.435C66.4651 546.907 -347.171 1718.4 175.522 1427.54C527.933 1231.44 609.314 1471.24 980.629 1458.14C1176.99 1451.2 1292.13 1342.42 1580.23 1277.03C1726.87 1243.75 1860.67 1484.07 2149.72 1263.91" stroke="#A8A8A8" stroke-width="0.502" stroke-miterlimit="10"/>
<path d="M-647.538 473.68C59.287 536.075 -344.104 1726.24 173.639 1425.54C531.402 1217.76 609.45 1467.57 980.433 1452.29C1179.23 1443.63 1290.83 1342.71 1578.42 1269.23C1728.24 1230.96 1860.53 1463.16 2145.84 1252.71" stroke="#A8A8A8" stroke-width="0.502" stroke-miterlimit="10"/>
<path d="M-631.158 464.926C52.106 525.24 -341.093 1733.74 171.755 1423.55C534.877 1203.92 609.583 1463.9 980.236 1446.45C1181.48 1436.05 1289.54 1342.76 1576.6 1261.44C1729.63 1218.09 1860.4 1442.26 2141.95 1241.52" stroke="#A8A8A8" stroke-width="0.502" stroke-miterlimit="10"/>
<path d="M-614.777 456.174C44.923 514.408 -338.146 1740.91 169.87 1421.56C538.351 1189.92 609.852 1463.86 980.038 1440.61C1183.7 1427.82 1288.26 1342.59 1574.78 1253.65C1731.03 1205.15 1860.25 1421.36 2138.06 1230.33" stroke="#A8A8A8" stroke-width="0.502" stroke-miterlimit="10"/>
<path d="M-598.396 447.419C37.747 503.573 -335.268 1747.76 167.986 1419.56C541.814 1175.77 609.911 1458.09 979.84 1434.76C1186.01 1421.76 1286.98 1342.22 1572.96 1245.85C1732.45 1192.11 1860.12 1400.45 2134.17 1219.13" stroke="#A8A8A8" stroke-width="0.502" stroke-miterlimit="10"/>
<path d="M-582.015 438.665C30.5671 492.74 -332.46 1754.33 166.103 1417.57C545.259 1161.47 610.065 1454.71 979.646 1428.92C1188.26 1414.37 1285.7 1341.65 1571.15 1238.06C1733.88 1179.01 1859.98 1379.56 2130.28 1207.94" stroke="#A8A8A8" stroke-width="0.502" stroke-miterlimit="10"/>
<path d="M-565.634 429.915C23.386 481.91 -329.727 1760.63 164.218 1415.58C548.675 1147.01 610.218 1451.29 979.448 1423.08C1190.52 1406.96 1284.4 1340.91 1569.33 1230.28C1735.3 1165.83 1859.84 1358.66 2126.39 1196.75" stroke="#A8A8A8" stroke-width="0.502" stroke-miterlimit="10"/>
<path d="M-549.254 421.158C16.2051 471.073 -327.07 1766.67 162.333 1413.58C552.059 1132.4 610.37 1447.84 979.251 1417.24C1192.78 1399.53 1283.09 1340 1567.51 1222.48C1736.73 1152.56 1859.7 1337.75 2122.5 1185.55" stroke="#A8A8A8" stroke-width="0.502" stroke-miterlimit="10"/>
<path d="M-532.872 412.404C9.02808 460.239 -324.489 1772.49 160.449 1411.59C555.403 1117.65 610.525 1444.35 979.054 1411.4C1195.03 1392.08 1281.75 1338.94 1565.69 1214.69C1738.15 1139.22 1859.56 1316.85 2118.61 1174.36" stroke="#A8A8A8" stroke-width="0.502" stroke-miterlimit="10"/>
<path d="M-516.492 403.65C1.84705 449.405 -321.992 1778.09 158.565 1409.59C558.7 1102.76 610.677 1440.84 978.857 1405.56C1197.29 1384.62 1280.4 1337.74 1563.87 1206.9C1739.55 1125.81 1859.43 1295.95 2114.72 1163.17" stroke="#A8A8A8" stroke-width="0.502" stroke-miterlimit="10"/>
<path d="M-500.111 394.896C-5.33395 438.571 -319.565 1783.5 156.681 1407.6C561.945 1087.72 610.83 1437.3 978.66 1399.71C1199.55 1377.14 1279.01 1336.41 1562.06 1199.1C1740.94 1112.32 1859.29 1275.05 2110.84 1151.97" stroke="#A8A8A8" stroke-width="0.502" stroke-miterlimit="10"/>
<path d="M-483.73 386.142C-12.513 427.742 -317.222 1788.72 154.796 1405.6C565.131 1072.55 610.981 1433.72 978.463 1393.87C1201.81 1369.65 1277.59 1334.96 1560.24 1191.31C1742.31 1098.77 1859.15 1254.14 2106.94 1140.78" stroke="#A8A8A8" stroke-width="0.502" stroke-miterlimit="10"/>
<path d="M-467.349 377.389C-19.693 416.904 -314.957 1793.77 152.912 1403.61C568.258 1057.25 611.132 1430.12 978.266 1388.03C1204.07 1362.14 1276.15 1333.4 1558.42 1183.52C1743.67 1085.15 1859.01 1233.24 2103.05 1129.59" stroke="#A8A8A8" stroke-width="0.502" stroke-miterlimit="10"/>
<path d="M-450.968 368.631C-26.874 406.066 -312.768 1798.67 151.032 1401.61C571.32 1041.81 611.284 1426.48 978.072 1382.18C1206.32 1354.62 1274.66 1331.74 1556.61 1175.72C1745.01 1071.47 1858.88 1212.34 2099.17 1118.39" stroke="#A8A8A8" stroke-width="0.502" stroke-miterlimit="10"/>
<path d="M-434.587 359.881C-34.0529 395.238 -310.666 1803.43 149.144 1399.62C574.306 1026.24 611.428 1422.83 977.871 1376.34C1208.57 1347.08 1273.14 1330 1554.78 1167.93C1746.31 1057.72 1858.74 1191.43 2095.27 1107.2" stroke="#A8A8A8" stroke-width="0.502" stroke-miterlimit="10"/>
<path d="M-418.206 351.126C-41.2331 384.406 -308.635 1808.05 147.26 1397.63C577.22 1010.55 611.573 1419.15 977.677 1370.5C1210.83 1339.52 1271.59 1328.17 1552.97 1160.14C1747.59 1043.92 1858.6 1170.54 2091.39 1096.01" stroke="#A8A8A8" stroke-width="0.502" stroke-miterlimit="10"/>
<path d="M-401.825 342.374C-48.413 373.574 -306.684 1812.55 145.375 1395.63C580.057 994.734 611.715 1415.44 977.475 1364.66C1213.08 1331.95 1270 1326.26 1551.15 1152.35C1748.85 1030.05 1858.46 1149.64 2087.49 1084.82" stroke="#A8A8A8" stroke-width="0.502" stroke-miterlimit="10"/>
<path d="M-385.445 333.62C-55.593 362.737 -304.808 1816.95 143.491 1393.64C582.812 978.806 611.854 1411.71 977.281 1358.82C1215.33 1324.36 1268.38 1324.29 1549.33 1144.56C1750.08 1016.14 1858.32 1128.73 2083.6 1073.62" stroke="#A8A8A8" stroke-width="0.502" stroke-miterlimit="10"/>
<path d="M-369.064 324.87C-62.773 351.907 -303.007 1821.25 141.606 1391.65C585.484 962.762 611.991 1407.96 977.084 1352.98C1217.57 1316.76 1266.72 1322.26 1547.51 1136.77C1751.28 1002.17 1858.18 1107.83 2079.71 1062.43" stroke="#A8A8A8" stroke-width="0.502" stroke-miterlimit="10"/>
<path d="M-352.683 316.111C-69.953 341.068 -301.283 1825.44 139.717 1389.65C588.067 946.596 612.117 1404.18 976.882 1347.14C1219.81 1309.14 1265.01 1320.16 1545.69 1128.97C1752.44 988.139 1858.04 1086.93 2075.82 1051.24" stroke="#A8A8A8" stroke-width="0.502" stroke-miterlimit="10"/>
<path d="M-336.299 307.359C-77.1289 330.236 -299.622 1829.56 137.84 1387.66C590.574 930.327 612.26 1400.39 976.693 1341.3C1222.07 1301.51 1263.29 1318.02 1543.88 1121.18C1753.59 974.07 1857.91 1066.03 2071.94 1040.05" stroke="#A8A8A8" stroke-width="0.502" stroke-miterlimit="10"/>
<path d="M-319.921 298.604C-84.3139 319.404 -298.043 1833.6 135.954 1385.66C592.979 913.948 612.384 1396.57 976.492 1335.45C1224.31 1293.85 1261.52 1315.83 1542.06 1113.39C1754.69 959.949 1857.77 1045.13 2068.05 1028.85" stroke="#A8A8A8" stroke-width="0.502" stroke-miterlimit="10"/>
<path d="M-303.54 289.85C-91.4929 308.568 -296.53 1837.58 134.07 1383.67C595.297 897.468 612.511 1392.73 976.296 1329.61C1226.55 1286.19 1259.71 1313.6 1540.24 1105.6C1755.77 945.787 1857.63 1024.22 2064.16 1017.66" stroke="#A8A8A8" stroke-width="0.502" stroke-miterlimit="10"/>
<path d="M-287.159 281.096C-98.6719 297.734 -295.086 1841.5 132.185 1381.67C597.52 880.888 612.632 1388.87 976.099 1323.77C1228.78 1278.5 1257.87 1311.34 1538.42 1097.8C1756.81 931.584 1857.5 1003.32 2060.27 1006.47" stroke="#A8A8A8" stroke-width="0.502" stroke-miterlimit="10"/>
<path d="M-270.779 272.342C-105.853 286.898 -293.712 1845.36 130.302 1379.68C599.652 864.21 612.752 1385 975.902 1317.93C1231.01 1270.8 1256 1309.04 1536.6 1090.01C1757.82 917.338 1857.35 982.417 2056.37 995.273" stroke="#A8A8A8" stroke-width="0.502" stroke-miterlimit="10"/>
<path d="M-254.398 263.586C-113.033 276.064 -292.398 1849.17 128.417 1377.69C601.683 847.438 612.865 1381.11 975.706 1312.09C1233.25 1263.09 1254.09 1306.71 1534.79 1082.22C1758.81 903.06 1857.22 961.521 2052.49 984.083" stroke="#A8A8A8" stroke-width="0.502" stroke-miterlimit="10"/>
<path d="M-238.017 254.835C-120.217 265.235 -291.158 1852.94 126.532 1375.69C603.621 830.579 612.975 1377.2 975.508 1306.24C1235.47 1255.36 1252.15 1304.36 1532.97 1074.43C1759.76 888.738 1857.08 940.614 2048.6 972.887" stroke="#A8A8A8" stroke-width="0.502" stroke-miterlimit="10"/>
<path d="M-221.636 246.081C-127.392 254.401 -289.978 1856.67 124.648 1373.7C605.458 813.63 613.081 1373.27 975.312 1300.4C1237.7 1247.61 1250.18 1301.98 1531.16 1066.63C1760.68 874.386 1856.94 919.712 2044.71 961.695" stroke="#A8A8A8" stroke-width="0.502" stroke-miterlimit="10"/>
<path d="M-205.255 237.327C-134.573 243.567 -288.86 1860.37 122.763 1371.71C607.199 796.597 613.182 1369.33 975.114 1294.56C1239.92 1239.85 1248.17 1299.58 1529.34 1058.84C1761.56 860 1856.8 898.81 2040.82 950.502" stroke="#A8A8A8" stroke-width="0.502" stroke-miterlimit="10"/>
<path d="M-188.875 228.574C-141.754 232.734 -287.805 1864.05 120.879 1369.71C608.84 779.483 613.195 1364.75 974.916 1288.72C1242.07 1231.62 1246.13 1297.17 1527.52 1051.05C1762.42 845.584 1856.66 877.908 2036.93 939.309" stroke="#A8A8A8" stroke-width="0.502" stroke-miterlimit="10"/>
<path d="M-172.494 219.82C-148.933 221.9 -286.808 1867.69 118.994 1367.72C610.383 762.294 613.329 1361.08 974.719 1282.88C1244.32 1224.05 1244.07 1294.74 1525.7 1043.26C1763.24 831.144 1856.53 857.01 2033.04 928.121" stroke="#A8A8A8" stroke-width="0.502" stroke-miterlimit="10"/>
<path d="M-156.113 211.066C-156.113 211.066 -285.87 1871.32 117.11 1365.72C611.83 745.022 613.463 1357.41 974.522 1277.03C1246.56 1216.47 1241.97 1292.3 1523.88 1035.46C1764.04 816.664 1856.39 836.103 2029.15 916.923" stroke="#A8A8A8" stroke-width="0.502" stroke-miterlimit="10"/>
<path d="M-156.993 213.837C-156.993 213.837 -282.953 1853.54 119.995 1359.46C612.979 753.518 612.064 1362.36 977.844 1282.7C1247.63 1223.34 1248.65 1294.51 1526.83 1045.23C1764.23 832.814 1858.52 852.228 2031.31 934.695" stroke="#A8A8A8" stroke-width="0.502" stroke-miterlimit="10"/>
<path d="M-157.873 216.618C-157.873 216.618 -280.037 1835.77 122.879 1353.2C614.127 762.022 610.662 1367.32 981.166 1288.37C1248.7 1230.22 1255.33 1296.72 1529.78 1055C1764.43 848.961 1860.64 868.361 2033.48 952.475" stroke="#A8A8A8" stroke-width="0.502" stroke-miterlimit="10"/>
<path d="M-158.752 219.393C-158.752 219.393 -277.119 1817.99 125.765 1346.93C615.278 770.519 609.415 1373.4 984.489 1294.03C1249.88 1237.88 1262.01 1298.93 1532.73 1064.77C1764.63 865.11 1862.77 884.478 2035.64 970.247" stroke="#A8A8A8" stroke-width="0.502" stroke-miterlimit="10"/>
<path d="M-159.635 222.169C-159.635 222.169 -273.343 1801.38 128.645 1340.67C617.475 780.433 608.052 1378.69 987.805 1299.71C1250.98 1244.97 1268.68 1301.15 1535.68 1074.54C1764.82 881.262 1864.89 900.608 2037.8 988.025" stroke="#A8A8A8" stroke-width="0.502" stroke-miterlimit="10"/>
<path d="M-160.512 224.945C-160.512 224.945 -270.246 1783.87 131.534 1334.41C618.84 789.259 606.694 1383.96 991.134 1305.37C1252.08 1252.03 1275.37 1303.36 1538.63 1084.31C1765.01 897.41 1867.02 916.731 2039.97 1005.8" stroke="#A8A8A8" stroke-width="0.502" stroke-miterlimit="10"/>
<path d="M-161.391 227.72C-161.391 227.72 -267.169 1766.36 134.419 1328.14C620.18 798.069 605.327 1389.21 994.453 1311.04C1253.16 1259.07 1281.67 1304.88 1541.58 1094.08C1764.89 912.961 1869.14 932.863 2042.13 1023.58" stroke="#A8A8A8" stroke-width="0.502" stroke-miterlimit="10"/>
<path d="M-162.272 230.497C-162.272 230.497 -264.108 1748.84 137.303 1321.88C621.503 806.867 603.954 1394.44 997.774 1316.71C1254.25 1266.08 1288.31 1306.99 1544.53 1103.85C1765.05 929.016 1871.27 948.985 2044.3 1041.35" stroke="#A8A8A8" stroke-width="0.502" stroke-miterlimit="10"/>
<path d="M-163.151 233.272C-163.151 233.272 -261.067 1731.3 140.188 1315.61C622.799 815.647 602.579 1399.65 1001.1 1322.38C1255.33 1273.08 1294.94 1309.1 1547.48 1113.61C1765.21 945.077 1873.4 965.113 2046.46 1059.13" stroke="#A8A8A8" stroke-width="0.502" stroke-miterlimit="10"/>
<path d="M-164.032 236.048C-164.032 236.048 -258.042 1713.75 143.068 1309.35C624.068 824.407 601.195 1404.82 1004.41 1328.04C1256.41 1280.06 1301.58 1311.22 1550.43 1123.38C1765.37 961.139 1875.52 981.234 2048.62 1076.9" stroke="#A8A8A8" stroke-width="0.502" stroke-miterlimit="10"/>
<path d="M-164.911 238.824C-164.911 238.824 -255.035 1696.19 145.957 1303.09C625.327 833.154 599.816 1409.98 1007.74 1333.71C1257.49 1287.01 1308.23 1313.35 1553.38 1133.15C1765.54 977.213 1877.65 997.364 2050.78 1094.68" stroke="#A8A8A8" stroke-width="0.502" stroke-miterlimit="10"/>
<path d="M-165.791 241.6C-165.791 241.6 -252.045 1678.61 148.843 1296.83C626.557 841.876 598.429 1415.12 1011.06 1339.38C1258.56 1293.96 1314.88 1315.48 1556.33 1142.92C1765.71 993.288 1879.78 1013.49 2052.95 1112.46" stroke="#A8A8A8" stroke-width="0.502" stroke-miterlimit="10"/>
<path d="M-166.671 244.376C-166.671 244.376 -249.071 1661.01 151.729 1290.56C627.767 850.573 597.04 1420.22 1014.38 1345.05C1259.63 1300.87 1321.54 1317.61 1559.28 1152.69C1765.89 1009.37 1881.9 1029.62 2055.11 1130.23" stroke="#A8A8A8" stroke-width="0.502" stroke-miterlimit="10"/>
<path d="M-167.551 247.151C-167.551 247.151 -246.117 1643.39 154.612 1284.3C628.952 859.247 595.644 1425.3 1017.7 1350.72C1260.7 1307.78 1328.2 1319.76 1562.23 1162.46C1766.07 1025.45 1884.03 1045.74 2057.28 1148.01" stroke="#A8A8A8" stroke-width="0.502" stroke-miterlimit="10"/>
<path d="M-168.43 249.927C-168.43 249.927 -243.187 1625.75 157.498 1278.04C630.118 867.892 594.248 1430.36 1021.03 1356.39C1261.77 1314.66 1334.88 1321.91 1565.18 1172.23C1766.26 1041.54 1886.15 1061.87 2059.44 1165.78" stroke="#A8A8A8" stroke-width="0.502" stroke-miterlimit="10"/>
<path d="M-169.311 252.703C-169.311 252.703 -240.272 1608.09 160.381 1271.77C631.258 876.509 592.845 1435.38 1024.34 1362.05C1262.83 1321.53 1341.55 1324.07 1568.13 1182C1766.45 1057.64 1888.28 1078 2061.6 1183.56" stroke="#A8A8A8" stroke-width="0.502" stroke-miterlimit="10"/>
<path d="M-170.191 255.479C-170.191 255.479 -237.373 1590.4 163.266 1265.51C632.378 885.093 591.441 1440.38 1027.67 1367.72C1263.89 1328.38 1348.23 1326.24 1571.08 1191.77C1766.65 1073.75 1890.4 1094.12 2063.77 1201.33" stroke="#A8A8A8" stroke-width="0.502" stroke-miterlimit="10"/>
<path d="M-171.071 258.255C-171.071 258.255 -234.492 1572.68 166.15 1259.25C633.478 893.646 590.033 1445.34 1030.99 1373.39C1264.96 1335.21 1354.92 1328.42 1574.03 1201.54C1766.85 1089.87 1892.53 1110.25 2065.93 1219.11" stroke="#A8A8A8" stroke-width="0.502" stroke-miterlimit="10"/>
<path d="M-171.951 261.035C-171.951 261.035 -231.628 1554.93 169.036 1252.98C634.558 902.158 588.624 1450.28 1034.31 1379.06C1266.02 1342.03 1361.62 1330.62 1576.98 1211.3C1767.06 1106 1894.66 1126.37 2068.1 1236.88" stroke="#A8A8A8" stroke-width="0.502" stroke-miterlimit="10"/>
<path d="M-172.831 263.806C-172.831 263.806 -228.782 1537.14 171.921 1246.72C635.621 910.634 587.21 1455.18 1037.63 1384.73C1267.08 1348.84 1368.32 1332.83 1579.93 1221.07C1767.28 1122.14 1896.78 1142.5 2070.26 1254.66" stroke="#A8A8A8" stroke-width="0.502" stroke-miterlimit="10"/>
<path d="M-173.71 266.582C-173.71 266.582 -225.949 1519.32 174.805 1240.45C636.661 919.068 585.794 1460.05 1040.95 1390.39C1268.13 1355.63 1375.03 1335.05 1582.88 1230.84C1767.49 1138.29 1898.91 1158.62 2072.43 1272.43" stroke="#A8A8A8" stroke-width="0.502" stroke-miterlimit="10"/>
<path d="M-174.59 269.358C-174.59 269.358 -223.133 1501.47 177.69 1234.19C637.69 927.46 584.375 1464.88 1044.28 1396.06C1269.19 1362.41 1381.74 1337.28 1585.83 1240.61C1767.72 1154.45 1901.03 1174.75 2074.59 1290.21" stroke="#A8A8A8" stroke-width="0.502" stroke-miterlimit="10"/>
<path d="M-175.471 272.134C-175.471 272.134 -220.333 1483.57 180.574 1227.93C638.694 935.806 582.953 1469.69 1047.6 1401.73C1270.24 1369.17 1388.46 1339.54 1588.78 1250.38C1767.95 1170.64 1903.16 1190.88 2076.75 1307.98" stroke="#A8A8A8" stroke-width="0.502" stroke-miterlimit="10"/>
<path d="M-176.349 274.909C-176.349 274.909 -217.541 1465.63 183.46 1221.66C639.691 944.102 581.529 1474.45 1050.92 1407.4C1271.3 1375.92 1395.18 1341.81 1591.73 1260.15C1768.18 1186.84 1905.29 1207 2078.92 1325.76" stroke="#A8A8A8" stroke-width="0.502" stroke-miterlimit="10"/>
<path d="M-177.23 277.685C-177.23 277.685 -214.765 1447.64 186.344 1215.4C640.674 952.347 580.102 1479.18 1054.24 1413.07C1272.36 1382.65 1401.91 1344.11 1594.69 1269.92C1768.42 1203.05 1907.42 1223.13 2081.09 1343.54" stroke="#A8A8A8" stroke-width="0.502" stroke-miterlimit="10"/>
<path d="M-178.109 280.461C-178.109 280.461 -211.994 1429.6 189.229 1209.14C641.648 960.538 578.673 1483.87 1057.56 1418.74C1273.41 1389.38 1408.63 1346.43 1597.63 1279.69C1768.65 1219.3 1909.54 1239.26 2083.24 1361.32" stroke="#A8A8A8" stroke-width="0.502" stroke-miterlimit="10"/>
<path d="M-178.989 283.237C-178.989 283.237 -209.232 1411.51 192.111 1202.87C642.611 968.679 577.239 1488.52 1060.88 1424.4C1274.46 1396.09 1415.36 1348.77 1600.58 1289.45C1768.89 1235.55 1911.66 1255.38 2085.41 1379.09" stroke="#A8A8A8" stroke-width="0.502" stroke-miterlimit="10"/>
<path d="M-179.869 286.013C-179.869 286.013 -206.475 1393.37 194.998 1196.61C643.579 976.764 575.808 1493.13 1064.2 1430.07C1275.51 1402.79 1422.09 1351.14 1603.53 1299.23C1769.13 1251.84 1913.79 1271.51 2087.57 1396.86" stroke="#A8A8A8" stroke-width="0.502" stroke-miterlimit="10"/>
<path d="M-180.749 288.788C-180.749 288.788 -203.722 1375.18 197.883 1190.35C644.54 984.784 574.373 1497.69 1067.53 1435.74C1276.57 1409.48 1428.83 1353.53 1606.48 1308.99C1769.38 1268.15 1915.92 1287.63 2089.74 1414.64" stroke="#A8A8A8" stroke-width="0.502" stroke-miterlimit="10"/>
<path d="M-181.628 291.564C-181.628 291.564 -200.967 1356.92 200.772 1184.08C645.508 992.746 572.861 1501.2 1070.85 1441.41C1277.59 1415.74 1435.55 1355.96 1609.44 1318.76C1769.62 1284.49 1918.05 1303.76 2091.9 1432.41" stroke="#A8A8A8" stroke-width="0.502" stroke-miterlimit="10"/>
<path d="M-182.509 294.34C-182.509 294.34 -198.369 1338.01 203.651 1177.82C646.3 999.983 571.451 1506.16 1074.17 1447.07C1278.65 1422.6 1442.3 1358.69 1612.38 1328.52C1769.87 1301.12 1920.17 1319.88 2094.06 1450.18" stroke="#A8A8A8" stroke-width="0.502" stroke-miterlimit="10"/>
<path d="M-183.388 297.116C-183.388 297.116 -195.45 1320.23 206.535 1171.56C647.449 1008.49 570.054 1511.12 1077.49 1452.74C1467.83 1407.84 1735.3 1194.14 2096.22 1467.96" stroke="#A8A8A8" stroke-width="0.502" stroke-miterlimit="10"/>
<path d="M2093.11 1445.38C2017.47 1388 1940.24 1358.42 1864.66 1342.69C1735.1 1315.72 1619.67 1325.33 1490.94 1353.61C1353.44 1383.94 1207.95 1425.5 1051.56 1436.68C558.184 1471.97 626.862 997.255 192.962 1152.88C-204.315 1294.26 -201.099 302.8 -201.595 298.784" stroke="#A8A8A8" stroke-width="0.502" stroke-miterlimit="10"/>
<path d="M2089.99 1422.8C2016.87 1367.32 1936.23 1344.55 1856.61 1333.38C1721.82 1314.46 1608.55 1320.13 1473.63 1349.07C1331.58 1379.8 1179.66 1416.56 1025.63 1420.62C546.899 1433.25 606.514 987.133 179.391 1134.21C-212.95 1269.31 -218.809 308.484 -219.799 300.455" stroke="#A8A8A8" stroke-width="0.502" stroke-miterlimit="10"/>
<path d="M2086.87 1400.21C2016.27 1346.65 1932.26 1330.64 1848.57 1324.07C1708.6 1313.09 1597.44 1314.93 1456.34 1344.53C1309.73 1375.65 1151.76 1407.65 999.704 1404.57C536.204 1395.15 586.025 976.427 165.817 1115.54C-221.72 1243.84 -236.518 314.169 -238.006 302.125" stroke="#A8A8A8" stroke-width="0.502" stroke-miterlimit="10"/>
<path d="M2083.75 1377.63C2015.67 1325.98 1928.31 1316.66 1840.52 1314.76C1695.41 1311.62 1586.31 1309.73 1439.04 1339.99C1287.86 1371.5 1124.25 1398.81 973.77 1388.5C526.102 1357.86 565.519 965.702 152.238 1096.87C-230.508 1218.35 -254.232 319.853 -256.215 303.795" stroke="#A8A8A8" stroke-width="0.502" stroke-miterlimit="10"/>
<path d="M2080.63 1355.04C2015.08 1305.31 1924.38 1302.64 1832.48 1305.45C1682.25 1310.06 1575.19 1304.53 1421.74 1335.45C1266.01 1367.35 1097.14 1390.05 947.837 1372.44C516.559 1321.58 544.999 954.949 138.662 1078.2C-239.301 1192.84 -271.942 325.537 -274.421 305.463" stroke="#A8A8A8" stroke-width="0.502" stroke-miterlimit="10"/>
<path d="M2077.51 1332.46C2014.47 1284.64 1920.46 1288.56 1824.43 1296.15C1669.11 1308.41 1564.07 1299.32 1404.44 1330.92C1244.14 1363.21 1070.42 1381.43 921.91 1356.38C507.532 1286.5 524.467 944.172 125.089 1059.53C-248.108 1167.31 -289.653 331.221 -292.633 307.134" stroke="#A8A8A8" stroke-width="0.502" stroke-miterlimit="10"/>
<path d="M2074.39 1309.88C2013.88 1263.97 1916.53 1274.44 1816.39 1286.84C1655.96 1306.69 1552.95 1294.12 1387.14 1326.38C1222.29 1359.07 1037.22 1404.65 895.981 1340.32C492.743 1340.36 503.929 933.378 111.517 1040.86C-256.927 1141.77 -307.363 336.905 -310.834 308.802" stroke="#A8A8A8" stroke-width="0.502" stroke-miterlimit="10"/>
<path d="M2071.27 1287.29C2013.28 1243.3 1912.61 1260.28 1808.34 1277.53C1642.82 1304.9 1541.83 1288.92 1369.84 1321.84C1200.43 1354.92 1008.73 1400.4 870.051 1324.26C481.699 1315.96 483.37 922.549 97.942 1022.18C-265.758 1116.2 -325.073 342.584 -329.04 310.472" stroke="#A8A8A8" stroke-width="0.502" stroke-miterlimit="10"/>
<path d="M2068.15 1264.71C2012.68 1222.63 1908.69 1246.09 1800.29 1268.22C1629.67 1303.06 1530.71 1283.72 1352.54 1317.3C1178.57 1350.77 980.248 1396.14 844.119 1308.2C470.651 1291.57 462.796 911.69 84.3659 1003.51C-274.609 1090.61 -342.786 348.272 -347.249 312.14" stroke="#A8A8A8" stroke-width="0.502" stroke-miterlimit="10"/>
<path d="M2065.03 1242.12C2012.08 1201.95 1904.76 1231.86 1792.25 1258.91C1616.51 1301.16 1519.59 1278.51 1335.24 1312.76C1156.71 1346.63 951.763 1391.89 818.188 1292.15C459.606 1267.18 442.21 900.804 70.7881 984.839C-283.47 1064.99 -360.496 353.957 -365.456 313.811" stroke="#A8A8A8" stroke-width="0.502" stroke-miterlimit="10"/>
<path d="M2061.9 1219.54C2011.48 1181.28 1900.82 1217.61 1784.2 1249.6C1603.34 1299.22 1508.47 1273.31 1317.94 1308.23C1134.85 1342.48 923.281 1387.63 792.259 1276.08C448.559 1242.78 421.611 889.884 57.218 966.166C-292.341 1039.35 -378.206 359.642 -383.662 315.48" stroke="#A8A8A8" stroke-width="0.502" stroke-miterlimit="10"/>
<path d="M2058.79 1196.95C2010.89 1160.61 1896.88 1203.33 1776.16 1240.29C1590.17 1297.25 1497.35 1268.11 1300.64 1303.69C1112.99 1338.33 894.799 1383.38 766.331 1260.03C437.518 1218.39 401.001 878.925 43.6451 947.496C-301.226 1013.68 -395.918 365.325 -401.869 317.15" stroke="#A8A8A8" stroke-width="0.502" stroke-miterlimit="10"/>
<path d="M2055.67 1174.37C2010.29 1139.94 1892.92 1189.03 1768.12 1230.99C1576.98 1295.24 1486.23 1262.91 1283.34 1299.15C1091.13 1334.19 866.314 1379.12 740.399 1243.96C426.473 1194 380.374 867.923 30.069 928.823C-310.123 987.965 -413.631 371.009 -420.074 318.823" stroke="#A8A8A8" stroke-width="0.502" stroke-miterlimit="10"/>
<path d="M2052.55 1151.79C2009.69 1119.27 1888.96 1174.71 1760.07 1221.68C1563.77 1293.22 1475.11 1257.71 1266.04 1294.61C1069.27 1330.04 837.829 1374.87 714.468 1227.91C415.428 1169.61 359.735 856.885 16.495 910.153C-319.032 962.224 -431.339 376.695 -438.282 320.49" stroke="#A8A8A8" stroke-width="0.502" stroke-miterlimit="10"/>
<path d="M2049.43 1129.2C2009.09 1098.6 1884.99 1160.37 1752.03 1212.37C1550.56 1291.16 1463.99 1252.5 1248.75 1290.07C1047.42 1325.89 809.347 1370.61 688.542 1211.84C404.387 1145.21 339.091 845.798 2.92303 891.476C-327.954 936.44 -449.045 382.378 -456.489 322.158" stroke="#A8A8A8" stroke-width="0.502" stroke-miterlimit="10"/>
<path d="M2046.31 1106.62C2008.49 1077.92 1881.01 1146.02 1743.98 1203.06C1537.32 1289.08 1452.87 1247.3 1231.45 1285.54C1025.55 1321.75 780.861 1366.36 662.608 1195.78C393.337 1120.81 318.428 834.671 -10.6539 872.808C-336.883 910.616 -466.757 388.062 -474.695 323.825" stroke="#A8A8A8" stroke-width="0.502" stroke-miterlimit="10"/>
<path d="M2043.19 1084.03C2007.89 1057.25 1877.03 1131.66 1735.94 1193.75C1524.08 1286.99 1441.75 1242.1 1214.14 1281C1003.69 1317.6 752.376 1362.1 636.677 1179.73C382.292 1096.43 297.758 823.494 -24.23 854.138C-345.823 884.745 -484.47 393.747 -492.903 325.498" stroke="#A8A8A8" stroke-width="0.502" stroke-miterlimit="10"/>
<path d="M2040.07 1061.45C2007.29 1036.58 1873.03 1117.28 1727.89 1184.45C1510.83 1284.89 1430.63 1236.9 1196.85 1276.46C981.834 1313.46 723.894 1357.85 610.745 1163.66C371.245 1072.03 277.081 812.264 -37.8049 835.464C-354.768 858.822 -502.182 399.43 -511.109 327.167" stroke="#A8A8A8" stroke-width="0.502" stroke-miterlimit="10"/>
<path d="M2036.95 1038.86C2006.7 1015.91 1869.03 1102.9 1719.85 1175.14C1497.57 1282.77 1419.51 1231.69 1179.55 1271.92C959.981 1309.31 695.415 1353.59 584.822 1147.61C360.206 1047.63 256.406 800.974 -51.378 816.791C-363.721 832.847 -519.894 405.114 -529.315 328.836" stroke="#A8A8A8" stroke-width="0.502" stroke-miterlimit="10"/>
<path d="M2033.83 1016.28C2006.1 995.24 1865.02 1088.51 1711.8 1165.83C1484.29 1280.64 1408.39 1226.49 1162.25 1267.39C938.116 1305.16 666.926 1349.34 558.887 1131.55C349.158 1023.25 235.717 789.629 -64.953 798.122C-372.676 806.814 -537.607 410.799 -547.522 330.507" stroke="#A8A8A8" stroke-width="0.502" stroke-miterlimit="10"/>
<path d="M2030.71 993.695C2005.5 974.567 1861.01 1074.1 1703.76 1156.52C1471.01 1278.5 1397.27 1221.29 1144.95 1262.85C916.258 1301.02 638.443 1345.08 532.957 1115.49C338.114 998.845 215.032 778.221 -78.528 779.45C-381.633 780.716 -555.314 416.481 -565.728 332.175" stroke="#A8A8A8" stroke-width="0.502" stroke-miterlimit="10"/>
<path d="M2027.59 971.111C2004.9 953.896 1856.99 1059.7 1695.71 1147.21C1457.72 1276.35 1386.15 1216.09 1127.65 1258.31C894.398 1296.87 609.959 1340.83 507.027 1099.43C327.068 974.451 194.347 766.752 -92.1019 760.777C-390.586 754.557 -573.024 422.166 -583.932 333.844" stroke="#A8A8A8" stroke-width="0.502" stroke-miterlimit="10"/>
<path d="M2024.47 948.528C2004.3 933.228 1852.96 1045.29 1687.67 1137.9C1444.42 1274.2 1375.03 1210.89 1110.35 1253.77C872.543 1292.73 581.478 1336.57 481.1 1083.37C316.024 950.059 173.67 755.213 -105.676 742.106C-399.535 728.313 -590.735 427.85 -602.144 335.513" stroke="#A8A8A8" stroke-width="0.502" stroke-miterlimit="10"/>
<path d="M2021.35 925.944C2003.7 912.555 1848.93 1030.87 1679.62 1128.6C1431.11 1272.04 1363.91 1205.68 1093.05 1249.23C850.68 1288.58 552.991 1332.31 455.167 1067.31C304.98 925.665 153.004 743.605 -119.25 723.435C-408.472 702.005 -608.45 433.535 -620.35 337.184" stroke="#A8A8A8" stroke-width="0.502" stroke-miterlimit="10"/>
<path d="M2018.23 903.359C2003.1 891.882 1844.89 1016.45 1671.58 1119.29C1417.79 1269.88 1352.79 1200.49 1075.75 1244.69C828.819 1284.43 524.505 1328.06 429.235 1051.25C293.931 901.27 132.348 731.93 -132.825 704.763C-417.397 675.608 -626.156 439.218 -638.556 338.854" stroke="#A8A8A8" stroke-width="0.502" stroke-miterlimit="10"/>
<path d="M2015.11 880.779C2002.51 871.216 1840.84 1002.03 1663.53 1109.98C1404.47 1267.71 1341.67 1195.28 1058.45 1240.16C806.961 1280.29 496.023 1323.8 403.306 1035.19C282.89 876.879 111.714 720.179 -146.399 686.091C-426.3 649.126 -643.867 444.903 -656.762 340.523" stroke="#A8A8A8" stroke-width="0.502" stroke-miterlimit="10"/>
<path d="M2011.99 858.191C2001.91 850.54 1836.79 987.591 1655.49 1100.67C1391.14 1265.54 1330.55 1190.08 1041.16 1235.62C785.106 1276.14 503.761 1298.68 377.378 1019.13C293.797 834.256 91.106 708.354 -159.974 667.42C-435.174 622.554 -661.574 450.587 -674.969 342.192" stroke="#A8A8A8" stroke-width="0.502" stroke-miterlimit="10"/>
<path d="M2008.87 835.606C2001.31 829.868 1832.74 973.158 1647.44 1091.36C1377.8 1263.36 1319.43 1184.87 1023.85 1231.08C763.244 1271.99 468.085 1300.28 351.446 1003.07C278.046 816.028 70.525 696.452 -173.548 648.747C-444.019 595.882 -679.288 456.271 -693.175 343.862" stroke="#A8A8A8" stroke-width="0.502" stroke-miterlimit="10"/>
<path d="M2005.75 813.022C2000.71 809.196 1828.55 958.388 1639.4 1082.05C1364.25 1260.7 1308.31 1179.67 1006.55 1226.54C741.385 1267.84 431.031 1301.62 325.516 987.005C261.722 796.795 49.9821 684.477 -187.118 630.076C-452.818 569.115 -696.999 461.956 -711.382 345.531" stroke="#A8A8A8" stroke-width="0.502" stroke-miterlimit="10"/>
<path d="M2002.63 790.439C2000.11 788.527 1824.55 944.118 1631.35 1072.74C1351 1258.76 1297.19 1174.47 989.252 1222C719.523 1263.7 392.783 1302.43 299.583 970.942C244.899 776.442 29.483 672.423 -200.7 611.4C-461.571 542.245 -714.711 467.64 -729.589 347.201" stroke="#A8A8A8" stroke-width="0.502" stroke-miterlimit="10"/>
<path d="M1999.51 767.856C1999.51 767.856 1820.56 929.85 1623.31 1063.44C1337.76 1256.83 1286.07 1169.27 971.958 1217.47C697.67 1259.56 353.608 1302.53 273.658 954.888C174.946 525.672 -719.008 581.894 -747.794 348.871" stroke="#A8A8A8" stroke-width="0.502" stroke-miterlimit="10"/>
<g opacity="0.6">
<mask id="mask1_1_14" style="mask-type:luminance" maskUnits="userSpaceOnUse" x="1266" y="517" width="600" height="745">
<path d="M1865.57 517.609H1266.86V1261.4H1865.57V517.609Z" fill="white"/>
</mask>
<g mask="url(#mask1_1_14)">
<mask id="mask2_1_14" style="mask-type:luminance" maskUnits="userSpaceOnUse" x="1266" y="517" width="600" height="745">
<path d="M1865.57 517.609H1266.86V1261.4H1865.57V517.609Z" fill="white"/>
</mask>
<g mask="url(#mask2_1_14)">
<path d="M1566.21 1259.75C1730.8 1259.75 1864.24 1093.99 1864.24 889.505C1864.24 685.024 1730.8 519.259 1566.21 519.259C1401.61 519.259 1268.18 685.024 1268.18 889.505C1268.18 1093.99 1401.61 1259.75 1566.21 1259.75Z" stroke="#D3D3D3" stroke-width="2.201" stroke-miterlimit="10"/>
</g>
<mask id="mask3_1_14" style="mask-type:luminance" maskUnits="userSpaceOnUse" x="1287" y="542" width="559" height="695">
<path d="M1845.15 542.966H1287.27V1236.04H1845.15V542.966Z" fill="white"/>
</mask>
<g mask="url(#mask3_1_14)">
<path d="M1566.21 1234.39C1719.53 1234.39 1843.83 1079.98 1843.83 889.504C1843.83 699.027 1719.53 544.615 1566.21 544.615C1412.89 544.615 1288.59 699.027 1288.59 889.504C1288.59 1079.98 1412.89 1234.39 1566.21 1234.39Z" stroke="#D3D3D3" stroke-width="2.201" stroke-miterlimit="10"/>
</g>
<mask id="mask4_1_14" style="mask-type:luminance" maskUnits="userSpaceOnUse" x="1307" y="568" width="518" height="643">
<path d="M1824.74 568.324H1307.68V1210.69H1824.74V568.324Z" fill="white"/>
</mask>
<g mask="url(#mask4_1_14)">
<path d="M1384.34 663.56C1484.78 538.776 1647.63 538.776 1748.07 663.56C1848.51 788.345 1848.52 990.661 1748.07 1115.45C1647.63 1240.23 1484.78 1240.23 1384.34 1115.45C1283.89 990.666 1283.89 788.346 1384.34 663.56Z" stroke="#D3D3D3" stroke-width="2.201"/>
</g>
<mask id="mask5_1_14" style="mask-type:luminance" maskUnits="userSpaceOnUse" x="1328" y="593" width="477" height="593">
<path d="M1804.33 593.681H1328.09V1185.33H1804.33V593.681Z" fill="white"/>
</mask>
<g mask="url(#mask5_1_14)">
<path d="M1566.21 1183.68C1696.99 1183.68 1803 1051.97 1803 889.505C1803 727.037 1696.99 595.331 1566.21 595.331C1435.43 595.331 1329.42 727.037 1329.42 889.505C1329.42 1051.97 1435.43 1183.68 1566.21 1183.68Z" stroke="#D3D3D3" stroke-width="2.201" stroke-miterlimit="10"/>
</g>
<mask id="mask6_1_14" style="mask-type:luminance" maskUnits="userSpaceOnUse" x="1348" y="619" width="436" height="541">
<path d="M1783.92 619.039H1348.49V1159.97H1783.92V619.039Z" fill="white"/>
</mask>
<g mask="url(#mask6_1_14)">
<path d="M1565.09 620.693C1684.6 619.928 1781.97 739.66 1782.59 888.121C1783.2 1036.58 1686.82 1157.55 1567.32 1158.32C1447.82 1159.08 1350.44 1039.35 1349.83 890.89C1349.21 742.429 1445.59 621.458 1565.09 620.693Z" stroke="#D3D3D3" stroke-width="2.201"/>
</g>
<mask id="mask7_1_14" style="mask-type:luminance" maskUnits="userSpaceOnUse" x="1368" y="644" width="396" height="491">
<path d="M1763.51 644.396H1368.92V1134.61H1763.51V644.396Z" fill="white"/>
</mask>
<g mask="url(#mask7_1_14)">
<path d="M1566.21 1132.96C1674.44 1132.96 1762.18 1023.96 1762.18 889.505C1762.18 755.046 1674.44 646.046 1566.21 646.046C1457.98 646.046 1370.24 755.046 1370.24 889.505C1370.24 1023.96 1457.98 1132.96 1566.21 1132.96Z" stroke="#D3D3D3" stroke-width="2.201" stroke-miterlimit="10"/>
</g>
<mask id="mask8_1_14" style="mask-type:luminance" maskUnits="userSpaceOnUse" x="1389" y="669" width="355" height="441">
<path d="M1743.09 669.755H1389.32V1109.25H1743.09V669.755Z" fill="white"/>
</mask>
<g mask="url(#mask8_1_14)">
<path d="M1566.21 1107.61C1663.17 1107.61 1741.77 1009.96 1741.77 889.504C1741.77 769.05 1663.17 671.403 1566.21 671.403C1469.25 671.403 1390.65 769.05 1390.65 889.504C1390.65 1009.96 1469.25 1107.61 1566.21 1107.61Z" stroke="#D3D3D3" stroke-width="2.201" stroke-miterlimit="10"/>
</g>
<mask id="mask9_1_14" style="mask-type:luminance" maskUnits="userSpaceOnUse" x="1409" y="695" width="314" height="389">
<path d="M1722.68 695.113H1409.73V1083.9H1722.68V695.113Z" fill="white"/>
</mask>
<g mask="url(#mask9_1_14)">
<path d="M1566.21 1082.25C1651.89 1082.25 1721.36 995.955 1721.36 889.505C1721.36 783.055 1651.89 696.761 1566.21 696.761C1480.52 696.761 1411.06 783.055 1411.06 889.505C1411.06 995.955 1480.52 1082.25 1566.21 1082.25Z" stroke="#D3D3D3" stroke-width="2.201" stroke-miterlimit="10"/>
</g>
<mask id="mask10_1_14" style="mask-type:luminance" maskUnits="userSpaceOnUse" x="1430" y="720" width="273" height="339">
<path d="M1702.27 720.47H1430.14V1058.54H1702.27V720.47Z" fill="white"/>
</mask>
<g mask="url(#mask10_1_14)">
<path d="M1566.21 1056.89C1640.62 1056.89 1700.95 981.95 1700.95 889.505C1700.95 797.06 1640.62 722.119 1566.21 722.119C1491.8 722.119 1431.47 797.06 1431.47 889.505C1431.47 981.95 1491.8 1056.89 1566.21 1056.89Z" stroke="#D3D3D3" stroke-width="2.201" stroke-miterlimit="10"/>
</g>
<mask id="mask11_1_14" style="mask-type:luminance" maskUnits="userSpaceOnUse" x="1450" y="745" width="232" height="289">
<path d="M1681.86 745.827H1450.55V1033.18H1681.86V745.827Z" fill="white"/>
</mask>
<g mask="url(#mask11_1_14)">
<path d="M1485.37 789.075C1530.02 733.609 1602.4 733.609 1647.05 789.075C1691.7 844.54 1691.69 934.465 1647.05 989.933C1602.41 1045.4 1530.02 1045.4 1485.37 989.934C1440.72 934.469 1440.72 844.541 1485.37 789.075Z" stroke="#D3D3D3" stroke-width="2.201"/>
</g>
<mask id="mask12_1_14" style="mask-type:luminance" maskUnits="userSpaceOnUse" x="1470" y="771" width="192" height="237">
<path d="M1661.46 771.185H1470.97V1007.83H1661.46V771.185Z" fill="white"/>
</mask>
<g mask="url(#mask12_1_14)">
<path d="M1499.8 807.007C1536.48 761.442 1595.94 761.444 1632.62 807.006C1669.29 852.569 1669.29 926.441 1632.62 972.004C1595.94 1017.57 1536.48 1017.57 1499.8 972.003C1463.13 926.438 1463.13 852.569 1499.8 807.007Z" stroke="#D3D3D3" stroke-width="2.201"/>
</g>
<mask id="mask13_1_14" style="mask-type:luminance" maskUnits="userSpaceOnUse" x="1491" y="796" width="151" height="187">
<path d="M1641.03 796.542H1491.38V982.467H1641.03V796.542Z" fill="white"/>
</mask>
<g mask="url(#mask13_1_14)">
<path d="M1514.24 824.935C1542.94 789.275 1589.48 789.275 1618.18 824.935C1646.88 860.595 1646.89 918.411 1618.18 954.071C1589.48 989.732 1542.94 989.734 1514.24 954.073C1485.53 918.412 1485.53 860.596 1514.24 824.935Z" stroke="#D3D3D3" stroke-width="2.201"/>
</g>
</g>
</g>
<g opacity="0.26">
<mask id="mask14_1_14" style="mask-type:luminance" maskUnits="userSpaceOnUse" x="1331" y="627" width="808" height="1004">
<path d="M2138.65 627.887H1331.51V1630.63H2138.65V627.887Z" fill="white"/>
</mask>
<g mask="url(#mask14_1_14)">
<path d="M1735.08 1630.63C1680.6 1630.63 1627.75 1617.37 1577.99 1591.23C1529.94 1565.98 1486.78 1529.83 1449.71 1483.78C1412.65 1437.73 1383.55 1384.12 1363.22 1324.41C1342.18 1262.6 1331.51 1196.94 1331.51 1129.26C1331.51 1061.57 1342.18 995.912 1363.22 934.1C1383.55 874.4 1412.65 820.778 1449.71 774.735C1486.78 728.692 1529.94 692.535 1577.99 667.286C1627.75 641.142 1680.6 627.886 1735.08 627.886C1789.56 627.886 1842.42 641.142 1892.17 667.286C1940.23 692.54 1983.39 728.686 2020.45 774.735C2057.51 820.784 2086.61 874.397 2106.94 934.1C2127.98 995.913 2138.65 1061.57 2138.65 1129.26C2138.65 1196.94 2127.98 1262.6 2106.94 1324.41C2086.61 1384.11 2057.51 1437.74 2020.45 1483.78C1983.39 1529.82 1940.23 1565.98 1892.17 1591.23C1842.42 1617.37 1789.56 1630.63 1735.08 1630.63ZM1735.08 630.385C1513.66 630.385 1333.52 854.178 1333.52 1129.26C1333.52 1404.34 1513.66 1628.13 1735.08 1628.13C1956.5 1628.13 2136.64 1404.34 2136.64 1129.26C2136.64 854.179 1956.5 630.385 1735.08 630.385Z" fill="#6A1A25"/>
<path d="M1735.08 1591.66C1684.84 1591.66 1636.09 1579.43 1590.2 1555.32C1545.88 1532.03 1506.07 1498.69 1471.89 1456.22C1437.71 1413.76 1410.87 1364.31 1392.13 1309.25C1372.72 1252.24 1362.88 1191.68 1362.88 1129.26C1362.88 1066.84 1372.72 1006.28 1392.13 949.271C1410.87 894.209 1437.71 844.757 1471.89 802.292C1506.07 759.827 1545.88 726.486 1590.2 703.192C1636.09 679.081 1684.83 666.854 1735.08 666.854C1785.33 666.854 1834.07 679.082 1879.96 703.192C1924.28 726.482 1964.09 759.821 1998.27 802.292C2032.45 844.763 2059.29 894.209 2078.04 949.271C2097.44 1006.28 2107.29 1066.84 2107.29 1129.26C2107.29 1191.68 2097.44 1252.24 2078.04 1309.25C2059.29 1364.31 2032.45 1413.76 1998.27 1456.22C1964.09 1498.69 1924.28 1532.03 1879.96 1555.32C1834.07 1579.43 1785.33 1591.66 1735.08 1591.66ZM1735.08 669.357C1530.96 669.357 1364.89 875.668 1364.89 1129.26C1364.89 1382.85 1530.96 1589.16 1735.08 1589.16C1939.21 1589.16 2105.28 1382.85 2105.28 1129.26C2105.28 875.667 1939.21 669.357 1735.08 669.357Z" fill="#6A1A25"/>
<path d="M1735.08 1552.69C1644.04 1552.69 1558.45 1508.64 1494.07 1428.67C1429.7 1348.69 1394.25 1242.36 1394.25 1129.26C1394.25 1016.15 1429.7 909.823 1494.07 829.847C1558.45 749.871 1644.04 705.827 1735.08 705.827C1826.12 705.827 1911.71 749.872 1976.09 829.847C2040.46 909.822 2075.92 1016.15 2075.92 1129.26C2075.92 1242.36 2040.46 1348.69 1976.09 1428.67C1911.71 1508.64 1826.12 1552.69 1735.08 1552.69ZM1735.08 708.326C1548.25 708.326 1396.26 897.155 1396.26 1129.26C1396.26 1361.36 1548.26 1550.19 1735.08 1550.19C1921.91 1550.19 2073.91 1361.36 2073.91 1129.26C2073.91 897.153 1921.91 708.326 1735.08 708.326Z" fill="#6A1A25"/>
<path d="M1735.08 1513.72C1652.42 1513.72 1574.7 1473.73 1516.25 1401.11C1457.8 1328.5 1425.61 1231.95 1425.61 1129.26C1425.61 1026.56 1457.8 930.018 1516.25 857.403C1574.71 784.788 1652.42 744.798 1735.08 744.798C1817.74 744.798 1895.46 784.788 1953.91 857.403C2012.36 930.018 2044.55 1026.57 2044.55 1129.26C2044.55 1231.95 2012.36 1328.5 1953.91 1401.11C1895.46 1473.73 1817.74 1513.72 1735.08 1513.72ZM1735.08 747.296C1565.55 747.296 1427.62 918.642 1427.62 1129.26C1427.62 1339.87 1565.55 1511.22 1735.08 1511.22C1904.61 1511.22 2042.54 1339.87 2042.54 1129.26C2042.54 918.646 1904.61 747.296 1735.08 747.296Z" fill="#6A1A25"/>
</g>
</g>
<g opacity="0.6">
<mask id="mask15_1_14" style="mask-type:luminance" maskUnits="userSpaceOnUse" x="51" y="517" width="600" height="745">
<path d="M650.528 517.609H51.82V1261.4H650.528V517.609Z" fill="white"/>
</mask>
<g mask="url(#mask15_1_14)">
<mask id="mask16_1_14" style="mask-type:luminance" maskUnits="userSpaceOnUse" x="51" y="517" width="600" height="745">
<path d="M650.528 517.609H51.82V1261.4H650.528V517.609Z" fill="white"/>
</mask>
<g mask="url(#mask16_1_14)">
<path d="M351.175 1259.75C515.771 1259.75 649.202 1093.99 649.202 889.505C649.202 685.024 515.771 519.259 351.175 519.259C186.579 519.259 53.148 685.024 53.148 889.505C53.148 1093.99 186.579 1259.75 351.175 1259.75Z" stroke="#D3D3D3" stroke-width="2.201" stroke-miterlimit="10"/>
</g>
<mask id="mask17_1_14" style="mask-type:luminance" maskUnits="userSpaceOnUse" x="72" y="542" width="559" height="695">
<path d="M630.119 542.966H72.231V1236.04H630.119V542.966Z" fill="white"/>
</mask>
<g mask="url(#mask17_1_14)">
<path d="M351.175 1234.39C504.498 1234.39 628.791 1079.98 628.791 889.505C628.791 699.028 504.498 544.616 351.175 544.616C197.852 544.616 73.559 699.028 73.559 889.505C73.559 1079.98 197.852 1234.39 351.175 1234.39Z" stroke="#D3D3D3" stroke-width="2.201" stroke-miterlimit="10"/>
</g>
<mask id="mask18_1_14" style="mask-type:luminance" maskUnits="userSpaceOnUse" x="92" y="568" width="518" height="643">
<path d="M609.711 568.324H92.643V1210.69H609.711V568.324Z" fill="white"/>
</mask>
<g mask="url(#mask18_1_14)">
<path d="M169.302 663.561C269.747 538.777 432.599 538.777 533.038 663.561C633.477 788.346 633.483 990.662 533.038 1115.45C432.594 1240.23 269.748 1240.23 169.302 1115.45C68.8564 990.666 68.8592 788.347 169.302 663.561Z" stroke="#D3D3D3" stroke-width="2.201"/>
</g>
<mask id="mask19_1_14" style="mask-type:luminance" maskUnits="userSpaceOnUse" x="113" y="593" width="477" height="593">
<path d="M589.29 593.681H113.054V1185.33H589.29V593.681Z" fill="white"/>
</mask>
<g mask="url(#mask19_1_14)">
<path d="M351.175 1183.68C481.952 1183.68 587.968 1051.97 587.968 889.505C587.968 727.037 481.952 595.331 351.175 595.331C220.398 595.331 114.382 727.037 114.382 889.505C114.382 1051.97 220.398 1183.68 351.175 1183.68Z" stroke="#D3D3D3" stroke-width="2.201" stroke-miterlimit="10"/>
</g>
<mask id="mask20_1_14" style="mask-type:luminance" maskUnits="userSpaceOnUse" x="133" y="619" width="436" height="541">
<path d="M568.881 619.039H133.465V1159.97H568.881V619.039Z" fill="white"/>
</mask>
<g mask="url(#mask20_1_14)">
<path d="M351.174 1158.32C470.678 1158.32 567.555 1037.97 567.555 889.505C567.555 741.042 470.678 620.689 351.174 620.689C231.67 620.689 134.793 741.042 134.793 889.505C134.793 1037.97 231.67 1158.32 351.174 1158.32Z" stroke="#D3D3D3" stroke-width="2.201" stroke-miterlimit="10"/>
</g>
<mask id="mask21_1_14" style="mask-type:luminance" maskUnits="userSpaceOnUse" x="153" y="644" width="396" height="491">
<path d="M548.472 644.396H153.876V1134.61H548.472V644.396Z" fill="white"/>
</mask>
<g mask="url(#mask21_1_14)">
<path d="M351.174 1132.96C459.405 1132.96 547.144 1023.96 547.144 889.505C547.144 755.046 459.405 646.046 351.174 646.046C242.943 646.046 155.204 755.046 155.204 889.505C155.204 1023.96 242.943 1132.96 351.174 1132.96Z" stroke="#D3D3D3" stroke-width="2.201" stroke-miterlimit="10"/>
</g>
<mask id="mask22_1_14" style="mask-type:luminance" maskUnits="userSpaceOnUse" x="174" y="669" width="355" height="441">
<path d="M528.063 669.755H174.288V1109.25H528.063V669.755Z" fill="white"/>
</mask>
<g mask="url(#mask22_1_14)">
<path d="M351.175 1107.61C448.134 1107.61 526.734 1009.96 526.734 889.504C526.734 769.05 448.134 671.403 351.175 671.403C254.216 671.403 175.616 769.05 175.616 889.504C175.616 1009.96 254.216 1107.61 351.175 1107.61Z" stroke="#D3D3D3" stroke-width="2.201" stroke-miterlimit="10"/>
</g>
<mask id="mask23_1_14" style="mask-type:luminance" maskUnits="userSpaceOnUse" x="194" y="695" width="314" height="389">
<path d="M507.654 695.113H194.699V1083.9H507.654V695.113Z" fill="white"/>
</mask>
<g mask="url(#mask23_1_14)">
<path d="M351.174 1082.25C436.859 1082.25 506.321 995.954 506.321 889.505C506.321 783.056 436.859 696.762 351.174 696.762C265.489 696.762 196.027 783.056 196.027 889.505C196.027 995.954 265.489 1082.25 351.174 1082.25Z" stroke="#D3D3D3" stroke-width="2.201" stroke-miterlimit="10"/>
</g>
<mask id="mask24_1_14" style="mask-type:luminance" maskUnits="userSpaceOnUse" x="215" y="720" width="273" height="339">
<path d="M487.233 720.47H215.11V1058.54H487.233V720.47Z" fill="white"/>
</mask>
<g mask="url(#mask24_1_14)">
<path d="M351.174 1056.89C425.587 1056.89 485.91 981.95 485.91 889.505C485.91 797.06 425.587 722.119 351.174 722.119C276.761 722.119 216.438 797.06 216.438 889.505C216.438 981.95 276.761 1056.89 351.174 1056.89Z" stroke="#D3D3D3" stroke-width="2.201" stroke-miterlimit="10"/>
</g>
<mask id="mask25_1_14" style="mask-type:luminance" maskUnits="userSpaceOnUse" x="235" y="745" width="232" height="289">
<path d="M466.825 745.827H235.522V1033.18H466.825V745.827Z" fill="white"/>
</mask>
<g mask="url(#mask25_1_14)">
<path d="M270.334 789.075C314.98 733.609 387.367 733.609 432.014 789.075C476.66 844.54 476.658 934.466 432.014 989.933C387.371 1045.4 314.981 1045.4 270.334 989.934C225.686 934.469 225.688 844.541 270.334 789.075Z" stroke="#D3D3D3" stroke-width="2.201"/>
</g>
<mask id="mask26_1_14" style="mask-type:luminance" maskUnits="userSpaceOnUse" x="255" y="771" width="192" height="237">
<path d="M446.416 771.185H255.934V1007.83H446.416V771.185Z" fill="white"/>
</mask>
<g mask="url(#mask26_1_14)">
<path d="M284.768 807.007C321.442 761.442 380.906 761.444 417.582 807.006C454.257 852.569 454.257 926.441 417.582 972.004C380.907 1017.57 321.442 1017.57 284.768 972.003C248.094 926.438 248.092 852.569 284.768 807.007Z" stroke="#D3D3D3" stroke-width="2.201"/>
</g>
<mask id="mask27_1_14" style="mask-type:luminance" maskUnits="userSpaceOnUse" x="276" y="796" width="151" height="187">
<path d="M426.004 796.542H276.344V982.467H426.004V796.542Z" fill="white"/>
</mask>
<g mask="url(#mask27_1_14)">
<path d="M299.201 824.935C327.906 789.275 374.444 789.275 403.145 824.935C431.846 860.595 431.85 918.411 403.145 954.071C374.44 989.732 327.906 989.734 299.201 954.073C270.495 918.412 270.496 860.596 299.201 824.935Z" stroke="#D3D3D3" stroke-width="2.201"/>
</g>
</g>
</g>
<g opacity="0.26">
<mask id="mask28_1_14" style="mask-type:luminance" maskUnits="userSpaceOnUse" x="-222" y="627" width="808" height="1004">
<path d="M585.876 627.887H-221.272V1630.63H585.876V627.887Z" fill="white"/>
</mask>
<g mask="url(#mask28_1_14)">
<path d="M25.212 1591.23C-22.845 1565.97 -66.004 1529.83 -103.067 1483.78C-140.13 1437.73 -169.229 1384.12 -189.556 1324.41C-210.601 1262.6 -221.272 1196.94 -221.272 1129.26C-221.272 1061.57 -210.601 995.913 -189.556 934.101C-169.229 874.401 -140.131 820.779 -103.067 774.735C-66.003 728.691 -22.845 692.535 25.212 667.287C74.968 641.143 127.821 627.887 182.302 627.887C236.783 627.887 289.635 641.143 339.391 667.287C387.448 692.54 430.607 728.687 467.671 774.735C504.735 820.783 533.833 874.398 554.159 934.101C575.205 995.912 585.875 1061.57 585.875 1129.26C585.875 1196.94 575.205 1262.6 554.159 1324.41C533.833 1384.11 504.734 1437.74 467.671 1483.78C430.608 1529.82 387.448 1565.98 339.391 1591.23C289.635 1617.37 236.783 1630.63 182.302 1630.63C127.821 1630.63 74.965 1617.37 25.212 1591.23ZM-219.261 1129.26C-219.261 1404.34 -39.12 1628.13 182.303 1628.13C403.726 1628.13 583.865 1404.34 583.865 1129.26C583.865 854.178 403.724 630.384 182.302 630.384C-39.12 630.384 -219.261 854.174 -219.261 1129.26Z" fill="#6A1A25"/>
<path d="M37.4271 1555.32C-6.89594 1532.03 -46.7009 1498.69 -80.8829 1456.22C-115.065 1413.76 -141.902 1364.31 -160.649 1309.24C-180.058 1252.24 -189.899 1191.68 -189.899 1129.26C-189.899 1066.83 -180.058 1006.28 -160.649 949.27C-141.902 894.208 -115.066 844.756 -80.8829 802.291C-46.6999 759.826 -6.89594 726.485 37.4271 703.191C83.3141 679.08 132.059 666.853 182.306 666.853C232.553 666.853 281.297 679.081 327.185 703.191C371.508 726.481 411.312 759.82 445.495 802.291C479.678 844.762 506.514 894.208 525.261 949.27C544.67 1006.28 554.511 1066.83 554.511 1129.26C554.511 1191.68 544.67 1252.24 525.261 1309.24C506.514 1364.31 479.678 1413.76 445.495 1456.22C411.312 1498.69 371.508 1532.03 327.185 1555.32C281.298 1579.43 232.553 1591.66 182.306 1591.66C132.059 1591.66 83.3151 1579.43 37.4271 1555.32ZM-187.893 1129.26C-187.893 1382.85 -21.8249 1589.16 182.301 1589.16C386.427 1589.16 552.495 1382.85 552.495 1129.26C552.495 875.667 386.427 669.357 182.301 669.357C-21.8249 669.357 -187.893 875.667 -187.893 1129.26Z" fill="#6A1A25"/>
<path d="M-58.71 1428.67C-123.085 1348.69 -158.539 1242.36 -158.539 1129.26C-158.539 1016.16 -123.08 909.824 -58.71 829.849C5.66003 749.874 91.2611 705.829 182.302 705.829C273.343 705.829 358.934 749.873 423.309 829.848C487.684 909.823 523.137 1016.16 523.137 1129.26C523.137 1242.36 487.684 1348.69 423.309 1428.67C358.934 1508.64 273.343 1552.69 182.302 1552.69C91.2611 1552.69 5.67104 1508.64 -58.71 1428.67ZM-156.523 1129.26C-156.523 1361.36 -4.52296 1550.19 182.303 1550.19C369.129 1550.19 521.128 1361.36 521.128 1129.26C521.128 897.155 369.128 708.327 182.303 708.327C-4.52196 708.327 -156.523 897.155 -156.523 1129.26Z" fill="#6A1A25"/>
<path d="M-36.525 1401.11C-94.975 1328.5 -127.166 1231.95 -127.166 1129.26C-127.166 1026.56 -94.975 930.018 -36.525 857.404C21.925 784.79 99.639 744.799 182.301 744.799C264.963 744.799 342.677 784.789 401.127 857.405C459.577 930.021 491.768 1026.57 491.768 1129.26C491.768 1231.95 459.578 1328.5 401.127 1401.11C342.676 1473.73 264.963 1513.72 182.301 1513.72C99.639 1513.72 21.926 1473.73 -36.525 1401.11ZM-125.155 1129.26C-125.155 1339.87 12.769 1511.22 182.301 1511.22C351.833 1511.22 489.757 1339.87 489.757 1129.26C489.757 918.643 351.833 747.298 182.301 747.298C12.769 747.298 -125.155 918.644 -125.155 1129.26Z" fill="#6A1A25"/>
</g>
</g>
</g>
</svg>
