<svg width="29" height="29" viewBox="0 0 29 29" fill="none" xmlns="http://www.w3.org/2000/svg">
<g clip-path="url(#clip0_179_2)">
<path d="M0.42627 14.506C0.426758 11.2513 1.55592 8.09743 3.62127 5.58185C5.68661 3.06626 8.56037 1.34458 11.7529 0.710167C14.9455 0.0757542 18.2592 0.567863 21.1295 2.10264C23.9999 3.63741 26.2493 6.11989 27.4943 9.12708C28.7394 12.1343 28.9031 15.4801 27.9576 18.5944C27.0121 21.7088 25.0158 24.399 22.309 26.2066C19.6022 28.0143 16.3523 28.8275 13.1131 28.5078C9.87386 28.188 6.84569 26.7551 4.54461 24.4531C1.90913 21.8132 0.42814 18.2361 0.42627 14.506Z" fill="white" stroke="#C5C5C5" stroke-miterlimit="10"/>
<path d="M21.8792 16.877L21.6234 15.0917C21.6113 14.993 21.5793 14.8979 21.5295 14.8119C21.4797 14.7259 21.413 14.6508 21.3335 14.5912C21.2538 14.5328 21.1643 14.4892 21.0692 14.4625C20.9716 14.438 20.8703 14.4325 20.7707 14.4462C20.5735 14.4758 20.3959 14.5818 20.2762 14.7412C20.2142 14.8193 20.1686 14.9091 20.1423 15.0052C20.1159 15.1013 20.1092 15.2018 20.1227 15.3006L20.4723 17.721C20.4994 17.9013 20.5902 18.0658 20.7282 18.1849C20.8656 18.3032 21.0413 18.3678 21.2227 18.3665H21.6234C21.824 18.3665 22.0164 18.4461 22.1582 18.588C22.3 18.7298 22.3797 18.9221 22.3797 19.1227C22.3797 19.3233 22.3 19.5156 22.1582 19.6575C22.0164 19.7993 21.824 19.879 21.6234 19.879H6.79554C6.59422 19.879 6.40107 19.7993 6.25836 19.6573C6.18805 19.5871 6.13227 19.5036 6.09422 19.4118C6.05616 19.3201 6.03666 19.2217 6.03666 19.1223C6.03666 19.0229 6.05616 18.9245 6.09422 18.8327C6.13227 18.7409 6.18805 18.6575 6.25836 18.5873C6.40115 18.4455 6.59432 18.3661 6.79554 18.3665H7.19627C7.37517 18.3656 7.54781 18.3002 7.68235 18.1823C7.82299 18.0665 7.91446 17.9017 7.93819 17.721L8.75671 11.9132C8.86104 11.1492 9.12528 10.4159 9.53225 9.76094C9.93923 9.10601 10.4798 8.54427 11.1186 8.11236C12.0568 7.49417 13.1584 7.17053 14.282 7.18303C14.9935 7.19151 15.6969 7.33622 16.354 7.60933C16.5345 7.67329 16.7324 7.6666 16.9081 7.59058C17.084 7.51537 17.2245 7.37562 17.3004 7.20009C17.3771 7.02576 17.3862 6.82913 17.3259 6.64846C17.2592 6.46844 17.1288 6.31918 16.9593 6.22899C16.116 5.85736 15.2036 5.66822 14.282 5.67395C12.8653 5.67232 11.4787 6.0829 10.2914 6.85563C9.47094 7.40357 8.77639 8.11966 8.25367 8.95642C7.73265 9.79412 7.39278 10.7316 7.25601 11.7086L6.53127 16.8804C5.96599 16.9592 5.45084 17.2473 5.08771 17.6876C4.72458 18.1279 4.53986 18.6884 4.5701 19.2583C4.60252 19.8299 4.84991 20.3681 5.26268 20.7648C5.67546 21.1616 6.22306 21.3876 6.79554 21.3974H21.6234C22.1941 21.3865 22.7395 21.1599 23.1497 20.7631C23.5664 20.37 23.814 19.8305 23.8403 19.2583C23.875 18.6874 23.6919 18.1245 23.328 17.6832C22.9641 17.242 22.4464 16.9551 21.8792 16.8804V16.877Z" fill="#100DB1"/>
<path d="M14.2396 25.0294C13.6842 25.0324 13.1472 24.8313 12.7304 24.4642C12.3132 24.0981 12.0485 23.5888 11.9886 23.0369C11.9729 22.9391 11.9787 22.839 12.0056 22.7437C12.0371 22.6495 12.0831 22.5609 12.142 22.4811C12.2021 22.403 12.2776 22.338 12.3637 22.2901C12.5407 22.1926 12.749 22.1684 12.9436 22.2227C13.1339 22.2814 13.2952 22.4096 13.3954 22.5817C13.4447 22.6678 13.4739 22.764 13.4808 22.863C13.504 23.0467 13.5952 23.2149 13.7365 23.3345C13.839 23.4256 13.9646 23.4869 14.0995 23.5118C14.2343 23.5367 14.3735 23.5241 14.5017 23.4755C14.63 23.427 14.7424 23.3442 14.827 23.2362C14.9116 23.1282 14.965 22.9992 14.9814 22.863C15.0012 22.7145 15.0634 22.5748 15.1605 22.4606C15.2604 22.3474 15.3905 22.2651 15.5356 22.2236C15.6811 22.183 15.8354 22.1863 15.979 22.233C16.1198 22.2808 16.2441 22.3677 16.3372 22.4836C16.3995 22.5607 16.4458 22.6494 16.4735 22.7445C16.5005 22.8396 16.5064 22.9394 16.4906 23.0369C16.4275 23.5883 16.1627 24.0968 15.7471 24.4647C15.3316 24.8325 14.7945 25.0337 14.2396 25.0294ZM20.0974 13.2322C19.8985 13.2307 19.7084 13.1503 19.5687 13.0088C19.498 12.9393 19.4419 12.8563 19.4038 12.7648C19.3658 12.6733 19.3464 12.575 19.347 12.4759V10.2072H17.079C16.8784 10.2072 16.686 10.1275 16.5442 9.98566C16.4024 9.84384 16.3226 9.65149 16.3226 9.45092C16.3226 9.25035 16.4024 9.058 16.5442 8.91618C16.686 8.77435 16.8784 8.69468 17.079 8.69468H19.347V6.42678C19.3475 6.22746 19.4266 6.03635 19.567 5.89493C19.7075 5.75351 19.898 5.67318 20.0974 5.67139C20.2987 5.67136 20.4918 5.75106 20.6345 5.89306C20.7054 5.96263 20.7615 6.04573 20.7996 6.13741C20.8377 6.2291 20.8569 6.32751 20.8562 6.42678V8.69552H23.1244C23.3257 8.6955 23.5188 8.77521 23.6615 8.9172C23.7318 8.98736 23.7875 9.07069 23.8256 9.16242C23.8636 9.25415 23.8832 9.35247 23.8832 9.45178C23.8832 9.55108 23.8636 9.64941 23.8256 9.74113C23.7875 9.83286 23.7318 9.91619 23.6615 9.98635C23.591 10.0568 23.5073 10.1127 23.4151 10.1507C23.3229 10.1887 23.2241 10.2082 23.1244 10.208H20.8562V12.4759C20.857 12.5755 20.8378 12.6741 20.7997 12.7661C20.7616 12.8581 20.7055 12.9415 20.6345 13.0113C20.4917 13.1531 20.2986 13.2325 20.0974 13.2322Z" fill="#F80D38"/>
</g>
<defs>
<clipPath id="clip0_179_2">
<rect width="29" height="29" fill="white"/>
</clipPath>
</defs>
</svg>
