<svg width="938" height="556" viewBox="0 0 938 556" fill="none" xmlns="http://www.w3.org/2000/svg">
<mask id="mask0_35_2045" style="mask-type:luminance" maskUnits="userSpaceOnUse" x="0" y="0" width="938" height="556">
<path d="M937.827 0.159912H0.185059V555.84H937.827V0.159912Z" fill="white"/>
</mask>
<g mask="url(#mask0_35_2045)">
<path d="M927.989 313.535C925.031 308.095 902.504 263.822 902.504 263.822C902.311 264.252 902.179 264.706 902.11 265.173C905.21 272.273 925.342 313.103 925.519 313.015C926.355 313.123 927.18 313.297 927.988 313.535" fill="#1D3B4C"/>
<path d="M794.608 409.805H786.061V534.803H794.608V409.805Z" fill="#1D3B4C"/>
<path d="M833.532 540.376H748.603C746.724 540.376 744.923 541.122 743.595 542.451C742.266 543.779 741.52 545.58 741.52 547.459C741.52 547.788 741.651 548.103 741.883 548.335C742.115 548.567 742.43 548.698 742.759 548.698H839.376C839.705 548.698 840.02 548.567 840.252 548.335C840.485 548.103 840.615 547.788 840.615 547.459C840.615 545.58 839.869 543.779 838.541 542.451C837.212 541.122 835.411 540.376 833.532 540.376Z" fill="#1D3B4C"/>
<path d="M795.276 534.803H784.876C783.398 534.803 781.981 535.39 780.936 536.435C779.89 537.48 779.303 538.898 779.303 540.376C779.303 541.854 779.89 543.272 780.936 544.317C781.981 545.362 783.398 545.949 784.876 545.949H795.276C796.754 545.949 798.172 545.362 799.217 544.317C800.262 543.272 800.849 541.854 800.849 540.376C800.849 538.898 800.262 537.48 799.217 536.435C798.172 535.39 796.754 534.803 795.276 534.803Z" fill="#1D3B4C"/>
<path d="M735.311 395.417L741.155 371.091C743.176 362.782 747.841 355.354 754.448 349.925C761.056 344.497 769.248 341.361 777.791 340.991L851.805 337.999L854.089 330.464L777.489 333.564C767.33 334.004 757.589 337.733 749.731 344.188C741.874 350.642 736.326 359.475 733.922 369.355L727.713 395.204C729.813 395.293 732.38 395.364 735.313 395.418" fill="#1D3B4C"/>
<path d="M834.588 382.46C834.588 382.46 732.9 384.2 722.299 382.46C711.698 380.72 707.109 394.011 710.274 400.973C713.439 407.935 722.141 410.625 734.957 411.258C747.773 411.891 854.419 414.897 857.426 412.05C859.881 409.724 892.212 299.195 903.975 258.775C905.086 254.906 904.624 250.756 902.69 247.227C900.755 243.697 897.504 241.075 893.646 239.931C889.787 238.787 885.633 239.214 882.087 241.118C878.541 243.023 875.892 246.251 874.715 250.1L834.588 382.46Z" fill="#F7F7F7"/>
<path d="M377.636 326.451H700.43C702.347 326.451 704.186 325.689 705.541 324.334C706.897 322.978 707.658 321.14 707.658 319.223C707.658 317.306 706.897 315.467 705.541 314.112C704.186 312.756 702.347 311.995 700.43 311.995H377.636C375.719 311.995 373.881 312.756 372.525 314.112C371.17 315.467 370.408 317.306 370.408 319.223C370.408 321.14 371.17 322.978 372.525 324.334C373.881 325.689 375.719 326.451 377.636 326.451Z" fill="#1D3B4C"/>
<path d="M702.515 548.336H712.803L690.636 326.449H680.347L702.515 548.336Z" fill="#1D3B4C"/>
<path d="M615.094 548.336H604.805L626.972 326.449H637.261L615.094 548.336Z" fill="#1D3B4C"/>
<path d="M462.177 548.336H472.465L450.298 326.452H440.009L462.177 548.336Z" fill="#1D3B4C"/>
<path d="M374.756 548.336H364.468L386.635 326.452H396.924L374.756 548.336Z" fill="#1D3B4C"/>
<path d="M527.019 249.621H600.64C601.592 249.621 602.523 249.904 603.314 250.435C604.104 250.965 604.72 251.719 605.081 252.6L627.749 307.888H668.337C668.882 307.888 669.404 308.104 669.789 308.489C670.174 308.874 670.39 309.397 670.39 309.941C670.39 310.486 670.174 311.008 669.789 311.393C669.404 311.779 668.882 311.995 668.337 311.995H552.819C551.264 311.995 549.743 311.545 548.437 310.701C547.132 309.856 546.099 308.652 545.462 307.234L522.637 256.387C522.309 255.656 522.169 254.854 522.23 254.055C522.291 253.256 522.551 252.485 522.986 251.813C523.422 251.14 524.018 250.587 524.722 250.204C525.426 249.821 526.215 249.621 527.016 249.621" fill="#726DFF"/>
<path d="M566.659 281.815C566.911 282.551 567.37 283.2 567.981 283.682C568.592 284.164 569.329 284.461 570.104 284.535C570.878 284.61 571.658 284.46 572.35 284.102C573.042 283.745 573.616 283.196 574.004 282.522C574.392 281.847 574.577 281.074 574.537 280.297C574.498 279.519 574.235 278.77 573.78 278.138C573.326 277.506 572.699 277.018 571.975 276.733C571.25 276.448 570.459 276.378 569.696 276.531C568.596 276.834 567.659 277.559 567.091 278.548C566.522 279.538 566.367 280.712 566.659 281.815Z" fill="#F7F7F7"/>
<path d="M847.073 287.882C863.48 260.465 876.932 242.909 880.411 242.135C872.236 248.073 849.831 286.864 849.831 286.864L847.073 287.882Z" fill="#1D3B4C"/>
<path d="M840.218 282.662L933.587 313.104C935.136 313.609 936.421 314.708 937.159 316.16C937.897 317.612 938.028 319.298 937.523 320.847L929.21 346.347C928.705 347.895 927.605 349.18 926.153 349.918C924.701 350.656 923.016 350.787 921.467 350.282L828.098 319.84C827.331 319.59 826.621 319.191 826.008 318.667C825.395 318.142 824.891 317.502 824.526 316.783C824.16 316.064 823.94 315.28 823.878 314.476C823.815 313.672 823.912 312.863 824.162 312.096L832.475 286.596C832.725 285.829 833.124 285.119 833.648 284.506C834.173 283.893 834.813 283.39 835.532 283.025C836.251 282.659 837.035 282.439 837.839 282.377C838.644 282.314 839.452 282.411 840.219 282.661" fill="#726DFF"/>
<path d="M844.657 305.758L844.757 305.792L850.757 298.652L854.318 299.815L854.136 300.375L843.379 312.469L841.804 311.955L840.204 295.822L840.386 295.263L843.948 296.426L844.657 305.758Z" fill="#F7F7F7"/>
<path d="M859.592 315.565L853.876 313.697L852.433 315.242L848.807 314.058L848.983 313.519L860.127 301.506L861.727 302.027L863.649 318.309L863.473 318.848L859.849 317.665L859.592 315.565ZM859 307.624L856.14 310.907L859.411 311.976L859 307.624Z" fill="#F7F7F7"/>
<path d="M876.737 306.953C879.737 307.934 882.457 310.632 881.752 314.687L878.106 313.496C878.118 312.765 877.879 312.052 877.429 311.475C876.979 310.899 876.346 310.494 875.634 310.328C873.46 309.618 871.496 310.787 870.711 313.189C870.512 313.679 870.413 314.205 870.421 314.735C870.429 315.264 870.543 315.787 870.757 316.271C870.97 316.756 871.279 317.192 871.665 317.555C872.051 317.918 872.505 318.2 873.002 318.384C873.713 318.679 874.505 318.711 875.238 318.476C875.97 318.241 876.595 317.753 877.002 317.1L880.647 318.291C878.768 322.215 874.989 322.768 871.904 321.76C870.921 321.451 870.009 320.95 869.221 320.286C868.434 319.623 867.785 318.809 867.314 317.893C866.842 316.977 866.558 315.977 866.475 314.95C866.393 313.923 866.516 312.89 866.836 311.911C867.156 310.931 867.667 310.025 868.339 309.245C869.012 308.464 869.832 307.825 870.753 307.364C871.675 306.903 872.678 306.629 873.706 306.559C874.734 306.488 875.765 306.622 876.741 306.953" fill="#F7F7F7"/>
<path d="M890.631 325.705L884.914 323.837L883.469 325.381L879.845 324.198L880.022 323.658L891.166 311.645L892.766 312.166L894.688 328.448L894.512 328.986L890.888 327.802L890.631 325.705ZM890.039 317.764L887.179 321.048L890.451 322.116L890.039 317.764Z" fill="#F7F7F7"/>
<path d="M902.58 323.741L900.253 330.864L896.422 329.613L901.178 315.055L902.524 315.494L907.515 325.054L909.836 317.954L913.625 319.192L908.882 333.71L907.557 333.277L902.58 323.741Z" fill="#F7F7F7"/>
<path d="M914.809 323.247L915.892 319.933L926.66 323.451L925.578 326.765L922.037 325.608L918.384 336.791L914.718 335.591L918.372 324.408L914.809 323.247Z" fill="#F7F7F7"/>
<path d="M920.974 555.842H3.95707C2.95654 555.842 1.99699 555.444 1.28951 554.737C0.582029 554.029 0.18457 553.07 0.18457 552.069C0.18457 551.069 0.582029 550.109 1.28951 549.402C1.99699 548.694 2.95654 548.297 3.95707 548.297H920.974C921.975 548.297 922.934 548.694 923.642 549.402C924.349 550.109 924.747 551.069 924.747 552.069C924.747 553.07 924.349 554.029 923.642 554.737C922.934 555.444 921.975 555.842 920.974 555.842Z" fill="#1A3141"/>
<path d="M146.281 290.407C147.869 286.401 148.834 282.256 147.342 278.207C144.977 271.784 140.442 271.246 133.602 268.695C127.725 266.505 123.379 266.328 119.923 268.137C116.575 269.889 114.6 273.13 112.665 277.458L118.485 280.058C121.38 273.585 123.124 271.592 131.377 274.667C137.525 276.959 140.652 278.848 141.518 280.795C142.155 282.227 141.807 284.395 140.356 288.061L146.281 290.407Z" fill="#1A3141"/>
<path d="M504.211 9.35798C506.6 9.11623 508.971 8.72581 511.311 8.18898C513.94 7.47786 516.645 7.08933 519.368 7.03198C523.624 7.30798 530.599 9.29398 533.568 14.392C537.268 20.743 546.862 18.331 539.01 45.578C530.122 76.418 513.49 69.139 513.186 68.517C512.882 67.895 502.098 45.079 502.098 45.079C502.098 45.079 494.27 55.452 494.364 55.028C494.458 54.604 475.527 12.444 504.211 9.35798Z" fill="#FF7C48"/>
<path d="M392.552 96.5778C392.664 94.5478 401.883 96.6778 403.083 95.0688C404.283 93.4598 392.983 88.6428 393.231 86.8978C393.679 83.6848 405.931 91.4178 406.231 89.9528C406.531 88.4878 394.296 79.8908 396.715 78.1608C399.134 76.4308 408.473 88.3988 409.494 86.9708C410.515 85.5428 399.809 76.6228 401.458 73.2468C402.34 71.4468 417.825 90.8098 420.567 90.7618C423.309 90.7138 422.067 80.0128 424.457 79.4848C426.847 78.9568 424.326 100.143 425.342 101.305C426.358 102.467 447.081 129.105 455.71 135.546C458.21 132.799 473.69 119.146 475.982 116.516C479.805 122.598 485.734 126.027 489.871 131.84C481.644 140.311 457.45 159.54 454.106 159.651C443.924 159.989 422.086 118.771 417.406 111.328C412.726 103.885 408.294 103.841 404.425 100.503C400.556 97.1648 392.446 98.6088 392.559 96.5798" fill="#F48C7F"/>
<path d="M484.084 141.608C484.084 141.608 513.128 121.755 519.584 109.851C526.04 97.9469 502.334 81.0509 491.512 86.2019C479.512 91.9139 464.095 121.045 464.095 121.045L484.084 141.608Z" fill="#1A3141"/>
<path d="M471.109 513.194C471.109 513.194 472.134 531.649 472.14 531.686C472.517 534.029 474.002 539.818 474.002 541.948C474.002 549.948 439.05 535.155 446.883 531.61C447.592 531.289 451.307 528.861 451.539 526.138C451.899 521.938 452.81 513.453 452.81 513.453L471.109 513.194Z" fill="#F7A491"/>
<path d="M446.956 531.734C446.956 531.734 455.176 535.695 459.379 536.307C463.582 536.919 469.123 531.766 472.095 533.158C475.367 534.69 475.037 549.775 475.037 549.775C475.037 549.775 431.237 552.405 418.86 548.343C413.96 546.734 430.18 537.435 446.96 531.734" fill="white"/>
<path d="M548.114 514.965C548.114 514.965 549.139 533.42 549.146 533.457C549.523 535.8 551.007 541.589 551.007 543.719C551.007 551.719 516.055 536.927 523.888 533.381C524.597 533.06 529.413 528.82 529.646 526.097C530.005 521.897 529.816 515.224 529.816 515.224L548.114 514.965Z" fill="#F7A491"/>
<path d="M523.975 533.304C528.056 534.536 532.198 535.557 536.384 536.363C540.584 536.975 546.128 531.822 549.1 533.214C552.372 534.746 552.5 548.535 552.5 548.535C552.5 548.535 505.671 551.993 494.66 548.746C489.713 547.287 507.195 539.004 523.972 533.303" fill="white"/>
<path d="M492.725 248.568L477.948 255.061L446.865 406.261L448.124 519.613L473.042 520.203C473.042 520.203 484.631 421.049 484.631 413.365C484.631 405.681 538.314 278.894 538.314 278.894L492.725 248.568Z" fill="#3E38F5"/>
<path d="M504.131 256.888C504.131 256.888 515.018 373.388 515.018 393.022C515.018 412.656 523.84 522.568 523.84 522.568L548.818 522.42C548.818 522.42 550.618 488.92 553.297 439.635C553.717 431.916 552.757 416.342 553.297 408.351C557.183 350.878 561.63 254.101 559.468 251.822C543.111 234.585 504.128 256.888 504.128 256.888" fill="#3E38F5"/>
<path d="M528.544 82.1198C528.544 82.1198 548.12 84.1969 552.93 87.1899C558.347 90.5609 561.167 104.611 561.167 104.611C561.167 104.611 558.075 177.692 559.503 194.776C560.608 207.994 561.403 278.337 561.403 278.337C561.403 278.337 493.845 279.72 468.882 272.089C468.882 272.089 477.15 224.747 476.282 214.613C475.414 204.479 476.616 111.548 478.139 104.934C479.52 98.9339 482.058 88.1459 493.478 84.5589C504.898 80.9719 528.542 82.1189 528.542 82.1189" fill="#1D3B4C"/>
<path d="M523.301 62.2249L529.651 86.3249C529.651 86.3249 518.07 100.825 508.587 99.0959C500.63 97.6429 501.759 87.4179 501.759 87.4179C501.759 87.4179 504.81 73.2179 502.944 66.3969C501.078 59.5759 523.301 62.2249 523.301 62.2249Z" fill="#F7A491"/>
<path d="M502.944 66.3959C501.079 59.5789 523.301 62.2249 523.301 62.2249L523.827 64.2249C523.368 65.5487 522.664 66.7744 521.752 67.8379C517.268 72.8379 509.881 76.2469 503.308 77.0209C503.647 73.2299 503.708 69.1909 502.944 66.3959Z" fill="#F47458"/>
<path d="M141.682 506.271C141.682 506.271 135.29 512.508 135.145 514.797C135 517.086 134.579 541.608 137.187 543.897C139.795 546.186 147.461 547.809 144.998 550.384C143.135 552.33 128.807 551.914 119.311 551.391C116.539 551.238 113.062 529.122 111.965 525.87C110.371 521.149 106.493 510.515 107.943 507.224C108.65 505.624 112.028 502.324 116.791 499.25C121.8 496.015 126.591 488.813 126.591 488.813L141.682 506.271Z" fill="#F48C7F"/>
<path d="M207.897 520.794C207.897 520.794 202.177 536.953 202.17 536.994C201.745 539.554 200.07 545.88 200.07 548.207C200.07 556.95 239.501 540.785 230.664 536.907C228.714 535.414 227.43 533.212 227.091 530.779C226.686 526.194 230.413 520.444 230.413 520.444L207.897 520.794Z" fill="#F7A491"/>
<path d="M269.75 219.885C269.75 219.885 272.624 248.854 272.624 249.285C272.624 296.146 281.914 387.68 280.147 396.485C275.837 417.974 229.454 527.594 229.454 527.594L204.385 524.594L237.053 393.347L225.032 340.52L208.023 236.111L269.75 219.885Z" fill="#726DFF"/>
<path d="M185.619 245.512L180.862 272.969L167.992 385.969L118.979 496.405C118.979 496.405 125.872 512.475 136.044 514.732L214.051 401.345L262.509 256.256L260.809 224.023L185.619 245.512Z" fill="#726DFF"/>
<path d="M117.101 499.094C117.101 499.094 131.833 540.574 137.601 542.576C139.132 543.108 146.48 544.456 147.865 547.706C148.283 548.685 147.865 551.955 147.865 551.955H117.157C117.157 551.955 113.273 533.679 111.738 525.649C111.738 525.649 103.609 506.029 104.513 504.249C105.417 502.469 117.101 499.098 117.101 499.098" fill="white"/>
<path d="M197.827 551.092L202.343 536.828C202.343 536.828 211.826 540.839 216.567 540.171C221.287 539.291 225.959 538.175 230.567 536.828C249.492 543.058 264.997 546.081 262.177 551.092H197.827Z" fill="white"/>
<path d="M393.274 144.433L390.687 145.993C389.71 146.843 388.653 147.594 387.529 148.237C386.882 148.389 369.207 148 369.207 148C369.207 148 369.144 153.88 369.258 153.88C369.372 153.88 378.552 161.36 378.552 161.36L380.51 162.26L392.551 158.66L403.545 157.282C403.545 157.282 411.345 156.382 411.345 156.182C411.345 155.982 411.116 149.829 410.812 149.525C410.508 149.221 406.095 144.694 406.095 144.694C406.095 144.694 402.709 143.933 402.595 143.933C402.481 143.933 399.207 143.286 399.095 143.248C398.983 143.21 393.847 144.009 393.847 144.009L393.274 144.433Z" fill="#F48C7F"/>
<path d="M419.408 157.786C417.548 158.017 415.713 158.424 413.93 159.003C412.03 159.764 396.964 171.176 396.964 171.176C396.964 171.176 394.948 172.276 393.883 171.404C393.584 171.184 393.339 170.899 393.167 170.569C392.996 170.24 392.902 169.875 392.894 169.504C392.894 169.504 391.106 170.493 389.889 169.804C389.465 169.586 389.13 169.227 388.943 168.789C388.755 168.351 388.727 167.861 388.862 167.404C388.399 167.54 387.912 167.576 387.433 167.51C386.954 167.445 386.495 167.279 386.085 167.024C385.058 166.149 385.591 163.905 385.591 163.905C385.591 163.905 382.357 165.883 381.102 164.551C379.847 163.219 380.379 161.812 381.634 160.751C382.889 159.69 390.345 154.741 391.221 154.17C392.097 153.599 394.568 150.97 395.329 150.632C396.09 150.294 397.954 149.262 397.954 149.262C397.954 149.262 401.074 149.605 401.264 149.719C401.454 149.833 402.329 152.002 403.888 152.572C404.462 152.764 405.072 152.822 405.672 152.743C406.272 152.664 406.846 152.449 407.35 152.115C407.444 151.729 407.457 151.327 407.389 150.936C407.312 150.48 406.171 148.806 405.905 147.474C405.639 146.142 405.296 145.762 404.805 145.458C404.314 145.154 401.605 144.358 400.278 143.822C398.951 143.286 393.354 144.849 393.354 144.849L390.691 145.99C390.691 145.99 391.185 144.018 392.86 143.711C394.535 143.404 396.626 142.947 397.805 142.832C398.984 142.717 401.723 143.555 402.978 143.632C404.679 143.687 406.366 143.956 407.999 144.432C409.407 144.965 417.928 144.432 418.461 144.356C418.461 144.356 422.151 154.356 419.412 157.784" fill="#F8A492"/>
<path d="M416.496 144.45C420.081 144.369 461.471 144.019 477.02 143.889C480.816 143.857 484.495 142.567 487.478 140.219L522.066 113.003L543.054 135.015L500.806 164.215C497.934 166.289 481.813 168.088 478.289 167.732C461.958 166.079 420.438 157.76 416.28 158.332L416.496 144.45Z" fill="#F8A492"/>
<path d="M385.227 148.249C381.642 148.169 338.041 147.536 322.492 147.406C318.695 147.374 315.017 146.083 312.034 143.735L277.446 116.52L262.3 133.975L305.238 164.992C308.108 167.067 311.639 168.016 315.163 167.659C331.494 166.007 376.226 161.631 380.383 162.198L385.227 148.249Z" fill="#F48C7F"/>
<path d="M497.539 127.116C497.539 127.116 526.492 96.6599 536.966 88.9729C547.44 81.2859 560.72 87.773 561.39 101.064C562.366 120.428 523.977 155.082 523.977 155.082L497.539 127.116Z" fill="#1A3141"/>
<path d="M294.628 127.116C294.628 127.116 265.675 96.6599 255.201 88.9729C244.727 81.2859 223.662 87.819 225.332 101.022C227.032 114.49 274.337 148.58 274.337 148.58L294.628 127.116Z" fill="#858585"/>
<path d="M261.025 116.097C261.7 120.765 280.375 269.965 280.375 269.965C225.413 288.382 176.351 270.673 176.351 270.673C176.351 270.673 184.909 163.573 182.607 151.455C181.083 143.437 182.507 89.3889 187.699 87.8979C193.984 85.8791 200.462 84.5214 207.028 83.8469C214.141 83.1079 241.775 82.6809 246.719 84.3409C254.38 93.3706 259.338 104.377 261.026 116.098" fill="#858585"/>
<path d="M214.832 57.8088L210.513 84.2178C210.513 84.2178 226.324 117.818 235.773 114.993C243.701 112.619 238.824 83.7588 238.824 83.7588C238.824 83.7588 234.503 68.2588 235.799 60.5028C237.095 52.7468 214.833 57.8098 214.833 57.8098" fill="#F7A491"/>
<path d="M235.798 60.5018C237.098 52.7458 214.832 57.8088 214.832 57.8088L214.473 60.0808C215.04 61.4891 215.858 62.7828 216.887 63.8988C222.124 69.0011 229.05 72.0067 236.353 72.3468C235.68 68.1648 235.268 63.6818 235.799 60.5018" fill="#F47458"/>
<path d="M211.178 19.0539C210.55 18.8349 206.135 50.2539 214.512 58.8999C222.889 67.5459 239.212 70.3739 245.064 63.5649C251.539 56.0339 251.214 22.2649 238.19 13.3719C225.166 4.47887 211.178 19.0539 211.178 19.0539Z" fill="#F7A491"/>
<path d="M214.249 6.94788C209.679 7.46588 203.466 9.88788 197.049 20.0749C189.161 32.6009 194.986 46.4749 204.169 53.2879C213.352 60.1009 213.187 67.8939 213.187 67.8939L214.675 63.8939C215.767 60.8249 216.16 57.551 215.825 54.3109C215.651 52.3218 215.148 50.3752 214.339 48.5499C212.131 44.0029 219.083 40.9819 221.033 37.1989C222.533 34.2859 222.606 27.6219 224.972 22.8069L227.796 19.1309C227.796 19.1309 234.312 14.2679 240.687 15.6399C247.062 17.0119 239.237 -12.8181 214.249 6.94788Z" fill="#1D3B4C"/>
<path d="M220.607 42.7898C220.673 46.6228 218.857 49.7618 216.549 49.7988C214.241 49.8358 212.316 46.7598 212.249 42.9268C212.182 39.0938 214 35.9548 216.307 35.9178C218.614 35.8808 220.54 38.9568 220.607 42.7898Z" fill="#F7A491"/>
<path d="M245.231 50.0169L231.391 51.4249C231.391 51.4249 232.245 56.6489 238.349 56.2049C245.792 55.6639 245.231 50.0169 245.231 50.0169Z" fill="#F7F7F7"/>
<path d="M125.256 257.111C125.217 256.825 125.212 256.535 125.241 256.248C126.155 246.967 133.861 169.033 135.159 165.72C136.33 162.729 170.891 113.3 170.891 113.3L187.878 136.443L154.641 180.778C153.896 183.595 141.904 236.204 141.904 236.204C141.904 236.204 139.447 245.794 138.345 251.538C138.845 252.922 139.345 254.229 139.777 255.301C140.779 257.331 141.978 259.258 143.357 261.055C145.042 263.394 146.466 265.911 147.602 268.561C147.954 269.915 148.588 272.727 148.947 274.425C149.306 276.123 149.799 278.1 149.881 279.025C150.112 279.898 150.474 280.73 150.955 281.494C151.102 281.754 151.166 282.052 151.141 282.35C151.115 282.647 151 282.93 150.811 283.161C150.622 283.393 150.367 283.561 150.081 283.645C149.794 283.729 149.489 283.725 149.205 283.633C147.997 283.233 147.057 281.669 146.477 280.695C144.842 277.945 143.969 272.926 143.563 273.195C143.157 273.464 141.151 280.716 140.603 281.539C140.368 281.878 140.038 282.139 139.654 282.291C139.27 282.443 138.85 282.477 138.447 282.391C138.044 282.304 137.675 282.1 137.387 281.804C137.1 281.509 136.906 281.134 136.831 280.729C136.707 280.076 136.394 280.112 136.093 280.363C135.8 280.633 135.45 280.833 135.07 280.95C134.689 281.066 134.287 281.096 133.893 281.037C132.018 280.812 132.349 278.904 131.68 279.2C131.32 279.415 130.912 279.534 130.493 279.547C130.074 279.56 129.659 279.465 129.286 279.273C128.914 279.081 128.597 278.796 128.365 278.447C128.134 278.098 127.995 277.696 127.962 277.278C127.983 276.909 127.818 276.699 127.427 276.769C126.152 276.999 124.127 277.231 124.098 272.941C124.069 268.651 126.062 263.829 125.469 258.72C125.432 258.399 125.327 257.612 125.261 257.12" fill="#F8A492"/>
<path d="M143.89 144.606L173.412 164.427C173.412 164.427 190.051 139.667 198.982 130.853C210.171 119.809 194.907 85.9819 187.698 87.8959C171.573 92.1769 143.89 144.606 143.89 144.606Z" fill="#858585"/>
<path d="M516.442 20.8739C514.363 20.0672 512.133 19.7258 509.908 19.8737C507.683 20.0216 505.518 20.6553 503.564 21.73C501.61 22.8048 499.916 24.2946 498.6 26.0947C497.284 27.8947 496.378 29.9612 495.947 32.1489C494.999 36.9737 494.36 41.8539 494.032 46.7599C493.172 60.1019 499.461 73.4079 505.505 73.6809C511.549 73.9539 528.655 66.0599 530.136 47.1359C531.051 35.4499 525.718 24.5549 516.441 20.8749" fill="#F7A491"/>
<path d="M525.613 48.4339C525.477 51.3789 527.313 53.8559 529.713 53.9639C532.113 54.0719 534.171 51.7719 534.307 48.8269C534.443 45.8819 532.607 43.4059 530.207 43.2969C527.807 43.1879 525.749 45.4889 525.612 48.4339" fill="#F7A491"/>
<path d="M530.208 43.2968C530.208 43.2968 522.785 43.4888 521.174 38.3858C519.563 33.2828 512.386 21.4508 499.621 22.8758C486.856 24.3008 512.244 15.3398 513.194 15.5498C514.144 15.7598 525.556 18.2008 525.556 18.2008C525.556 18.2008 532.742 27.3688 532.882 28.2328C533.022 29.0968 533.641 38.3108 533.641 38.3108L530.208 43.2968Z" fill="#FF7C48"/>
<path d="M513.156 59.333L499.811 58.949C499.811 58.949 499.966 64.042 505.83 64.381C512.98 64.794 513.156 59.333 513.156 59.333Z" fill="#F7F7F7"/>
<path d="M127.481 351.94C122.021 362.424 131.688 370.185 131.688 370.185C142.763 375.371 151.263 375.371 151.263 375.371C168.624 333.399 174.202 305.664 174.028 303.984C173.854 302.304 169.868 299.559 168.028 300.084C147.812 316.034 127.476 351.934 127.476 351.934" fill="#1A3141"/>
<path d="M168.032 300.089C121.492 283.598 87.691 267.261 87.691 267.261C60.391 299.461 50.209 328.561 50.209 328.561C79.584 348.283 131.687 370.183 131.687 370.183C132.459 359.631 168.032 300.083 168.032 300.083" fill="#1D3B4C"/>
<path d="M174.028 303.985C165.836 297.914 142.828 336.985 142.828 336.985C114.959 327.371 88.4368 314.227 63.9082 297.873C77.0622 273.196 84.8792 267.858 88.9262 265.936C94.9472 265.936 116.347 277.681 131.902 284.328C153.309 293.476 175.145 300.277 174.023 303.984" fill="#1A3141"/>
<path d="M110.96 319.223C109.892 322.166 108.482 324.974 106.76 327.589C102.596 325.689 98.5547 323.53 94.6602 321.125C95.7497 318.334 97.1713 315.685 98.8942 313.235C103.094 314.851 107.133 316.856 110.96 319.223Z" fill="#F7F7F7"/>
</g>
</svg>
