<svg width="716" height="650" viewBox="0 0 716 650" fill="none" xmlns="http://www.w3.org/2000/svg">
<mask id="mask0_27_447" style="mask-type:luminance" maskUnits="userSpaceOnUse" x="0" y="0" width="716" height="650">
<path d="M715.126 0.105957H0V649.894H715.126V0.105957Z" fill="white"/>
</mask>
<g mask="url(#mask0_27_447)">
<path d="M579.56 285.418H570.671V599.52H579.56V285.418Z" fill="#33226C"/>
<path d="M145.696 285.418H136.806V599.52H145.696V285.418Z" fill="#33226C"/>
<mask id="mask1_27_447" style="mask-type:luminance" maskUnits="userSpaceOnUse" x="0" y="0" width="716" height="650">
<path d="M715.125 0.106934H0V649.895H715.125V0.106934Z" fill="white"/>
</mask>
<g mask="url(#mask1_27_447)">
<path d="M355.093 561.656C355.093 561.656 342.993 593.556 350.693 597.686C358.393 601.816 430.178 597.686 430.178 597.686C430.178 597.686 436.504 585.218 417.251 580.586C397.998 575.954 389.197 564.405 389.197 564.405L355.093 561.656Z" fill="#FFB300"/>
<path d="M230.11 561.656C230.11 561.656 218.01 593.556 225.71 597.686C233.41 601.816 305.196 597.686 305.196 597.686C305.196 597.686 311.522 585.218 292.269 580.586C273.016 575.954 264.215 564.405 264.215 564.405L230.11 561.656Z" fill="#FFB300"/>
<path d="M712.644 292.233H2.481C1.823 292.233 1.19195 291.972 0.726668 291.506C0.26139 291.041 0 290.41 0 289.752L0 286.812C0 286.154 0.26139 285.523 0.726668 285.058C1.19195 284.592 1.823 284.331 2.481 284.331H712.644C713.302 284.331 713.933 284.592 714.398 285.058C714.864 285.523 715.125 286.154 715.125 286.812V289.752C715.125 290.41 714.864 291.041 714.398 291.506C713.933 291.972 713.302 292.233 712.644 292.233Z" fill="#33226C"/>
<g style="mix-blend-mode:color-dodge" opacity="0.51">
<mask id="mask2_27_447" style="mask-type:luminance" maskUnits="userSpaceOnUse" x="0" y="284" width="716" height="6">
<path d="M715.126 284.331H0V289.01H715.126V284.331Z" fill="white"/>
</mask>
<g mask="url(#mask2_27_447)">
<path d="M712.644 284.331H2.481C1.823 284.331 1.19195 284.592 0.726668 285.058C0.26139 285.523 2.0155e-07 286.154 2.0155e-07 286.812V289.012C-0.000131154 288.686 0.0639449 288.363 0.188568 288.062C0.313191 287.761 0.495919 287.488 0.726315 287.257C0.95671 287.027 1.23026 286.844 1.53133 286.719C1.83241 286.594 2.15511 286.53 2.481 286.53H712.644C712.97 286.53 713.293 286.594 713.594 286.719C713.895 286.844 714.168 287.027 714.399 287.257C714.629 287.488 714.812 287.761 714.936 288.062C715.061 288.363 715.125 288.686 715.125 289.012V286.812C715.125 286.154 714.864 285.523 714.398 285.058C713.933 284.592 713.302 284.331 712.644 284.331Z" fill="#33226C"/>
</g>
</g>
<path d="M692.66 285.418H683.771V599.52H692.66V285.418Z" fill="#33226C"/>
<path d="M468.057 189.607C468.057 189.607 489.92 226.232 489.92 249.663C489.92 262.956 474.445 277.641 474.445 277.641L387.556 277.516C387.556 277.516 438.296 263.303 425.52 232.134C412.744 200.965 404.842 189.606 404.842 189.606L468.057 189.607Z" fill="#362478"/>
<path d="M307.533 343.002C307.533 343.002 403.005 349.621 437.573 379.911C448.434 396.374 454.361 397.691 392.462 564.948C392.462 564.948 368.098 576.801 351.635 561.656C370.735 493.831 379.951 426.665 379.951 426.665C379.951 426.665 307.516 434.565 290.395 425.348C273.274 416.131 277.259 360.749 307.533 343.002Z" fill="#31236C"/>
<path d="M182.615 343.002C182.615 343.002 278.087 349.621 312.655 379.911C323.516 396.374 329.443 397.691 267.544 564.948C267.544 564.948 243.18 576.801 226.718 561.656C245.818 493.831 255.033 426.665 255.033 426.665C255.033 426.665 203.841 429.105 186.522 420.265C155.562 404.465 152.342 360.749 182.616 343.004" fill="#31236C"/>
<g style="mix-blend-mode:multiply" opacity="0.3">
<mask id="mask3_27_447" style="mask-type:luminance" maskUnits="userSpaceOnUse" x="161" y="343" width="159" height="227">
<path d="M319.552 343.002H161.528V569.361H319.552V343.002Z" fill="white"/>
</mask>
<g mask="url(#mask3_27_447)">
<path d="M182.615 343.002C182.615 343.002 278.087 349.621 312.655 379.911C323.516 396.374 329.443 397.691 267.544 564.948C267.544 564.948 243.18 576.801 226.718 561.656C245.818 493.831 255.033 426.665 255.033 426.665C255.033 426.665 203.841 429.105 186.522 420.265C155.562 404.465 152.342 360.749 182.616 343.004" fill="#31236C"/>
</g>
</g>
<path d="M32.5961 285.418H23.7061V599.52H32.5961V285.418Z" fill="#33226C"/>
<path d="M426.065 247.852C426.065 247.852 444.265 241.133 453.374 246.566C463.581 252.657 468.19 260.899 470.66 274.223C472.636 284.887 458.313 267.309 455.35 265.992C452.387 264.675 446.139 277.516 437.574 274.223C429.009 270.93 424.73 249.663 424.73 249.663" fill="#FBB1A6"/>
<path d="M691.036 196.249H616.876L579.561 284.158H653.721L691.036 196.249Z" fill="#F1F2F2"/>
<g style="mix-blend-mode:color-dodge" opacity="0.46">
<mask id="mask4_27_447" style="mask-type:luminance" maskUnits="userSpaceOnUse" x="586" y="196" width="79" height="77">
<path d="M664.626 196.247H586.757V272.926H664.626V196.247Z" fill="white"/>
</mask>
<g mask="url(#mask4_27_447)">
<path d="M662.215 196.249H616.855L586.755 267.149C593.996 270.941 602.048 272.923 610.221 272.924C640.267 272.924 664.621 246.424 664.621 213.735C664.631 207.823 663.821 201.939 662.215 196.249Z" fill="#F1F2F2"/>
</g>
</g>
<path d="M691.036 196.249L703.273 284.158H653.721L691.036 196.249Z" fill="#D1D3D4"/>
<path d="M667.249 230.707H614.816C614.444 230.697 614.091 230.543 613.831 230.276C613.572 230.01 613.427 229.652 613.427 229.28C613.427 228.909 613.572 228.551 613.831 228.285C614.091 228.018 614.444 227.864 614.816 227.854H667.249C667.621 227.864 667.974 228.018 668.234 228.285C668.493 228.551 668.638 228.909 668.638 229.28C668.638 229.652 668.493 230.01 668.234 230.276C667.974 230.543 667.621 230.697 667.249 230.707Z" fill="#D1D3D4"/>
<path d="M663.22 240.201H610.787C610.415 240.191 610.062 240.036 609.802 239.77C609.543 239.504 609.398 239.146 609.398 238.774C609.398 238.402 609.543 238.045 609.802 237.779C610.062 237.512 610.415 237.358 610.787 237.348H663.22C663.592 237.358 663.945 237.512 664.204 237.779C664.464 238.045 664.609 238.402 664.609 238.774C664.609 239.146 664.464 239.504 664.204 239.77C663.945 240.036 663.592 240.191 663.22 240.201Z" fill="#D1D3D4"/>
<path d="M659.19 249.694H606.757C606.385 249.684 606.032 249.53 605.772 249.263C605.513 248.997 605.368 248.639 605.368 248.268C605.368 247.896 605.513 247.538 605.772 247.272C606.032 247.005 606.385 246.851 606.757 246.841H659.19C659.562 246.851 659.915 247.005 660.174 247.272C660.434 247.538 660.579 247.896 660.579 248.268C660.579 248.639 660.434 248.997 660.174 249.263C659.915 249.53 659.562 249.684 659.19 249.694Z" fill="#D1D3D4"/>
<path d="M636.134 257.729H603.346C602.974 257.719 602.621 257.565 602.361 257.298C602.102 257.032 601.957 256.674 601.957 256.303C601.957 255.931 602.102 255.573 602.361 255.307C602.621 255.04 602.974 254.886 603.346 254.876H636.134C636.325 254.871 636.514 254.904 636.692 254.974C636.869 255.043 637.031 255.147 637.167 255.28C637.304 255.413 637.412 255.572 637.486 255.748C637.561 255.923 637.599 256.112 637.599 256.303C637.599 256.493 637.561 256.682 637.486 256.857C637.412 257.033 637.304 257.192 637.167 257.325C637.031 257.458 636.869 257.562 636.692 257.631C636.514 257.701 636.325 257.734 636.134 257.729Z" fill="#D1D3D4"/>
<path d="M647.776 276.583H614.988C614.61 276.583 614.247 276.433 613.979 276.165C613.711 275.897 613.561 275.534 613.561 275.156C613.561 274.778 613.711 274.415 613.979 274.147C614.247 273.879 614.61 273.729 614.988 273.729H647.776C648.155 273.729 648.518 273.879 648.785 274.147C649.053 274.415 649.203 274.778 649.203 275.156C649.203 275.534 649.053 275.897 648.785 276.165C648.518 276.433 648.155 276.583 647.776 276.583Z" fill="#D1D3D4"/>
<path d="M628.587 206.215L622.842 219.749H619.71L625.455 206.215H628.587Z" fill="#D1D3D4"/>
<path d="M632.283 206.215L631.2 208.767H636.881L627.366 219.748H630.766L640.676 208.248L641.538 206.218L632.283 206.215Z" fill="#D1D3D4"/>
<path d="M96.96 238.124C96.9924 237.517 96.9009 236.91 96.6911 236.34C96.4813 235.77 96.1575 235.248 95.7395 234.807C95.3215 234.367 94.8181 234.015 94.2599 233.776C93.7017 233.536 93.1005 233.412 92.4929 233.412H43.5999C42.9925 233.412 42.3914 233.536 41.8333 233.776C41.2753 234.016 40.7719 234.367 40.3541 234.808C39.9362 235.249 39.6125 235.77 39.4027 236.34C39.1929 236.91 39.1015 237.517 39.134 238.124C39.634 247.557 42.203 269.155 55.051 284.331H81.0449C93.8919 269.155 96.465 247.557 96.962 238.124" fill="#FFB300"/>
</g>
<mask id="mask5_27_447" style="mask-type:luminance" maskUnits="userSpaceOnUse" x="38" y="131" width="32" height="103">
<path d="M60.295 233.412H68.047C68.047 233.412 79.508 173.954 39.127 131.732C34.168 201.468 60.295 233.412 60.295 233.412Z" fill="white"/>
</mask>
<g mask="url(#mask5_27_447)">
<path d="M76.6305 120.68L9.38196 138.183L37.0443 244.464L104.293 226.961L76.6305 120.68Z" fill="#726DFF"/>
</g>
<mask id="mask6_27_447" style="mask-type:luminance" maskUnits="userSpaceOnUse" x="0" y="0" width="716" height="650">
<path d="M715.125 0.106934H0V649.895H715.125V0.106934Z" fill="white"/>
</mask>
<g mask="url(#mask6_27_447)">
<g style="mix-blend-mode:multiply" opacity="0.19">
<mask id="mask7_27_447" style="mask-type:luminance" maskUnits="userSpaceOnUse" x="39" y="131" width="31" height="103">
<path d="M69.549 131.73H39.111V233.412H69.549V131.73Z" fill="white"/>
</mask>
<g mask="url(#mask7_27_447)">
<mask id="mask8_27_447" style="mask-type:luminance" maskUnits="userSpaceOnUse" x="39" y="131" width="31" height="103">
<path d="M39.127 131.732C39.121 131.814 39.117 131.894 39.111 131.976C70.723 171.976 61.845 221.592 59.441 232.27C59.985 233.033 60.295 233.411 60.295 233.411H68.047C68.047 233.411 79.508 173.953 39.127 131.731" fill="white"/>
</mask>
<g mask="url(#mask8_27_447)">
<path d="M76.9604 121.877L14.3259 138.183L41.6871 243.284L104.322 226.979L76.9604 121.877Z" fill="url(#paint0_linear_27_447)"/>
</g>
</g>
</g>
</g>
<mask id="mask9_27_447" style="mask-type:luminance" maskUnits="userSpaceOnUse" x="63" y="97" width="28" height="137">
<path d="M68.0469 233.412H72.972C72.972 233.412 99.5909 161.461 87.2569 97.418C87.2569 97.418 50.2559 137.9 68.0469 233.412Z" fill="white"/>
</mask>
<g mask="url(#mask9_27_447)">
<path d="M99.5735 96.4775L47.667 97.4678L50.2786 234.354L102.185 233.364L99.5735 96.4775Z" fill="#726DFF"/>
</g>
<mask id="mask10_27_447" style="mask-type:luminance" maskUnits="userSpaceOnUse" x="72" y="150" width="42" height="84">
<path d="M72.9719 233.412H76.8649C76.8649 233.412 116.828 193.035 113.665 150.761C113.665 150.761 82.8819 173.321 72.9719 233.412Z" fill="white"/>
</mask>
<g mask="url(#mask10_27_447)">
<path d="M77.8025 137.031L47.095 224.307L111.997 247.142L142.704 159.866L77.8025 137.031Z" fill="#726DFF"/>
</g>
<mask id="mask11_27_447" style="mask-type:luminance" maskUnits="userSpaceOnUse" x="0" y="0" width="716" height="650">
<path d="M715.125 0.106934H0V649.895H715.125V0.106934Z" fill="white"/>
</mask>
<g mask="url(#mask11_27_447)">
<g style="mix-blend-mode:multiply" opacity="0.52">
<mask id="mask12_27_447" style="mask-type:luminance" maskUnits="userSpaceOnUse" x="39" y="237" width="50" height="48">
<path d="M88.2921 237.054H39.1281V284.33H88.2921V237.054Z" fill="white"/>
</mask>
<g mask="url(#mask12_27_447)">
<path d="M72.9721 284.332H81.0441C83.889 280.931 86.321 277.205 88.2891 273.232C58.6161 270.821 55.6691 249.456 55.7161 240.738C55.7176 240.254 55.6235 239.775 55.4392 239.329C55.255 238.882 54.9842 238.476 54.6425 238.134C54.3009 237.792 53.895 237.52 53.4482 237.336C53.0014 237.151 52.5225 237.057 52.0391 237.058H39.2101C39.1419 237.41 39.1164 237.769 39.1341 238.127C39.6341 247.56 42.2031 269.158 55.0511 284.334H72.9731L72.9721 284.332Z" fill="#FFB300"/>
</g>
</g>
<path d="M251.071 194.729L278.424 0.10498H619.989L592.637 194.729H251.071Z" fill="#9A80A9"/>
</g>
<mask id="mask13_27_447" style="mask-type:luminance" maskUnits="userSpaceOnUse" x="256" y="5" width="359" height="185">
<path d="M282.825 5.229L256.912 189.607H588.234L614.147 5.229H282.825Z" fill="white"/>
</mask>
<g mask="url(#mask13_27_447)">
<path d="M609.532 -35.1154L236.091 7.61108L261.529 229.949L634.97 187.222L609.532 -35.1154Z" fill="#6AD0FB"/>
</g>
<mask id="mask14_27_447" style="mask-type:luminance" maskUnits="userSpaceOnUse" x="0" y="0" width="716" height="650">
<path d="M715.125 0.106934H0V649.895H715.125V0.106934Z" fill="white"/>
</mask>
<g mask="url(#mask14_27_447)">
<path d="M309.212 71.3851C309.212 71.3851 310.939 81.2331 306.96 94.7231C304.857 101.669 305.307 109.138 308.229 115.781L308.295 115.926C308.717 116.85 308.782 117.897 308.479 118.866C308.176 119.835 307.525 120.658 306.652 121.177C306.154 121.47 305.639 121.732 305.109 121.962C304.283 122.316 303.551 122.86 302.975 123.549C302.399 124.239 301.994 125.056 301.794 125.932L299.4 136.704L281.181 133.192L276.133 92.8041L291.278 64.7041L309.212 71.3851Z" fill="#FBB1A6"/>
<path d="M271.937 135.29C271.937 135.29 265.868 142.525 264.879 157.012L222.185 154.373L228.278 134.728L255.825 81.939L271.937 80.293C271.937 80.293 276.524 101.711 271.937 135.286" fill="#FBB1A6"/>
<g style="mix-blend-mode:color-dodge" opacity="0.1">
<mask id="mask15_27_447" style="mask-type:luminance" maskUnits="userSpaceOnUse" x="266" y="5" width="306" height="164">
<path d="M571.063 5.22998H266.729V168.224H571.063V5.22998Z" fill="white"/>
</mask>
<g mask="url(#mask15_27_447)">
<mask id="mask16_27_447" style="mask-type:luminance" maskUnits="userSpaceOnUse" x="266" y="5" width="306" height="164">
<path d="M266.729 122.541C297.415 150.246 346.808 168.222 402.516 168.222C495.601 168.222 571.061 118.035 571.061 56.1219C571.061 37.7969 564.448 20.4989 552.725 5.22192H283.216L266.729 122.541Z" fill="white"/>
</mask>
<g mask="url(#mask16_27_447)">
<path d="M571.061 5.229H266.729V168.222H571.061V5.229Z" fill="url(#paint1_linear_27_447)"/>
</g>
</g>
</g>
</g>
<mask id="mask17_27_447" style="mask-type:luminance" maskUnits="userSpaceOnUse" x="205" y="34" width="115" height="114">
<path d="M220.376 52.42C208.523 56.151 204.791 68.004 205.45 77.004C206.109 86.004 209.006 95.832 220.816 112.124C229.486 124.087 228.279 134.732 228.279 134.732C245.179 137.147 265.594 119.587 260.765 109.49C255.936 99.393 254.18 86.443 264.935 85.784C275.69 85.125 273.276 112.784 271.301 129.464C270.024 140.248 281.313 145.07 289.456 147.131C290.46 147.383 291.506 147.423 292.527 147.25C293.548 147.078 294.522 146.695 295.387 146.127C296.253 145.559 296.991 144.818 297.556 143.95C298.121 143.082 298.499 142.107 298.668 141.085L299.397 136.707C299.397 136.707 294.129 135.829 285.349 131.22C276.569 126.611 280.081 95.22 282.496 85.783C284.642 77.394 290.256 71.606 301.651 72.735C304.083 72.9781 306.536 72.5905 308.775 71.6096C311.013 70.6287 312.961 69.0877 314.431 67.135C321.593 57.572 319.152 43.199 319.152 43.199C319.152 43.199 313.082 45.974 304.179 44.587C302.407 44.2953 300.665 43.849 298.971 43.253C281.031 37.11 266.864 34.76 255.78 34.76C232.568 34.76 222.88 45.067 220.38 52.418" fill="white"/>
</mask>
<g mask="url(#mask17_27_447)">
<path d="M305.132 -5.92097L165.251 50.8159L221.294 188.984L361.174 132.247L305.132 -5.92097Z" fill="url(#paint2_linear_27_447)"/>
</g>
<mask id="mask18_27_447" style="mask-type:luminance" maskUnits="userSpaceOnUse" x="370" y="277" width="146" height="8">
<path d="M515.204 277.641H370.768V284.33H515.204V277.641Z" fill="white"/>
</mask>
<g mask="url(#mask18_27_447)">
<path d="M492.586 225.15L368.337 278.689L393.386 336.821L517.635 283.282L492.586 225.15Z" fill="#726DFF"/>
</g>
<mask id="mask19_27_447" style="mask-type:luminance" maskUnits="userSpaceOnUse" x="0" y="0" width="716" height="650">
<path d="M715.125 0.106934H0V649.895H715.125V0.106934Z" fill="white"/>
</mask>
<g mask="url(#mask19_27_447)">
<g style="mix-blend-mode:multiply" opacity="0.44">
<mask id="mask20_27_447" style="mask-type:luminance" maskUnits="userSpaceOnUse" x="370" y="279" width="146" height="6">
<path d="M515.202 279.981H370.768V284.331H515.202V279.981Z" fill="white"/>
</mask>
<g mask="url(#mask20_27_447)">
<mask id="mask21_27_447" style="mask-type:luminance" maskUnits="userSpaceOnUse" x="370" y="279" width="146" height="6">
<path d="M515.203 279.981H370.768V284.331H515.203V279.981Z" fill="white"/>
</mask>
<g mask="url(#mask21_27_447)">
<path d="M492.586 227.49L369.187 280.662L393.386 336.821L516.784 283.649L492.586 227.49Z" fill="#726DFF"/>
</g>
</g>
</g>
<g style="mix-blend-mode:multiply" opacity="0.3">
<mask id="mask22_27_447" style="mask-type:luminance" maskUnits="userSpaceOnUse" x="353" y="423" width="51" height="147">
<path d="M403.484 423.021H353.633V569.306H403.484V423.021Z" fill="white"/>
</mask>
<g mask="url(#mask22_27_447)">
<path d="M370.555 569.307C385.796 518.879 403.484 423.022 403.484 423.022L379.951 426.666C374.14 466.104 366.292 505.215 356.44 543.843C355.421 550.19 354.434 556.876 353.633 563.331C358.528 567.009 364.435 569.095 370.555 569.307Z" fill="#31236C"/>
</g>
</g>
</g>
<mask id="mask23_27_447" style="mask-type:luminance" maskUnits="userSpaceOnUse" x="303" y="426" width="81" height="196">
<path d="M315.479 426.344L306.956 429.166C306.335 429.372 305.762 429.702 305.272 430.136C304.781 430.57 304.384 431.098 304.104 431.69C303.823 432.281 303.666 432.924 303.64 433.578C303.615 434.232 303.722 434.884 303.956 435.496L373.933 618.786C374.383 619.971 375.28 620.932 376.431 621.464C377.581 621.996 378.894 622.056 380.089 621.631C381.283 621.206 382.263 620.33 382.82 619.191C383.376 618.052 383.463 616.74 383.064 615.537L321.605 429.425C321.406 428.82 321.089 428.26 320.673 427.777C320.257 427.295 319.75 426.899 319.181 426.613C318.612 426.327 317.992 426.155 317.357 426.109C316.722 426.063 316.084 426.143 315.479 426.344Z" fill="white"/>
</mask>
<g mask="url(#mask23_27_447)">
<path d="M303.892 416.966L281.053 619.662L383.026 631.152L405.865 428.456L303.892 416.966Z" fill="#362478"/>
</g>
<mask id="mask24_27_447" style="mask-type:luminance" maskUnits="userSpaceOnUse" x="200" y="423" width="58" height="203">
<path d="M238.739 426.928L200.708 619.197C200.457 620.441 200.704 621.735 201.396 622.799C202.088 623.863 203.17 624.613 204.409 624.888C205.648 625.164 206.946 624.941 208.023 624.27C209.101 623.598 209.871 622.531 210.17 621.297L257.008 430.775C257.164 430.139 257.19 429.478 257.084 428.832C256.978 428.185 256.742 427.567 256.39 427.015C256.039 426.462 255.579 425.987 255.038 425.617C254.498 425.247 253.888 424.991 253.246 424.863L244.44 423.113C243.815 422.988 243.172 422.987 242.547 423.112C241.922 423.236 241.328 423.482 240.798 423.836C240.269 424.191 239.814 424.646 239.461 425.176C239.108 425.707 238.863 426.302 238.74 426.927" fill="white"/>
</mask>
<g mask="url(#mask24_27_447)">
<path d="M200.84 416.587L177.536 622.429L256.938 631.418L280.241 425.576L200.84 416.587Z" fill="#362478"/>
</g>
<mask id="mask25_27_447" style="mask-type:luminance" maskUnits="userSpaceOnUse" x="123" y="425" width="79" height="223">
<path d="M181.384 429.11L123.491 640.879C123.141 642.239 123.332 643.682 124.023 644.905C124.715 646.127 125.853 647.034 127.199 647.435C128.545 647.837 129.994 647.701 131.242 647.056C132.489 646.412 133.439 645.309 133.891 643.979L201.482 434.87C201.708 434.172 201.79 433.436 201.723 432.705C201.656 431.975 201.442 431.265 201.093 430.62C200.745 429.974 200.269 429.406 199.695 428.95C199.12 428.493 198.459 428.158 197.752 427.964L188.052 425.304C187.364 425.114 186.646 425.063 185.938 425.151C185.231 425.24 184.547 425.467 183.927 425.82C183.307 426.173 182.763 426.645 182.326 427.208C181.889 427.772 181.567 428.416 181.379 429.104" fill="white"/>
</mask>
<g mask="url(#mask25_27_447)">
<path d="M123.6 416.186L97.686 645.087L201.426 656.832L227.34 427.931L123.6 416.186Z" fill="#362478"/>
</g>
<mask id="mask26_27_447" style="mask-type:luminance" maskUnits="userSpaceOnUse" x="0" y="0" width="716" height="650">
<path d="M715.125 0.106934H0V649.895H715.125V0.106934Z" fill="white"/>
</mask>
<g mask="url(#mask26_27_447)">
<g style="mix-blend-mode:multiply" opacity="0.26">
<mask id="mask27_27_447" style="mask-type:luminance" maskUnits="userSpaceOnUse" x="254" y="128" width="19" height="30">
<path d="M272.811 128.015H254.597V157.01H272.811V128.015Z" fill="white"/>
</mask>
<g mask="url(#mask27_27_447)">
<path d="M254.597 156.377L264.88 157.011C265.868 142.524 271.937 135.289 271.937 135.289C272.278 132.796 272.569 130.372 272.812 128.017C267.692 130.899 263.356 134.99 260.181 139.934C257.006 144.877 255.089 150.522 254.598 156.377" fill="#FBB1A6"/>
</g>
</g>
</g>
<mask id="mask28_27_447" style="mask-type:luminance" maskUnits="userSpaceOnUse" x="125" y="156" width="81" height="144">
<path d="M151.453 207.745C125.772 259.107 126.771 263.933 126.771 263.933C126.771 263.933 113.261 317.05 192.28 292.686L205.38 156.049C205.38 156.049 177.137 156.379 151.456 207.741" fill="white"/>
</mask>
<g mask="url(#mask28_27_447)">
<path d="M136.707 115.929L43.131 276.078L181.932 357.18L275.508 197.032L136.707 115.929Z" fill="#3E38F5"/>
</g>
<mask id="mask29_27_447" style="mask-type:luminance" maskUnits="userSpaceOnUse" x="0" y="0" width="716" height="650">
<path d="M715.125 0.106934H0V649.895H715.125V0.106934Z" fill="white"/>
</mask>
<g mask="url(#mask29_27_447)">
<g style="mix-blend-mode:multiply" opacity="0.33">
<mask id="mask30_27_447" style="mask-type:luminance" maskUnits="userSpaceOnUse" x="147" y="186" width="55" height="114">
<path d="M201.792 186.634H147.697V299.082H201.792V186.634Z" fill="white"/>
</mask>
<g mask="url(#mask30_27_447)">
<mask id="mask31_27_447" style="mask-type:luminance" maskUnits="userSpaceOnUse" x="147" y="186" width="55" height="114">
<path d="M201.792 207.735C198.314 195.101 195.462 186.635 195.462 186.635C195.462 186.635 126.27 259.766 154.442 298.954C163.933 299.584 176.647 297.931 193.648 292.689L201.792 207.735Z" fill="white"/>
</mask>
<g mask="url(#mask31_27_447)">
<path d="M201.792 186.636H126.27V299.585H201.792V186.636Z" fill="url(#paint3_linear_27_447)"/>
</g>
</g>
</g>
</g>
<mask id="mask32_27_447" style="mask-type:luminance" maskUnits="userSpaceOnUse" x="162" y="152" width="276" height="242">
<path d="M171.209 205.41C161.99 240.31 162.649 268.625 162.649 268.625C162.649 268.625 163.308 310.111 162.639 381.886C223.868 415.469 320.029 366.086 306.201 336.45C293.674 309.607 298.742 255.361 300.107 243.932C305.158 245.616 321.259 291.398 343.407 297.932C362.388 303.532 387.197 293.981 437.242 276.201C439.542 262.701 429.342 247.227 423.414 246.901C418.965 246.653 386.871 248.337 371.144 249.192C368.546 249.334 365.96 248.758 363.667 247.529C361.374 246.3 359.464 244.464 358.144 242.222C346.737 222.843 316.428 172.009 309.589 167.222C301.121 161.296 305.546 157.345 244.315 153.212C239.266 152.872 234.621 152.705 230.333 152.705C182.609 152.705 179.672 173.393 171.213 205.415" fill="white"/>
</mask>
<g mask="url(#mask32_27_447)">
<path d="M117.926 407.861L169.975 106.283L483.425 160.381L431.376 461.959L117.926 407.861Z" fill="#3E38F5"/>
</g>
<mask id="mask33_27_447" style="mask-type:luminance" maskUnits="userSpaceOnUse" x="0" y="0" width="716" height="650">
<path d="M715.125 0.106934H0V649.895H715.125V0.106934Z" fill="white"/>
</mask>
<g mask="url(#mask33_27_447)">
<g style="mix-blend-mode:multiply" opacity="0.33">
<mask id="mask34_27_447" style="mask-type:luminance" maskUnits="userSpaceOnUse" x="248" y="211" width="190" height="170">
<path d="M437.052 211.328H248.004V380.667H437.052V211.328Z" fill="white"/>
</mask>
<g mask="url(#mask34_27_447)">
<mask id="mask35_27_447" style="mask-type:luminance" maskUnits="userSpaceOnUse" x="247" y="211" width="191" height="170">
<path d="M435.066 261.619C429.004 265.406 364.94 304.177 338.136 268.756C309.987 231.556 298.285 193.356 273.975 220.5C249.665 247.644 247.5 322.04 248.075 325.056C248.465 327.085 260.051 359.603 267.592 380.667C294.492 368.676 312.152 350.459 305.673 336.577C293.146 309.734 298.214 255.487 299.579 244.059C304.63 245.743 320.731 291.525 342.879 298.059C361.861 303.659 386.669 294.108 436.714 276.328C437.427 271.365 436.858 266.303 435.061 261.623" fill="white"/>
</mask>
<g mask="url(#mask35_27_447)">
<path d="M299.257 108.75L164.118 329.658L385.802 465.272L520.941 244.364L299.257 108.75Z" fill="url(#paint4_linear_27_447)"/>
</g>
</g>
</g>
<path d="M141.572 354.889C141.572 354.889 132.353 260.724 212.031 260.724C299.031 260.724 286.441 349.624 309.581 383.204C319.275 404.138 335.788 420.721 351.612 428.961C367.436 437.201 254.447 474.136 193.593 439.506C143.547 411.026 141.572 354.889 141.572 354.889Z" fill="#362478"/>
</g>
<mask id="mask36_27_447" style="mask-type:luminance" maskUnits="userSpaceOnUse" x="157" y="260" width="197" height="184">
<path d="M157.877 286.197C167.177 280.897 178.915 277.64 193.729 277.64C280.729 277.64 268.138 366.54 291.278 400.12C300.186 419.355 314.851 434.911 329.447 443.703C347.393 438.125 357.398 431.818 351.911 428.96C336.087 420.72 319.573 404.137 309.879 383.203C286.739 349.62 299.328 260.723 212.33 260.723C185.103 260.723 168.258 271.723 157.877 286.196" fill="white"/>
</mask>
<g mask="url(#mask36_27_447)">
<path d="M357.398 260.724H157.877V443.703H357.398V260.724Z" fill="url(#paint5_linear_27_447)"/>
</g>
<mask id="mask37_27_447" style="mask-type:luminance" maskUnits="userSpaceOnUse" x="262" y="424" width="63" height="226">
<path d="M270.615 424.731C269.244 425.003 267.943 425.55 266.79 426.339C265.637 427.129 264.655 428.143 263.905 429.322C263.155 430.501 262.651 431.82 262.425 433.199C262.198 434.577 262.253 435.988 262.587 437.345L313.829 645.761C314.167 647.14 315.031 648.331 316.236 649.081C317.442 649.83 318.893 650.078 320.278 649.77C321.664 649.463 322.875 648.626 323.65 647.437C324.426 646.248 324.706 644.803 324.429 643.411L282.779 432.869C282.516 431.535 281.993 430.266 281.24 429.135C280.486 428.004 279.517 427.033 278.387 426.277C277.257 425.521 275.99 424.995 274.656 424.73C273.323 424.465 271.951 424.466 270.618 424.732" fill="white"/>
</mask>
<g mask="url(#mask37_27_447)">
<path d="M261.876 417.308L235.99 647.043L324.313 656.995L350.199 427.26L261.876 417.308Z" fill="#362478"/>
</g>
<mask id="mask38_27_447" style="mask-type:luminance" maskUnits="userSpaceOnUse" x="0" y="0" width="716" height="650">
<path d="M715.125 0.106934H0V649.895H715.125V0.106934Z" fill="white"/>
</mask>
<g mask="url(#mask38_27_447)">
<path d="M664.507 218.375H653.72L658.299 207.588H669.085L664.507 218.375Z" fill="#FFB300"/>
<g style="mix-blend-mode:multiply" opacity="0.1">
<mask id="mask39_27_447" style="mask-type:luminance" maskUnits="userSpaceOnUse" x="219" y="91" width="81" height="57">
<path d="M299.396 91.8049H219.779V147.229H299.396V91.8049Z" fill="white"/>
</mask>
<g mask="url(#mask39_27_447)">
<mask id="mask40_27_447" style="mask-type:luminance" maskUnits="userSpaceOnUse" x="271" y="91" width="29" height="57">
<path d="M298.766 140.489L299.396 136.708C299.396 136.708 294.128 135.83 285.348 131.22C277.973 127.348 279.271 104.584 281.306 91.803C278.051 92.4325 274.986 93.8051 272.349 95.814C273.849 105.24 272.496 119.363 271.3 129.464C270.058 139.951 280.7 144.8 288.776 146.955C289.859 147.241 290.99 147.297 292.096 147.121C293.202 146.944 294.259 146.539 295.2 145.93C296.14 145.321 296.943 144.523 297.557 143.586C298.171 142.649 298.582 141.594 298.765 140.489" fill="white"/>
</mask>
<g mask="url(#mask40_27_447)">
<path d="M299.115 88.9455L264.567 92.344L270.34 151.035L304.888 147.636L299.115 88.9455Z" fill="url(#paint6_linear_27_447)"/>
</g>
<mask id="mask41_27_447" style="mask-type:luminance" maskUnits="userSpaceOnUse" x="219" y="107" width="43" height="28">
<path d="M219.779 110.678C220.117 111.155 220.462 111.637 220.815 112.125C229.485 124.087 228.278 134.733 228.278 134.733C245.178 137.148 265.593 119.588 260.764 109.491C260.385 108.698 260.027 107.891 259.691 107.066C246.331 116.616 231.941 115.337 219.779 110.678Z" fill="white"/>
</mask>
<g mask="url(#mask41_27_447)">
<path d="M265.155 102.602L216.849 107.354L220.219 141.61L268.525 136.859L265.155 102.602Z" fill="url(#paint7_linear_27_447)"/>
</g>
</g>
</g>
<path d="M452.311 64.956C451.04 73.997 442.681 81.327 433.639 81.327C424.597 81.327 418.298 73.997 419.569 64.956C420.84 55.915 429.199 48.585 438.241 48.585C447.283 48.585 453.582 55.914 452.311 64.956Z" fill="#F1F2F2"/>
<path d="M460.294 103.799H398.738C398.427 103.799 398.119 103.732 397.836 103.603C397.553 103.474 397.3 103.286 397.096 103.051C396.892 102.816 396.74 102.54 396.652 102.242C396.563 101.943 396.54 101.629 396.583 101.321L396.868 99.291C396.941 98.7714 397.199 98.2958 397.595 97.9516C397.991 97.6074 398.498 97.4179 399.023 97.418H460.577C460.888 97.418 461.196 97.4847 461.479 97.6138C461.763 97.7428 462.015 97.9312 462.219 98.166C462.423 98.4009 462.575 98.6769 462.663 98.9753C462.752 99.2738 462.775 99.5877 462.732 99.896L462.447 101.926C462.374 102.446 462.116 102.921 461.72 103.265C461.324 103.61 460.817 103.799 460.292 103.799" fill="#F1F2F2"/>
<path d="M458.198 118.809H396.642C396.331 118.809 396.023 118.742 395.74 118.613C395.457 118.484 395.204 118.296 395 118.061C394.796 117.826 394.644 117.55 394.556 117.252C394.467 116.953 394.444 116.639 394.487 116.331L394.772 114.301C394.845 113.781 395.103 113.306 395.499 112.962C395.895 112.617 396.402 112.428 396.927 112.428H458.483C458.794 112.428 459.102 112.495 459.385 112.624C459.668 112.753 459.921 112.941 460.125 113.176C460.329 113.411 460.48 113.687 460.569 113.985C460.657 114.284 460.681 114.598 460.637 114.906L460.352 116.936C460.279 117.456 460.021 117.931 459.625 118.275C459.229 118.62 458.723 118.809 458.198 118.809Z" fill="#F1F2F2"/>
<path d="M431.798 142.514H415.485C415.174 142.514 414.866 142.448 414.583 142.319C414.299 142.19 414.047 142.001 413.843 141.766C413.638 141.531 413.487 141.255 413.398 140.957C413.31 140.658 413.287 140.344 413.33 140.036L413.615 138.006C413.688 137.487 413.946 137.011 414.342 136.667C414.738 136.323 415.245 136.133 415.77 136.133H432.085C432.396 136.133 432.704 136.2 432.987 136.329C433.27 136.458 433.523 136.646 433.727 136.881C433.931 137.116 434.082 137.392 434.171 137.69C434.259 137.989 434.282 138.303 434.239 138.611L433.954 140.641C433.881 141.161 433.623 141.636 433.227 141.98C432.831 142.325 432.325 142.514 431.8 142.514" fill="#FFB300"/>
</g>
</g>
<defs>
<linearGradient id="paint0_linear_27_447" x1="119.65" y1="649.89" x2="120.089" y2="649.776" gradientUnits="userSpaceOnUse">
<stop stop-color="#6AD0FB"/>
<stop offset="0.227" stop-color="#69CDF9"/>
<stop offset="0.387" stop-color="#69C3F5"/>
<stop offset="0.526" stop-color="#68B4ED"/>
<stop offset="0.654" stop-color="#679EE3"/>
<stop offset="0.773" stop-color="#6682D6"/>
<stop offset="0.885" stop-color="#645FC5"/>
<stop offset="0.992" stop-color="#6337B2"/>
<stop offset="0.995" stop-color="#6336B2"/>
<stop offset="1" stop-color="#6336B2"/>
</linearGradient>
<linearGradient id="paint1_linear_27_447" x1="0.134171" y1="649.866" x2="0.438503" y2="649.866" gradientUnits="userSpaceOnUse">
<stop stop-color="#6AD0FB"/>
<stop offset="0.227" stop-color="#69CDF9"/>
<stop offset="0.387" stop-color="#69C3F5"/>
<stop offset="0.526" stop-color="#68B4ED"/>
<stop offset="0.654" stop-color="#679EE3"/>
<stop offset="0.773" stop-color="#6682D6"/>
<stop offset="0.885" stop-color="#645FC5"/>
<stop offset="0.992" stop-color="#6337B2"/>
<stop offset="0.995" stop-color="#6336B2"/>
<stop offset="1" stop-color="#6336B2"/>
</linearGradient>
<linearGradient id="paint2_linear_27_447" x1="229.252" y1="708.198" x2="229.672" y2="708.028" gradientUnits="userSpaceOnUse">
<stop stop-color="#43295D"/>
<stop offset="1" stop-color="#774B88"/>
</linearGradient>
<linearGradient id="paint3_linear_27_447" x1="-0.00276131" y1="649.84" x2="0.450371" y2="649.84" gradientUnits="userSpaceOnUse">
<stop stop-color="#9A72F6"/>
<stop offset="1" stop-color="#724CE4"/>
</linearGradient>
<linearGradient id="paint4_linear_27_447" x1="473.211" y1="768.589" x2="473.482" y2="768.147" gradientUnits="userSpaceOnUse">
<stop stop-color="#9A72F6"/>
<stop offset="1" stop-color="#724CE4"/>
</linearGradient>
<linearGradient id="paint5_linear_27_447" x1="0.0558452" y1="649.92" x2="0.454887" y2="649.92" gradientUnits="userSpaceOnUse">
<stop stop-color="#533AA9"/>
<stop offset="1" stop-color="#2F2070"/>
</linearGradient>
<linearGradient id="paint6_linear_27_447" x1="53.2359" y1="675.2" x2="53.6851" y2="675.156" gradientUnits="userSpaceOnUse">
<stop stop-color="#43295D"/>
<stop offset="1" stop-color="#774B88"/>
</linearGradient>
<linearGradient id="paint7_linear_27_447" x1="52.8262" y1="671.122" x2="53.3093" y2="671.075" gradientUnits="userSpaceOnUse">
<stop stop-color="#43295D"/>
<stop offset="1" stop-color="#774B88"/>
</linearGradient>
</defs>
</svg>
