<svg width="17" height="15" viewBox="0 0 17 15" fill="none" xmlns="http://www.w3.org/2000/svg">
<path d="M11.6968 14.6783H5.32277C5.2401 14.6897 5.15595 14.6833 5.07598 14.6595C4.99601 14.6356 4.92208 14.5949 4.85917 14.5401C4.79625 14.4853 4.74581 14.4176 4.71125 14.3417C4.67669 14.2657 4.6588 14.1832 4.6588 14.0998C4.6588 14.0163 4.67669 13.9339 4.71125 13.8579C4.74581 13.782 4.79625 13.7143 4.85917 13.6595C4.92208 13.6047 4.99601 13.564 5.07598 13.5401C5.15595 13.5163 5.2401 13.5099 5.32277 13.5213H11.6978C11.7804 13.5099 11.8646 13.5163 11.9445 13.5401C12.0245 13.564 12.0985 13.6047 12.1614 13.6595C12.2243 13.7143 12.2747 13.782 12.3093 13.8579C12.3438 13.9339 12.3617 14.0163 12.3617 14.0998C12.3617 14.1832 12.3438 14.2657 12.3093 14.3417C12.2747 14.4176 12.2243 14.4853 12.1614 14.5401C12.0985 14.5949 12.0245 14.6356 11.9445 14.6595C11.8646 14.6833 11.7794 14.6897 11.6968 14.6783ZM13.0248 12.3633H3.99277C3.00596 12.4255 2.0344 12.0962 1.28878 11.4468C0.543159 10.7974 0.0836007 9.8803 0.00976563 8.89429L0.00976562 4.14929C0.0836048 3.16293 0.543234 2.24543 1.28901 1.59569C2.03478 0.945943 3.00659 0.616324 3.99377 0.678288H10.5688C10.7333 0.668098 10.8953 0.723149 11.0196 0.831519C11.1439 0.93989 11.2205 1.09286 11.2328 1.25729C11.2205 1.42172 11.1439 1.57469 11.0196 1.68306C10.8953 1.79143 10.7333 1.84648 10.5688 1.83629H3.99377C3.33581 1.79497 2.68808 2.01458 2.19092 2.44753C1.69377 2.88048 1.38724 3.4919 1.33777 4.14929V8.89429C1.38572 9.55208 1.69167 10.1643 2.18896 10.5975C2.68626 11.0308 3.3346 11.2499 3.99277 11.2073H13.0248C13.6829 11.2486 14.3308 11.0289 14.8279 10.5957C15.3251 10.1625 15.6315 9.55086 15.6808 8.89329V6.29329C15.7024 6.13254 15.7817 5.98511 15.9038 5.87835C16.0259 5.77159 16.1826 5.71275 16.3448 5.71275C16.507 5.71275 16.6637 5.77159 16.7858 5.87835C16.9079 5.98511 16.9871 6.13254 17.0088 6.29329V8.89329C16.9352 9.87956 16.4758 10.7971 15.7301 11.4468C14.9845 12.0966 14.0128 12.4262 13.0258 12.3643L13.0248 12.3633Z" fill="#100DB1"/>
</svg>
