<svg width="15" height="15" viewBox="0 0 15 15" fill="none" xmlns="http://www.w3.org/2000/svg">
<path d="M5.95838 10.8367C6.91733 10.8367 7.85476 10.5523 8.65213 10.0196C9.4495 9.48688 10.071 8.72969 10.4381 7.84377C10.8051 6.95785 10.9013 5.98298 10.7143 5.04242C10.5274 4.10186 10.0658 3.23784 9.38784 2.55962C8.7099 1.8814 7.84608 1.41942 6.90559 1.23209C5.96511 1.04476 4.9902 1.14051 4.10413 1.50721C3.21806 1.87391 2.46061 2.49511 1.92755 3.29226C1.3945 4.08941 1.10977 5.02672 1.10938 5.98567C1.10911 6.62262 1.23434 7.25338 1.47791 7.84192C1.72148 8.43046 2.07861 8.96524 2.52891 9.41573C2.9792 9.86621 3.51384 10.2236 4.10228 10.4674C4.69072 10.7112 5.32143 10.8367 5.95838 10.8367Z" stroke="#343434" stroke-width="1.5" stroke-miterlimit="10" stroke-linecap="round" stroke-linejoin="round"/>
<path d="M9.9043 10.2119L14.1533 13.3119" stroke="#343434" stroke-width="1.5" stroke-miterlimit="10" stroke-linecap="round" stroke-linejoin="round"/>
</svg>
