<svg width="19" height="20" viewBox="0 0 19 20" fill="none" xmlns="http://www.w3.org/2000/svg">
<path d="M14.5568 19.1162H4.46277C3.28216 19.1149 2.15029 18.6453 1.31548 17.8105C0.480668 16.9757 0.011089 15.8438 0.00976563 14.6632L0.00976562 4.56921C0.011089 3.38861 0.480668 2.25674 1.31548 1.42193C2.15029 0.587113 3.28216 0.117534 4.46277 0.116211L14.5568 0.116211C15.7374 0.117534 16.8692 0.587113 17.7041 1.42193C18.5389 2.25674 19.0084 3.38861 19.0098 4.56921V14.6632C19.0084 15.8438 18.5389 16.9757 17.7041 17.8105C16.8692 18.6453 15.7374 19.1149 14.5568 19.1162ZM4.46277 1.60021C3.67558 1.60101 2.92087 1.91406 2.36424 2.47069C1.80762 3.02731 1.49456 3.78203 1.49377 4.56921V14.6632C1.49456 15.4504 1.80762 16.2051 2.36424 16.7617C2.92087 17.3184 3.67558 17.6314 4.46277 17.6322H14.5568C15.3439 17.6314 16.0987 17.3184 16.6553 16.7617C17.2119 16.2051 17.525 15.4504 17.5258 14.6632V4.56921C17.525 3.78203 17.2119 3.02731 16.6553 2.47069C16.0987 1.91406 15.3439 1.60101 14.5568 1.60021H4.46277ZM14.8908 16.1472H13.2578C13.061 16.1472 12.8722 16.069 12.7331 15.9299C12.5939 15.7907 12.5158 15.602 12.5158 15.4052C12.5158 15.2084 12.5939 15.0197 12.7331 14.8805C12.8722 14.7414 13.061 14.6632 13.2578 14.6632H14.8908C15.0876 14.6632 15.2763 14.7414 15.4154 14.8805C15.5546 15.0197 15.6328 15.2084 15.6328 15.4052C15.6328 15.602 15.5546 15.7907 15.4154 15.9299C15.2763 16.069 15.0876 16.1472 14.8908 16.1472ZM13.8908 13.2542H7.69077C7.49856 13.2472 7.31658 13.1658 7.18309 13.0274C7.0496 12.8889 6.97502 12.704 6.97502 12.5117C6.97502 12.3194 7.0496 12.1345 7.18309 11.9961C7.31658 11.8576 7.49856 11.7763 7.69077 11.7692H13.8908C14.0877 11.7692 14.2765 11.8474 14.4158 11.9867C14.555 12.1259 14.6333 12.3148 14.6333 12.5117C14.6333 12.7086 14.555 12.8975 14.4158 13.0367C14.2765 13.176 14.0877 13.2542 13.8908 13.2542ZM7.09777 4.60621H3.98077C3.78397 4.60621 3.59524 4.52804 3.45609 4.38888C3.31694 4.24973 3.23877 4.061 3.23877 3.86421C3.23877 3.66742 3.31694 3.47869 3.45609 3.33954C3.59524 3.20039 3.78397 3.12221 3.98077 3.12221H7.09777C7.29456 3.12221 7.48329 3.20039 7.62244 3.33954C7.76159 3.47869 7.83977 3.66742 7.83977 3.86421C7.83977 4.061 7.76159 4.24973 7.62244 4.38888C7.48329 4.52804 7.29456 4.60621 7.09777 4.60621Z" fill="#100DB1"/>
<path d="M15.0016 10.3581H9.76957C9.6699 10.3618 9.57052 10.3453 9.47736 10.3097C9.3842 10.2741 9.29918 10.2201 9.22738 10.1508C9.15557 10.0816 9.09846 9.99864 9.05945 9.90686C9.02044 9.81507 9.00033 9.71636 9.00033 9.61663C9.00033 9.51689 9.02044 9.41818 9.05945 9.32639C9.09846 9.23461 9.15557 9.15163 9.22738 9.08241C9.29918 9.01319 9.3842 8.95916 9.47736 8.92355C9.57052 8.88793 9.6699 8.87146 9.76957 8.87512H15.0016C15.1012 8.87146 15.2006 8.88793 15.2938 8.92355C15.3869 8.95916 15.4719 9.01319 15.5438 9.08241C15.6156 9.15163 15.6727 9.23461 15.7117 9.32639C15.7507 9.41818 15.7708 9.51689 15.7708 9.61663C15.7708 9.71636 15.7507 9.81507 15.7117 9.90686C15.6727 9.99864 15.6156 10.0816 15.5438 10.1508C15.4719 10.2201 15.3869 10.2741 15.2938 10.3097C15.2006 10.3453 15.1012 10.3618 15.0016 10.3581ZM12.4016 7.50113H5.46557C5.36577 7.50479 5.26625 7.48829 5.17297 7.45263C5.07969 7.41697 4.99456 7.36286 4.92266 7.29355C4.85076 7.22425 4.79357 7.14115 4.75451 7.04924C4.71544 6.95733 4.69531 6.85849 4.69531 6.75863C4.69531 6.65876 4.71544 6.55992 4.75451 6.46801C4.79357 6.3761 4.85076 6.293 4.92266 6.2237C4.99456 6.15439 5.07969 6.10028 5.17297 6.06462C5.26625 6.02896 5.36577 6.01246 5.46557 6.01613H12.4046C12.5968 6.02318 12.7788 6.1045 12.9122 6.24297C13.0457 6.38144 13.1203 6.56629 13.1203 6.75863C13.1203 6.95096 13.0457 7.13581 12.9122 7.27428C12.7788 7.41275 12.5968 7.49407 12.4046 7.50113H12.4016Z" fill="#F80D38"/>
</svg>
