<svg width="20" height="20" viewBox="0 0 20 20" fill="none" xmlns="http://www.w3.org/2000/svg">
<path d="M10.7428 19.9618H10.3968C10.1999 19.9618 10.011 19.8835 9.8718 19.7443C9.73256 19.605 9.65433 19.4162 9.65433 19.2192C9.65433 19.0223 9.73256 18.8335 9.8718 18.6942C10.011 18.555 10.1999 18.4768 10.3968 18.4768H10.7438C11.73 18.4751 12.7058 18.2744 13.6126 17.8865C14.5193 17.4987 15.3384 16.9318 16.0208 16.2198C16.1569 16.0777 16.3437 15.9954 16.5404 15.9909C16.737 15.9864 16.9274 16.0601 17.0698 16.1958C17.2116 16.332 17.2937 16.5187 17.2982 16.7153C17.3027 16.9119 17.2292 17.1022 17.0938 17.2448C16.2725 18.1017 15.2867 18.784 14.1954 19.2509C13.1041 19.7177 11.9298 19.9595 10.7428 19.9618ZM7.39083 19.9618H5.12683C3.94613 19.9602 2.81427 19.4904 1.97948 18.6554C1.1447 17.8204 0.675151 16.6884 0.673828 15.5077L0.673828 9.42275C0.675151 8.24205 1.1447 7.11008 1.97948 6.27511C2.81427 5.44014 3.94613 4.97034 5.12683 4.96875H15.2208C16.4015 4.97034 17.5334 5.44014 18.3682 6.27511C19.203 7.11008 19.6725 8.24205 19.6738 9.42275V11.6487C19.6738 11.8455 19.5957 12.0343 19.4565 12.1734C19.3173 12.3126 19.1286 12.3907 18.9318 12.3907C18.735 12.3907 18.5463 12.3126 18.4072 12.1734C18.268 12.0343 18.1898 11.8455 18.1898 11.6487V9.42275C18.189 8.63557 17.876 7.88085 17.3194 7.32423C16.7627 6.7676 16.008 6.45454 15.2208 6.45375H5.12683C4.33964 6.45454 3.58493 6.7676 3.02831 7.32423C2.47168 7.88085 2.15862 8.63557 2.15783 9.42275V15.5077C2.15862 16.2949 2.47168 17.0496 3.02831 17.6063C3.58493 18.1629 4.33964 18.476 5.12683 18.4768H7.39083C7.58775 18.4768 7.77661 18.555 7.91585 18.6942C8.0551 18.8335 8.13333 19.0223 8.13333 19.2192C8.13333 19.4162 8.0551 19.605 7.91585 19.7443C7.77661 19.8835 7.58775 19.9618 7.39083 19.9618ZM18.9318 18.4397C18.7349 18.4395 18.5462 18.3611 18.4071 18.2218C18.268 18.0825 18.1898 17.8936 18.1898 17.6967V15.7378C18.1898 15.5292 18.107 15.3292 17.9597 15.1816C17.8123 15.034 17.6124 14.951 17.4038 14.9508H15.4438C15.344 14.9544 15.2445 14.9379 15.1512 14.9023C15.058 14.8666 14.9728 14.8125 14.9009 14.7432C14.829 14.6739 14.7718 14.5908 14.7328 14.4989C14.6937 14.407 14.6736 14.3081 14.6736 14.2083C14.6736 14.1084 14.6937 14.0095 14.7328 13.9176C14.7718 13.8257 14.829 13.7426 14.9009 13.6733C14.9728 13.604 15.058 13.5499 15.1512 13.5142C15.2445 13.4786 15.344 13.4621 15.4438 13.4657H17.4038C18.006 13.4665 18.5832 13.7062 19.0088 14.1322C19.4344 14.5582 19.6736 15.1356 19.6738 15.7378V17.6967C19.6738 17.8938 19.5955 18.0828 19.4562 18.2221C19.3169 18.3615 19.1289 18.4397 18.9318 18.4397ZM8.73183 16.6958C8.54827 16.6967 8.36856 16.6432 8.21546 16.542C8.06236 16.4407 7.94276 16.2963 7.87184 16.127C7.80091 15.9577 7.78183 15.7711 7.81703 15.591C7.85224 15.4108 7.94013 15.2452 8.06957 15.1151C8.19901 14.9849 8.36418 14.8961 8.54413 14.8599C8.72409 14.8238 8.91073 14.8418 9.08041 14.9118C9.25009 14.9819 9.39516 15.1007 9.49725 15.2532C9.59933 15.4058 9.65382 15.5852 9.65383 15.7688C9.6533 16.0144 9.55546 16.2499 9.38173 16.4237C9.208 16.5974 8.97252 16.6952 8.72683 16.6958H8.73183ZM5.54083 16.6958C5.35753 16.6958 5.17834 16.6414 5.02592 16.5396C4.8735 16.4378 4.75468 16.2931 4.68449 16.1237C4.6143 15.9544 4.59588 15.7681 4.63157 15.5883C4.66726 15.4085 4.75544 15.2433 4.88499 15.1136C5.01453 14.9839 5.17961 14.8956 5.35937 14.8597C5.53912 14.8238 5.72548 14.842 5.89488 14.912C6.06429 14.982 6.20913 15.1007 6.31111 15.253C6.41309 15.4053 6.46763 15.5844 6.46783 15.7677C6.4677 15.8899 6.44347 16.0109 6.39654 16.1236C6.34961 16.2364 6.28089 16.3389 6.19432 16.4251C6.10775 16.5113 6.00502 16.5795 5.89203 16.626C5.77904 16.6724 5.65799 16.6961 5.53583 16.6958H5.54083ZM11.9238 13.5048C11.7402 13.5049 11.5607 13.4507 11.408 13.3488C11.2552 13.247 11.1361 13.1021 11.0658 12.9326C10.9954 12.763 10.9768 12.5764 11.0125 12.3963C11.0482 12.2162 11.1365 12.0508 11.2663 11.9209C11.396 11.791 11.5614 11.7025 11.7414 11.6667C11.9215 11.6308 12.1081 11.6491 12.2777 11.7193C12.4474 11.7895 12.5923 11.9084 12.6944 12.0611C12.7964 12.2137 12.8508 12.3932 12.8508 12.5767C12.8507 12.6989 12.8265 12.8199 12.7795 12.9327C12.7326 13.0454 12.6639 13.1479 12.5773 13.2341C12.4907 13.3203 12.388 13.3885 12.275 13.435C12.162 13.4814 12.041 13.5051 11.9188 13.5048H11.9238ZM8.73283 13.5048C8.54924 13.5049 8.36973 13.4507 8.21699 13.3488C8.06425 13.247 7.94515 13.1021 7.87476 12.9326C7.80436 12.763 7.78584 12.5764 7.82154 12.3963C7.85723 12.2162 7.94554 12.0508 8.07528 11.9209C8.20502 11.791 8.37037 11.7025 8.55042 11.6667C8.73046 11.6308 8.9171 11.6491 9.08673 11.7193C9.25636 11.7895 9.40135 11.9084 9.50336 12.0611C9.60538 12.2137 9.65983 12.3932 9.65983 12.5767C9.6597 12.699 9.63544 12.82 9.58844 12.9329C9.54145 13.0457 9.47264 13.1482 9.38596 13.2344C9.29929 13.3206 9.19645 13.3889 9.08334 13.4353C8.97023 13.4817 8.84908 13.5053 8.72683 13.5048H8.73283ZM5.54183 13.5048C5.35824 13.5049 5.17873 13.4507 5.02599 13.3488C4.87325 13.247 4.75415 13.1021 4.68376 12.9326C4.61336 12.763 4.59484 12.5764 4.63054 12.3963C4.66623 12.2162 4.75454 12.0508 4.88428 11.9209C5.01402 11.791 5.17937 11.7025 5.35942 11.6667C5.53946 11.6308 5.7261 11.6491 5.89573 11.7193C6.06536 11.7895 6.21035 11.9084 6.31236 12.0611C6.41438 12.2137 6.46883 12.3932 6.46883 12.5767C6.4687 12.699 6.44444 12.82 6.39744 12.9329C6.35045 13.0457 6.28164 13.1482 6.19496 13.2344C6.10829 13.3206 6.00545 13.3889 5.89234 13.4353C5.77923 13.4817 5.65808 13.5053 5.53583 13.5048H5.54183ZM11.9248 10.3137C11.7415 10.3137 11.5623 10.2594 11.4099 10.1576C11.2575 10.0558 11.1387 9.91106 11.0685 9.74173C10.9983 9.5724 10.9799 9.38606 11.0156 9.20627C11.0513 9.02648 11.1394 8.8613 11.269 8.73162C11.3985 8.60193 11.5636 8.51357 11.7434 8.47768C11.9231 8.4418 12.1095 8.46002 12.2789 8.53003C12.4483 8.60004 12.5931 8.7187 12.6951 8.87101C12.7971 9.02332 12.8516 9.20245 12.8518 9.38575C12.8516 9.50792 12.8272 9.62883 12.7802 9.74157C12.7331 9.85432 12.6643 9.95667 12.5776 10.0428C12.4909 10.1289 12.3882 10.1971 12.2751 10.2434C12.1621 10.2897 12.041 10.3133 11.9188 10.3127L11.9248 10.3137ZM8.73383 10.3137C8.55053 10.3137 8.37134 10.2594 8.21892 10.1576C8.0665 10.0558 7.94768 9.91106 7.87749 9.74173C7.8073 9.5724 7.78888 9.38606 7.82457 9.20627C7.86026 9.02648 7.94844 8.8613 8.07799 8.73162C8.20753 8.60193 8.37261 8.51357 8.55237 8.47768C8.73212 8.4418 8.91848 8.46002 9.08788 8.53003C9.25729 8.60004 9.40213 8.7187 9.50411 8.87101C9.60609 9.02332 9.66063 9.20245 9.66083 9.38575C9.66057 9.508 9.63618 9.629 9.58906 9.74181C9.54195 9.85461 9.47303 9.95701 9.38626 10.0431C9.29949 10.1293 9.19657 10.1974 9.08342 10.2437C8.97026 10.2899 8.84908 10.3134 8.72683 10.3127L8.73383 10.3137ZM5.54283 10.3137C5.35953 10.3137 5.18034 10.2594 5.02792 10.1576C4.8755 10.0558 4.75668 9.91106 4.68649 9.74173C4.6163 9.5724 4.59788 9.38606 4.63357 9.20627C4.66926 9.02648 4.75744 8.8613 4.88699 8.73162C5.01653 8.60193 5.18161 8.51357 5.36137 8.47768C5.54112 8.4418 5.72748 8.46002 5.89688 8.53003C6.06629 8.60004 6.21113 8.7187 6.31311 8.87101C6.41509 9.02332 6.46963 9.20245 6.46983 9.38575C6.46957 9.508 6.44518 9.629 6.39806 9.74181C6.35094 9.85461 6.28203 9.95701 6.19526 10.0431C6.10849 10.1293 6.00557 10.1974 5.89241 10.2437C5.77926 10.2899 5.65808 10.3134 5.53583 10.3127L5.54283 10.3137Z" fill="#100DB1"/>
<path d="M15.1093 10.3129C14.926 10.3127 14.7469 10.2582 14.5946 10.1563C14.4424 10.0544 14.3237 9.90957 14.2537 9.74022C14.1836 9.57088 14.1653 9.38457 14.2011 9.20484C14.2369 9.02512 14.3252 8.86003 14.4548 8.73045C14.5844 8.60087 14.7495 8.5126 14.9292 8.4768C15.1089 8.441 15.2952 8.45927 15.4646 8.52931C15.6339 8.59935 15.7787 8.71801 15.8806 8.8703C15.9826 9.02259 16.0371 9.20168 16.0373 9.38494C16.0373 9.63106 15.9395 9.8671 15.7655 10.0411C15.5914 10.2152 15.3554 10.3129 15.1093 10.3129ZM15.9633 3.92994C15.7662 3.92994 15.5772 3.85166 15.4379 3.71232C15.2986 3.57298 15.2203 3.38399 15.2203 3.18694C15.2203 2.99015 15.1421 2.80142 15.003 2.66226C14.8638 2.52311 14.6751 2.44494 14.4783 2.44494C14.2815 2.44494 14.0928 2.52311 13.9536 2.66226C13.8145 2.80142 13.7363 2.99015 13.7363 3.18694C13.7363 3.38373 13.6581 3.57246 13.519 3.71161C13.3798 3.85076 13.1911 3.92894 12.9943 3.92894C12.7975 3.92894 12.6088 3.85076 12.4696 3.71161C12.3305 3.57246 12.2523 3.38373 12.2523 3.18694C12.2523 2.59657 12.4868 2.03037 12.9043 1.61292C13.3217 1.19546 13.8879 0.960938 14.4783 0.960938C15.0687 0.960938 15.6348 1.19546 16.0523 1.61292C16.4698 2.03037 16.7043 2.59657 16.7043 3.18694C16.7043 3.38365 16.6263 3.57233 16.4874 3.71161C16.3485 3.85089 16.16 3.92941 15.9633 3.92994ZM7.42728 3.92994C7.2304 3.92967 7.04167 3.85128 6.90254 3.71196C6.76342 3.57265 6.68528 3.38382 6.68528 3.18694C6.67822 2.99473 6.59691 2.81275 6.45843 2.67926C6.31996 2.54578 6.13512 2.47119 5.94278 2.47119C5.75044 2.47119 5.5656 2.54578 5.42712 2.67926C5.28865 2.81275 5.20733 2.99473 5.20028 3.18694C5.20401 3.2866 5.1876 3.38599 5.15205 3.47917C5.1165 3.57236 5.06253 3.65741 4.99336 3.72926C4.92419 3.80111 4.84125 3.85828 4.74949 3.89736C4.65773 3.93643 4.55903 3.9566 4.4593 3.95667C4.35956 3.95673 4.26084 3.9367 4.16903 3.89775C4.07721 3.8588 3.99419 3.80174 3.92493 3.72998C3.85567 3.65823 3.80158 3.57324 3.7659 3.48011C3.73022 3.38698 3.71369 3.28761 3.71728 3.18794C3.72962 2.6056 3.96962 2.05128 4.38582 1.6438C4.80203 1.23632 5.36131 1.00813 5.94378 1.00813C6.52624 1.00813 7.08553 1.23632 7.50173 1.6438C7.91794 2.05128 8.15794 2.6056 8.17028 3.18794C8.17001 3.38465 8.09175 3.57322 7.95266 3.71232C7.81356 3.85141 7.62399 3.92967 7.42728 3.92994Z" fill="#F80D38"/>
</svg>
