<?xml version="1.0" encoding="UTF-8"?>
<svg id="Layer_1" data-name="Layer 1" xmlns="http://www.w3.org/2000/svg" viewBox="0 0 4315.39 4315.39">
  <defs>
    <style>
      .cls-1 {
        fill: #bcbcbc;
        font-family: MyriadPro-Regular, 'Myriad Pro';
        font-size: 82.31px;
      }

      .cls-2 {
        letter-spacing: 0em;
      }

      .cls-3 {
        fill: #fff;
      }

      .cls-4 {
        fill: #0172d2;
      }

      .cls-5 {
        fill: #001030;
      }

      .cls-6 {
        fill: #0c375a;
      }

      .cls-7 {
        stroke: #9c9cb5;
        stroke-width: 9px;
      }

      .cls-7, .cls-8, .cls-9 {
        fill: none;
      }

      .cls-7, .cls-9 {
        stroke-miterlimit: 10;
      }

      .cls-10 {
        fill: #00607f;
      }

      .cls-11 {
        fill: #d0e1fc;
      }

      .cls-12 {
        fill: #ffaa95;
      }

      .cls-13 {
        fill: #d3e8ee;
      }

      .cls-14 {
        fill: #0036af;
      }

      .cls-15 {
        fill: #e0ebfc;
      }

      .cls-16 {
        fill: #00497f;
      }

      .cls-17 {
        fill: #d85c48;
      }

      .cls-18 {
        fill: #ff8b6b;
      }

      .cls-9 {
        stroke: #191919;
        stroke-width: 4px;
      }

      .cls-19 {
        fill: #f2f3f4;
      }

      .cls-20 {
        letter-spacing: -.04em;
      }

      .cls-21 {
        fill: #0056c7;
      }

      .cls-22 {
        fill: #4d91fe;
      }
    </style>
  </defs>
  <rect class="cls-8" width="4315.39" height="4315.39" rx="7.39" ry="7.39"/>
  <path class="cls-8" d="m575.38,3732.63V582.76c0-4.08,3.31-7.39,7.39-7.39h3149.87c4.08,0,7.39,3.31,7.39,7.39v3149.87c0,4.08-3.31,7.39-7.39,7.39H582.76"/>
  <path class="cls-7" d="m3072.05,2238.57c0,689.44-558.9,1248.34-1248.34,1248.34-2.45,0-4.9-.01-7.35-.03-11.39-.06-22.75-.28-34.06-.65-60.76-1.97-120.42-8.3-178.68-18.66-18.72-3.33-37.3-7.08-55.72-11.24-556.73-125.55-972.53-623.1-972.53-1217.76,0-689.44,558.9-1248.34,1248.34-1248.34s1248.34,558.9,1248.34,1248.34Z"/>
  <rect class="cls-22" x="2167.45" y="1265.9" width="1572.57" height="859.77" rx="47.33" ry="47.33"/>
  <rect class="cls-11" x="2405.35" y="1358.54" width="1055.98" height="268.73"/>
  <g>
    <g>
      <path class="cls-21" d="m660.43,3218.74c92.7,103.97,211.63,43.52,255.14,142.84,43.5,99.3,140.12,144.83,216.41,87.06,76.3-57.8,129.22-104.59,213.72-25.16,84.48,79.44,230.65,70.33,243.25-29.63,3.16-24.88,6.52-51.82,9.78-78.24.89-7.22,1.78-14.41,2.66-21.49.21-1.64.42-3.28.62-4.91,13.14-106.27-54.96-206.94-159.27-231.12-42.23-9.78-85.52-6.1-121.55,25.85-112.88,100.02-127.55-53.87-231.75-72.95-120.02-22.01-162.98,86.87-250.25,61.09-121.39-35.84-271.46,42.69-178.75,146.66Z"/>
      <path class="cls-14" d="m841.22,3197.6l757.52,118.01c.89-7.22,1.78-14.41,2.66-21.49l-756.83-117.91c-5.9-.92-11.44,3.12-12.36,9.02-.92,5.9,3.12,11.44,9.02,12.36Z"/>
    </g>
    <g>
      <path class="cls-16" d="m732.04,2489.6c6.33,157.7,153.92,190.37,120.54,308.6-33.37,118.21,18.43,227.58,126.77,231.92,108.37,4.31,188.35,1.44,205.16,131.76,16.78,130.32,151.27,227.52,234.22,149.1,20.67-19.5,43-40.67,64.86-61.44,5.97-5.68,11.93-11.33,17.79-16.89,1.37-1.28,2.73-2.57,4.07-3.85,87.97-83.56,100.8-220.68,26.9-316.89-29.92-38.95-70.46-66.88-124.99-64.83-170.77,6.32-72.88-138.93-150.35-230.6-89.21-105.62-205.16-41.24-262.99-126.6-80.46-118.71-268.31-157.96-261.98-.26Z"/>
      <path class="cls-21" d="m905.48,2601.19l578.1,648.36c5.97-5.68,11.93-11.33,17.79-16.89l-577.58-647.77c-4.5-5.05-12.26-5.51-17.31-1-5.05,4.51-5.51,12.26-1,17.31Z"/>
    </g>
  </g>
  <rect class="cls-19" x="2405.35" y="1358.54" width="254.77" height="268.73"/>
  <rect class="cls-19" x="2703.65" y="1440.65" width="685.52" height="92.06"/>
  <rect class="cls-11" x="2405.35" y="1746.11" width="1055.98" height="268.73"/>
  <rect class="cls-19" x="2405.35" y="1746.11" width="254.77" height="268.73"/>
  <rect class="cls-19" x="2703.65" y="1810.38" width="685.52" height="140.66"/>
  <line class="cls-9" x1="2523.26" y1="1872.02" x2="2490.92" y2="1914.07"/>
  <circle class="cls-15" cx="1357.22" cy="1107.4" r="382.14"/>
  <circle class="cls-15" cx="762.61" cy="2016.6" r="135.74"/>
  <circle class="cls-15" cx="2765.42" cy="1019.17" r="135.74"/>
  <text class="cls-1" transform="translate(2905.22 1905.8)"><tspan class="cls-20" x="0" y="0">L</tspan><tspan class="cls-2" x="35.64" y="0">OG IN</tspan></text>
  <g>
    <g>
      <path class="cls-12" d="m2564.4,1835.38l21.45,65.65c-67.68,39.68-238.41,133-314.52,160.97-22.6,8.31-54.23,18.63-90.18,29.79-13.72,4.26-28.06,8.67-42.81,13.1-12.69,3.81-25.65,7.64-38.73,11.51-.57.18-1.18.36-1.75.51-17.33,2.02-39.32,4.48-64.26,7.05l.22-104.61,41.11-11.39,24.2-6.68,34.13-9.44,74.73-20.67c55.92-34.48,299.4-105.76,356.4-135.8Z"/>
      <g>
        <path class="cls-12" d="m2660.6,1795.5c1.85-.7,24.21-8.96,30.78.35,6.87,9.69-1.02,19.46-1.02,19.46,0,0,16.42,9.26,16.85,18.81.4,9.56-7.41,16.1-7.41,16.1,0,0,10.55,5.18,10.23,14.22-.3,9.04-12.72,22.28-31.13,27.13-16.34,4.29-24.48.83-26.06.03-.19-.13-.3-.19-.3-.19,0,0-3.03,1.13-8.35,2.9-8.86,2.95-24.07,7.68-41.87,11.65-28.42,6.36-63.61-32.75-66.19-58,0,0,10.42-33.84,22.36-53.32,11.94-19.46,20.61-24.05,35.08-22.14,14.47,1.91,28.66,6.76,31.78,6.2,3.11-.54,76.92-38.86,93.85-33.92,16.56,4.83-55.42,48.77-58.62,50.72Z"/>
        <g>
          <path class="cls-18" d="m2580.64,1829.49c-.65,0-1.3-.16-1.91-.49-1.96-1.06-2.69-3.5-1.63-5.46l8.95-16.56c.54-.99,1.47-1.72,2.56-1.99,1.1-.28,2.26-.08,3.2.54.18.12,18.48,11.93,35.28,7.74,5.14-1.29,8.6-3.42,9.99-6.17,1.58-3.12.26-6.45.24-6.48-.83-2.04.13-4.4,2.16-5.25,2.03-.86,4.37.07,5.24,2.09.29.67,2.75,6.75-.39,13.13-2.49,5.05-7.63,8.58-15.29,10.49-15.38,3.85-30.9-2.89-37.88-6.62l-6.97,12.91c-.73,1.35-2.11,2.11-3.55,2.11Z"/>
          <path class="cls-18" d="m2652.85,1891.61c-.19-.13-.3-.19-.3-.19,0,0-3.03,1.13-8.35,2.9-7.06-8.32-7.57-18.28-8.03-26.65-.38-7.27-.72-13.58-4.56-18.17-3.97-4.72-5.58-9.96-5.88-14.95-.35-4.8.56-9.42,1.74-13.15.43-1.4.89-2.68,1.34-3.78,1.18-2.9,2.28-4.75,2.42-4.99,1.15-1.91,3.62-2.55,5.53-1.4,1.91,1.13,2.52,3.6,1.4,5.5-.03.03-.19.32-.46.86-1.15,2.2-3.94,8.35-3.94,14.98,0,4,1.02,8.19,4.03,11.78,5.56,6.63,6.01,14.9,6.44,22.89.48,9.07.94,17.71,8.62,24.37Z"/>
          <path class="cls-18" d="m2596.86,1861.74c-1.51,0-2.96-.86-3.65-2.32-.94-2.01-.08-4.4,1.93-5.35h0c.24-.11,24.12-11.67,26.52-34.42.23-2.21,2.24-3.82,4.43-3.58,2.21.23,3.81,2.21,3.58,4.42-2.88,27.32-29.95,40.32-31.1,40.86-.55.26-1.13.38-1.71.38Z"/>
        </g>
      </g>
      <path class="cls-18" d="m2099.61,2116.4c28.29-8.35,56-16.68,81.54-24.61-4.97-47.48-28.44-80.38-47.89-99.96l-58.32,16.13,24.67,108.44Z"/>
      <path class="cls-4" d="m2114.09,2134.98s-82.13,33.44-161.06,40.88c-27.54,2.63-54.67,2.07-77.81-4.19l-14.09-25.9-79.23-145.6s186.37,37.31,307.34-5.64c0,0,26.64,75.15,24.84,140.45Z"/>
      <path class="cls-21" d="m1953.03,2175.86c-27.54,2.63-54.67,2.07-77.81-4.19l-14.09-25.9c2.95-12.99,10.47-23.64,25.12-29.36,0,0,18.6,37.84,66.77,59.45Z"/>
    </g>
    <path class="cls-5" d="m1894.85,3014.64l-8.22,49.46-70.27,422.78c-11.39-.06-22.75-.28-34.06-.65-60.76-1.97-120.42-8.3-178.68-18.66l44.85-371.26,9.22-76.27.04-.37,8.16-.17,228.96-4.86Z"/>
    <path class="cls-6" d="m1782.3,3486.23c-60.76-1.97-120.42-8.3-178.68-18.66-18.72-3.33-37.3-7.08-55.72-11.24-99.62-162.62-176.88-337.77-201.48-395.57-5.4-12.7-8.26-19.73-8.26-19.73l319.53-20.99,8.2-.54,18.93,75.33,97.29,387.09.19,4.31Z"/>
    <g>
      <path class="cls-4" d="m1911.4,3005.47c0,22.46-.05,40.28-.22,52.31-53.22,14.33-106.42,24.72-159.61,31.08-1.4.16-2.82.35-4.24.51-2.39.3-4.72.56-7.09.83-.59.05-1.15.11-1.77.16-9.23,1.02-18.41,1.91-27.67,2.66-45.73,3.76-91.47,4.59-137.2,2.47-4.03-.19-8-.4-12.02-.64-3.57-.19-7.19-.4-10.82-.67-1.61-.08-3.25-.19-4.88-.32-3.06-.21-6.07-.46-9.13-.67-67.2-5.45-134.41-17.2-201.59-35.4-.35-26.46-.67-80.38-.78-149.92,0-3.81-.03-7.68,0-11.59-.08-76.71.21-170.85,1.13-267.8.08-7.68.16-15.32.27-23.03.08-8.88.16-17.82.27-26.79.03-1.5.03-3.03.05-4.54.05-2.09.08-4.19.11-6.31.03-4.21.08-8.45.16-12.64.08-6.15.16-12.26.27-18.36.05-4.64.13-9.29.19-13.93.13-9.23.3-18.47.43-27.64,3.25-192.46,9.74-369.33,22.11-414.34,1.15-4.16,2.36-7.19,3.57-8.99,1.32-2.01,2.95-4.03,4.78-6.12,2.31-2.63,4.99-5.34,8-8.08,20.61-18.98,56.36-41.01,92.62-61.92,4.21-2.44,8.48-4.86,12.67-7.27.64-.35,98.52-33.36,99.14-33.74l102.39,7.17c12.29,7.22,109.15,40.15,121.04,47.56,3.52,2.2,6.98,4.4,10.39,6.58,27.86,17.95,51.53,35.8,61.86,50.97,14.9,21.9,23.91,218.39,29.12,432.16.13,4.94.24,9.85.38,14.76.54,22.62,1.02,45.36,1.48,68.09.46,22.44.86,44.82,1.24,67.04.59,36.37,1.13,72.17,1.56,106.66.05,3.92.08,7.81.13,11.7.4,33.63.72,65.86.97,95.98.03,3.94.05,7.84.08,11.7.35,45.2.56,85.21.59,117.34v.03c.03,4.51.03,8.78.03,12.96Z"/>
      <path class="cls-21" d="m1436.87,2331.47c0-5.09-6.48-7.31-9.56-3.26-41.14,54.2-65.97,113.29-80.65,159.99-3.76,12-7,23.62-9.82,34.68-.05,4.64-.13,9.29-.19,13.93-.11,6.09-.19,12.21-.27,18.36-.08,4.19-.13,8.43-.16,12.64-.03,2.12-.05,4.21-.11,6.31-.03,1.5-.03,3.03-.05,4.54,3.86-23.4,10.28-53.95,20.83-87.55,14.38-45.7,38.71-103.5,78.9-156.44.7-.92,1.08-2.04,1.08-3.2h0Z"/>
      <path class="cls-21" d="m1457.7,2811.94h.02c110.56-.49,204.94-50.8,264.63-92.92,64.56-45.55,103.69-91.71,104.08-92.17,1.89-2.25,1.6-5.6-.65-7.49-2.25-1.89-5.6-1.6-7.5.64-.38.45-38.8,45.73-102.31,90.5-58.4,41.16-150.62,90.33-258.3,90.8-2.94.01-5.31,2.4-5.3,5.34.01,2.93,2.39,5.3,5.32,5.3Z"/>
      <path class="cls-21" d="m1572.93,2849.51c95.94,0,191.61-54.67,195.96-57.19,2.54-1.47,3.41-4.73,1.94-7.27-1.47-2.54-4.73-3.41-7.27-1.94-1.12.65-113.7,64.94-213.51,54.61-2.96-.33-5.54,1.82-5.84,4.74-.3,2.92,1.82,5.54,4.74,5.84,7.96.82,15.97,1.21,23.98,1.21Z"/>
      <path class="cls-21" d="m1657.87,2177.37c2.51,0,4.74-1.78,5.22-4.33.55-2.89-1.35-5.67-4.24-6.22-134.8-25.58-175.43-112.29-175.82-113.17-1.21-2.68-4.36-3.87-7.04-2.66-2.68,1.21-3.86,4.36-2.65,7.04,1.7,3.77,43.35,92.64,183.53,119.24.33.06.67.1,1,.1Z"/>
    </g>
    <g>
      <path class="cls-12" d="m1151.33,3171.13c-2.52,27.32,30.76,12.5,21.35-42.86-9.39-55.37,17.28-105.5,28.78-103.89,11.53,1.63-9.53,60.46.72,81.66,10.21,21.2,23.43-20,36.6-44.98,13.65-25.95,12.85-82.58,6.64-122.98-6.21-40.43,67.04-285.9,67.41-357.04l8.93-30.16,32.68-110.42,51.16-172.91s-30.65-130.88-82.32-119.63c0,0-27.35,91.16-56.6,193.97-4.95,17.45-9.96,35.25-14.91,52.99-20.83,74.54-40.4,148.13-49.5,191.79-24.03,115.28-25.89,354.92-25.89,354.92,0,0-42.41,88.04-43.41,127.22-1.06,41.77,20.86,74.99,18.37,102.32Z"/>
      <path class="cls-18" d="m1251.76,2394.88l69.99,156,32.68-110.42-87.76-98.57c-4.95,17.45-9.96,35.25-14.91,52.99Z"/>
      <path class="cls-4" d="m1248.3,2348.41c30.7,52.65,61.92,105.01,93.02,157.46,10.24-34.31,20.86-67.24,30.82-97.51.03-.09.06-.14.09-.23,3.98-12.1,7.87-23.78,11.59-34.94.06-.2.11-.4.2-.57,1.29-3.92,2.55-7.78,3.83-11.56v-.03c14.85-44.9,26.35-80.57,29.64-101.38,8.87-56-15.31-165.7-49.36-187.33h0c-.89,1.97-3.57-4.12-5.17-.4-5.98,13.82-32.54,47.96-45.67,81.2-1.69,4.23-3.4,8.64-5.18,13.13-19.03,48.9-42.29,112.51-63.81,182.15Z"/>
      <g>
        <path class="cls-5" d="m1170,2850.66s66.42-4.92,94.59,15.2l-5.9,38.88s-77.63-8.69-95.74-7.68c0,0-1.78-38.41,7.04-46.4Z"/>
        <path class="cls-6" d="m1203.46,2876.87c0,17.82-12,32.26-26.79,32.26s-26.79-14.45-26.79-32.26,12-32.27,26.79-32.27,26.79,14.45,26.79,32.27Z"/>
        <path class="cls-10" d="m1191.71,2875.74c0,13.03-8.77,23.6-19.6,23.6s-19.6-10.56-19.6-23.6,8.77-23.6,19.6-23.6,19.6,10.56,19.6,23.6Z"/>
      </g>
    </g>
    <g>
      <path class="cls-6" d="m1473.87,1692.83c0,88.89,54.72,150.14,143.61,150.14s150.83-65.86,150.83-154.75-52.63-156.23-141.52-156.23c-106.6,0-152.92,71.95-152.92,160.83Z"/>
      <path class="cls-6" d="m1483.98,1745.97s-19.5-23.36-16.98-83.35c2.53-59.99,22.73-77.04,22.73-77.04,0,0-25.26-42.94-1.89-55.57,23.36-12.63,43.57,0,43.57,0,0,0-17.05-26.52,0-30.31,17.05-3.79,41.59,12,41.59,12,0,0,121.32-45.46,159.21-18.94,37.89,26.52,12.6,105.51,2.6,114.37l-250.84,138.84Z"/>
      <g>
        <path class="cls-18" d="m1493.84,1731.1s-24.7-32.93-43.06-5.7c-18.36,27.23,7.6,107.65,52.56,88.02l-9.5-82.32Z"/>
        <path class="cls-17" d="m1493.52,1788.56c-1.66,0-3.19-1.1-3.66-2.77-6.97-24.83-32.69-34.89-32.95-34.99-1.96-.75-2.94-2.94-2.2-4.9.74-1.96,2.93-2.95,4.89-2.21,1.2.46,29.55,11.46,37.57,40.05.56,2.02-.61,4.12-2.63,4.68-.34.1-.69.14-1.03.14Z"/>
        <path class="cls-17" d="m1467.56,1776.06c-.7,0-1.42-.2-2.05-.61-1.76-1.14-2.27-3.49-1.14-5.25.19-.29,4.74-7.23,14.26-11.49,1.9-.86,4.16,0,5.02,1.92.86,1.92,0,4.16-1.92,5.02-7.36,3.3-10.94,8.62-10.97,8.68-.73,1.13-1.95,1.74-3.2,1.74Z"/>
      </g>
      <g>
        <path class="cls-18" d="m1748.34,1731.1s24.69-32.93,43.06-5.7c18.36,27.23-7.6,107.65-52.56,88.02l9.5-82.32Z"/>
        <path class="cls-17" d="m1748.66,1788.56c1.66,0,3.18-1.1,3.66-2.77,6.97-24.83,32.69-34.89,32.95-34.99,1.96-.75,2.94-2.94,2.2-4.9-.74-1.96-2.93-2.95-4.89-2.21-1.2.46-29.55,11.46-37.57,40.05-.57,2.02.61,4.12,2.63,4.68.34.1.69.14,1.03.14Z"/>
        <path class="cls-17" d="m1774.62,1776.06c.7,0,1.42-.2,2.05-.61,1.76-1.14,2.27-3.49,1.14-5.25-.19-.29-4.74-7.23-14.26-11.49-1.9-.86-4.16,0-5.02,1.92-.86,1.92,0,4.16,1.91,5.02,7.36,3.3,10.94,8.62,10.97,8.68.73,1.13,1.95,1.74,3.2,1.74Z"/>
      </g>
      <path class="cls-12" d="m1681.88,1881.63v79.97s-23.85,40.73-56.1,43.5c-32.22,2.81-60.85-35.07-60.85-35.07v-82.79l116.96-5.62Z"/>
      <path class="cls-18" d="m1681.88,1881.63v35.48c-21.64,24.02-60.08,30.01-116.96,21.62v-51.48l116.96-5.62Z"/>
      <path class="cls-12" d="m1766.2,1676.24c-1.48,31.08-4.45,69.94-10.37,101.02-1.48,7.75-3.15,15.04-5.02,21.58-16.83,58.93-58.93,159.99-176.78,117.89-52.05-18.58-76.17-76.55-86.93-135.52-7.29-40.04-8.4-80.51-7.86-109.42.57-29.52,16.68-56.5,42.36-71.05,69.56-39.44,142.97-24.73,191.29-6.15,33.55,12.88,55.01,45.82,53.3,81.65Z"/>
      <path class="cls-6" d="m1577.7,1735.8c0,8.54-4.4,15.46-9.83,15.46s-9.83-6.92-9.83-15.46,4.4-15.46,9.83-15.46,9.83,6.92,9.83,15.46Z"/>
      <path class="cls-6" d="m1691.71,1735.8c0,8.54-4.4,15.46-9.83,15.46s-9.83-6.92-9.83-15.46,4.4-15.46,9.83-15.46,9.83,6.92,9.83,15.46Z"/>
      <path class="cls-6" d="m1708.59,1688.1s-31.01-12.25-54.88-1.94l2.39,13.28s35.04-2.96,52.7,4.19c1.58-5.11,1.81-10.28-.2-15.53Z"/>
      <path class="cls-6" d="m1527.94,1688.1s31.01-12.25,54.88-1.94l-2.39,13.28s-35.04-2.96-52.69,4.19c-1.58-5.11-1.81-10.28.2-15.53Z"/>
      <path class="cls-18" d="m1624.95,1802.81c-6.36.78-12.98-.92-14-1.21-2.02-.55-3.21-2.64-2.66-4.66.55-2.02,2.64-3.22,4.66-2.67,3.57.96,12.02,2.13,15.3-.42.63-.49,1.47-1.42,1.43-3.74-.25-13.34-9.25-57.04-9.34-57.48-.42-2.05.9-4.06,2.95-4.49,2.06-.43,4.06.9,4.49,2.95.38,1.82,9.24,44.84,9.5,58.87.1,5.28-2.32,8.29-4.36,9.88-2.24,1.74-5.07,2.6-7.96,2.96Z"/>
      <path class="cls-3" d="m1573,1825.61c3.1,15.62,13.42,44.36,48.19,44.36s44.62-26.26,47.98-44.36h-96.18Z"/>
      <path class="cls-18" d="m1618.28,1893.52c9.83,0,18.17-4.98,18.52-5.19,1.79-1.09,2.37-3.42,1.28-5.22-1.09-1.8-3.42-2.37-5.22-1.28-.06.04-6.92,4.1-14.58,4.1-7.03,0-13.76-4.04-13.83-4.08-1.79-1.1-4.13-.55-5.23,1.24-1.1,1.79-.55,4.13,1.24,5.23.34.21,8.54,5.21,17.82,5.21Z"/>
      <path class="cls-6" d="m1762.18,1731.77h-17.22c1.9-17.29-4.38-38.18-9.57-52.09-11.76-31.56,13.27-45.49-6.98-61.29-20.25-15.84-70.66-9.05-105.71-10.19-35.27-1.14-91.95-.64-105.7,2.55-13.79,3.15-6.23,26.05-1.18,43.79,5.09,17.7-16.91,37.31-20.59,55.66-1.06,5.27-.84,13.09,0,21.57h-14.35c-1.7-22.33-6.59-44.99-6.28-61.84.57-29.52,24.49-64.15,50.17-78.7,69.56-39.44,139.91-21.45,188.23-2.87,33.55,12.88,54.89,52.06,53.18,87.88-.81,17.03-2.07,36.39-4.02,55.53Z"/>
    </g>
  </g>
  <g>
    <path class="cls-13" d="m1236.66,1199.46c1.16-.16,2.28-.61,3.28-1.36,10.59-7.95,16.94-12.02,17-12.06,3.32-2.12,4.3-6.53,2.18-9.85-2.12-3.32-6.53-4.3-9.85-2.19-.27.18-6.82,4.36-17.91,12.68-3.15,2.37-3.79,6.84-1.42,9.99,1.62,2.15,4.22,3.13,6.71,2.78Z"/>
    <g>
      <polygon class="cls-4" points="1224.95 1152.06 1166.59 1047.44 1538.58 957.79 1224.95 1152.06"/>
      <polygon class="cls-21" points="1538.58 957.78 1249.74 1174.64 1248.98 1175.23 1240.84 1201.71 1224.95 1152.06 1538.58 957.78"/>
      <polygon class="cls-14" points="1240.84 1201.71 1269.75 1189.44 1248.98 1175.23 1240.84 1201.71"/>
      <polygon class="cls-4" points="1285.32 1147.94 1248.97 1175.23 1356.23 1248.58 1538.58 957.79 1285.32 1147.94"/>
    </g>
  </g>
</svg>