<svg width="15" height="17" viewBox="0 0 15 17" fill="none" xmlns="http://www.w3.org/2000/svg">
<path d="M13.3714 16.9678C13.1959 16.9675 13.0277 16.8977 12.9036 16.7736C12.7795 16.6495 12.7096 16.4813 12.7094 16.3058C12.7073 15.0599 12.2114 13.8657 11.3304 12.9847C10.4495 12.1038 9.25524 11.6079 8.00938 11.6058H7.01237C5.76659 11.6082 4.57251 12.1041 3.6916 12.985C2.81069 13.8659 2.31475 15.06 2.31237 16.3058C2.31291 16.4819 2.24346 16.651 2.11931 16.7759C1.99516 16.9008 1.82648 16.9713 1.65038 16.9718C1.47427 16.9723 1.30517 16.9029 1.18027 16.7787C1.05537 16.6546 0.984905 16.4859 0.984375 16.3098C0.986492 14.7118 1.62229 13.1799 2.75233 12.05C3.88237 10.9202 5.41439 10.2846 7.01237 10.2828H8.00637C9.60427 10.2846 11.1362 10.9202 12.2661 12.0501C13.3959 13.18 14.0315 14.7119 14.0334 16.3098C14.0321 16.4846 13.9618 16.6518 13.8378 16.775C13.7138 16.8982 13.5462 16.9675 13.3714 16.9678ZM7.44238 8.95279C6.55785 8.95279 5.6932 8.69049 4.95776 8.19905C4.22232 7.70762 3.64914 7.00913 3.31069 6.19192C2.97224 5.37471 2.88374 4.47549 3.05638 3.60798C3.22901 2.74047 3.65503 1.94364 4.28055 1.31826C4.90607 0.692875 5.703 0.267038 6.57054 0.0945974C7.43809 -0.0778427 8.33729 0.0108604 9.15443 0.349489C9.97156 0.688117 10.6699 1.26146 11.1612 1.99701C11.6525 2.73256 11.9146 3.59727 11.9144 4.48179C11.9131 5.66734 11.4414 6.80394 10.603 7.64216C9.76463 8.48037 8.62793 8.95173 7.44238 8.95279ZM7.44238 1.33379C6.82007 1.333 6.21151 1.51679 5.69367 1.8619C5.17583 2.20702 4.77198 2.69796 4.53319 3.27263C4.29441 3.8473 4.23142 4.47988 4.35219 5.09035C4.47297 5.70083 4.77208 6.26177 5.2117 6.70222C5.65131 7.14268 6.21168 7.44286 6.82192 7.5648C7.43216 7.68674 8.06486 7.62496 8.63999 7.38727C9.21511 7.14958 9.70682 6.74666 10.0529 6.22948C10.399 5.7123 10.584 5.1041 10.5844 4.48179C10.5836 3.64826 10.2525 2.84903 9.66353 2.25917C9.07461 1.6693 8.2759 1.33691 7.44238 1.33479V1.33379Z" fill="#100DB1"/>
<path d="M7.47579 16.9634C7.3591 16.9634 7.24452 16.9323 7.14379 16.8734L4.46079 15.3224C4.38466 15.2778 4.31818 15.2185 4.26527 15.1479C4.21236 15.0773 4.17407 14.9968 4.15265 14.9112C4.13123 14.8256 4.12711 14.7366 4.14052 14.6494C4.15394 14.5622 4.18463 14.4786 4.23079 14.4034L5.22179 12.7804C5.31356 12.6305 5.46109 12.5233 5.63194 12.4822C5.80278 12.4412 5.98294 12.4696 6.13279 12.5614C6.28264 12.6532 6.3899 12.8007 6.43097 12.9715C6.47204 13.1424 6.44356 13.3225 6.35179 13.4724L5.71179 14.5164L7.47979 15.5424L9.29279 14.5154L8.63879 13.4804C8.5923 13.4069 8.56074 13.325 8.54591 13.2393C8.53108 13.1537 8.53327 13.0659 8.55235 12.9811C8.57143 12.8963 8.60704 12.816 8.65713 12.745C8.70722 12.6739 8.77082 12.6134 8.84429 12.5669C8.91777 12.5204 8.99968 12.4888 9.08535 12.474C9.17102 12.4592 9.25878 12.4614 9.3436 12.4805C9.42843 12.4995 9.50867 12.5351 9.57973 12.5852C9.6508 12.6353 9.7113 12.6989 9.75779 12.7724L10.7848 14.3954C10.8327 14.4711 10.8648 14.5558 10.879 14.6444C10.8933 14.7329 10.8894 14.8234 10.8676 14.9103C10.8458 14.9973 10.8066 15.0789 10.7523 15.1503C10.698 15.2216 10.6298 15.2812 10.5518 15.3254L7.80179 16.8824C7.70232 16.9386 7.59004 16.9682 7.47579 16.9684V16.9634Z" fill="#F80D38"/>
</svg>
